<svg width="18" height="18" viewBox="0 0 18 18" fill="none" xmlns="http://www.w3.org/2000/svg">
<path d="M9 0.25C7.62125 0.25 6.5 1.37125 6.5 2.75C6.5 4.12875 7.62125 5.25 9 5.25C10.3788 5.25 11.5 4.12875 11.5 2.75C11.5 1.37125 10.3788 0.25 9 0.25ZM10.25 5.25H7.75C6.37125 5.25 5.25 6.37125 5.25 7.75V9H12.75V7.75C12.75 6.37125 11.6288 5.25 10.25 5.25ZM11.1875 7.75H10.5625C10.4796 7.75 10.4001 7.71708 10.3415 7.65847C10.2829 7.59987 10.25 7.52038 10.25 7.4375C10.25 7.35462 10.2829 7.27513 10.3415 7.21653C10.4001 7.15792 10.4796 7.125 10.5625 7.125H11.1875C11.2704 7.125 11.3499 7.15792 11.4085 7.21653C11.4671 7.27513 11.5 7.35462 11.5 7.4375C11.5 7.52038 11.4671 7.59987 11.4085 7.65847C11.3499 7.71708 11.2704 7.75 11.1875 7.75ZM3.375 7.865V7.75C3.375 7.58424 3.30915 7.42527 3.19194 7.30806C3.07473 7.19085 2.91576 7.125 2.75 7.125C2.58424 7.125 2.42527 7.19085 2.30806 7.30806C2.19085 7.42527 2.125 7.58424 2.125 7.75V7.865C1.59562 8.05375 1.06438 8.4725 0.875 9H4.625C4.43562 8.4725 3.90438 8.05375 3.375 7.865ZM17.125 9H14V8.375C14 8.20924 14.0658 8.05027 14.1831 7.93306C14.3003 7.81585 14.4592 7.75 14.625 7.75H16.5C16.6658 7.75 16.8247 7.81585 16.9419 7.93306C17.0592 8.05027 17.125 8.20924 17.125 8.375V9ZM17.125 9.625H0.875C0.70924 9.625 0.550268 9.69085 0.433058 9.80806C0.315848 9.92527 0.25 10.0842 0.25 10.25V17.125C0.25 17.2908 0.315848 17.4497 0.433058 17.5669C0.550268 17.6842 0.70924 17.75 0.875 17.75H17.125C17.2908 17.75 17.4497 17.6842 17.5669 17.5669C17.6842 17.4497 17.75 17.2908 17.75 17.125V10.25C17.75 10.0842 17.6842 9.92527 17.5669 9.80806C17.4497 9.69085 17.2908 9.625 17.125 9.625ZM16.5 15.875C16.5 16.0408 16.4342 16.1997 16.3169 16.3169C16.1997 16.4342 16.0408 16.5 15.875 16.5H2.125C1.95924 16.5 1.80027 16.4342 1.68306 16.3169C1.56585 16.1997 1.5 16.0408 1.5 15.875V11.5C1.5 11.3342 1.56585 11.1753 1.68306 11.0581C1.80027 10.9408 1.95924 10.875 2.125 10.875H15.875C16.0408 10.875 16.1997 10.9408 16.3169 11.0581C16.4342 11.1753 16.5 11.3342 16.5 11.5V15.875Z" fill="#01BCF1"/>
<path d="M2.125 11.5H15.875V15.875H2.125V11.5Z" fill="#01BCF1"/>
</svg>
