<svg width="24" height="24" viewBox="0 0 24 24" fill="none" xmlns="http://www.w3.org/2000/svg">
<g clip-path="url(#clip0_100_295)">
<path d="M8.94212 10.7891V11.1212C8.94212 11.2291 8.89927 11.3325 8.82298 11.4088C8.74669 11.4851 8.64323 11.528 8.53535 11.528C8.42746 11.528 8.324 11.4851 8.24771 11.4088C8.17142 11.3325 8.12857 11.2291 8.12857 11.1212V10.8661C7.6925 10.8916 7.26289 10.8937 6.78971 10.8663V11.1212C6.78971 11.2291 6.74685 11.3325 6.67057 11.4088C6.59428 11.4851 6.49081 11.528 6.38293 11.528C6.27505 11.528 6.17158 11.4851 6.0953 11.4088C6.01901 11.3325 5.97615 11.2291 5.97615 11.1212V10.7895C4.81429 10.6381 3.69632 10.3104 2.66895 9.82031V11.2791C2.66488 17.6259 12.2455 17.6238 12.2491 11.2852V9.82031C11.2219 10.3097 10.1041 10.6374 8.94212 10.7891ZM8.58248 13.6102C7.92045 14.1931 6.99584 14.1934 6.33391 13.6101C6.29346 13.5749 6.26036 13.532 6.23653 13.4839C6.2127 13.4359 6.19861 13.3836 6.19506 13.3301C6.19151 13.2766 6.19858 13.2229 6.21587 13.1721C6.23315 13.1214 6.2603 13.0745 6.29576 13.0343C6.33121 12.994 6.37428 12.9612 6.42247 12.9377C6.47067 12.9141 6.52304 12.9004 6.57657 12.8972C6.63011 12.8939 6.68375 12.9013 6.73441 12.9189C6.78508 12.9365 6.83176 12.964 6.87178 12.9997C7.22252 13.3087 7.69392 13.3087 8.04477 12.9996C8.08486 12.9643 8.13151 12.9372 8.18206 12.9199C8.23261 12.9027 8.28607 12.8955 8.33938 12.8989C8.39269 12.9023 8.44482 12.9161 8.49278 12.9397C8.54074 12.9632 8.58359 12.9959 8.61889 13.036C8.69019 13.117 8.72641 13.223 8.71959 13.3306C8.71276 13.4383 8.66344 13.5389 8.58248 13.6102ZM20.1102 18.4993H18.1532C18.0453 18.4993 17.9418 18.4564 17.8655 18.3801C17.7892 18.3038 17.7464 18.2004 17.7464 18.0925C17.7464 16.0762 19.7034 16.4859 19.7034 15.697C19.7034 14.8998 18.5599 14.9287 18.5599 15.6766C18.5599 15.7845 18.5171 15.888 18.4408 15.9643C18.3645 16.0406 18.261 16.0834 18.1532 16.0834C18.0453 16.0834 17.9418 16.0406 17.8655 15.9643C17.7892 15.888 17.7464 15.7845 17.7464 15.6766C17.7464 13.8476 20.5169 13.8298 20.5169 15.697C20.5169 17.1504 18.873 16.7877 18.6098 17.6857H20.1102C20.218 17.6857 20.3215 17.7286 20.3978 17.8049C20.4741 17.8811 20.5169 17.9846 20.5169 18.0925C20.5169 18.2004 20.4741 18.3038 20.3978 18.3801C20.3215 18.4564 20.218 18.4993 20.1102 18.4993ZM22.7535 18.4869C22.6456 18.4869 22.5422 18.4441 22.4659 18.3678C22.3896 18.2915 22.3467 18.188 22.3467 18.0801V17.5155H21.0537C20.7239 17.5155 20.5309 17.1421 20.7221 16.8731L22.4219 14.4819C22.6506 14.1602 23.1603 14.3221 23.1603 14.7176V16.7036C23.2616 16.7125 23.3559 16.7591 23.4245 16.8341C23.4932 16.9091 23.5313 17.0071 23.5313 17.1088C23.5313 17.2105 23.4932 17.3085 23.4245 17.3835C23.3559 17.4585 23.2616 17.5051 23.1603 17.514V18.0802C23.1603 18.1881 23.1174 18.2915 23.0411 18.3678C22.9648 18.4441 22.8614 18.4869 22.7535 18.4869ZM21.842 16.702H22.3468V15.9918L21.842 16.702Z" fill="#01BCF1"/>
<path d="M23.9987 19.3597L23.8919 20.5582C23.8726 20.7697 23.6951 20.9289 23.4872 20.9289C23.4307 20.9289 23.3748 20.9172 23.323 20.8945C23.2713 20.8718 23.2248 20.8385 23.1867 20.7969C23.1485 20.7552 23.1194 20.706 23.1013 20.6525C23.0832 20.599 23.0764 20.5423 23.0814 20.486L23.0997 20.2801C21.335 21.4907 18.9265 21.3354 17.3311 19.7965C15.5274 18.0561 15.4154 15.1457 17.2686 13.285C18.9564 11.5904 21.6172 11.4402 23.4241 12.9326C23.5975 13.0755 23.6219 13.3318 23.479 13.5052C23.3362 13.6781 23.0799 13.703 22.9065 13.5596C21.4159 12.3301 19.2294 12.4691 17.8452 13.8591C16.3103 15.3993 16.4224 17.7888 17.896 19.2107C19.1609 20.4313 21.0491 20.5931 22.4819 19.7111L22.3838 19.7096C22.159 19.706 21.9801 19.5204 21.9836 19.2962C21.9844 19.2427 21.9958 19.1899 22.017 19.1409C22.0383 19.0918 22.069 19.0474 22.1075 19.0103C22.1459 18.9731 22.1914 18.944 22.2411 18.9245C22.2909 18.9049 22.3441 18.8954 22.3975 18.8965L23.6006 18.9168C23.8401 18.9212 24.0196 19.1289 23.9987 19.3597Z" fill="#01BCF1"/>
<path d="M7.45865 5.50323C8.09165 5.50323 8.60479 4.99008 8.60479 4.35709C8.60479 3.72409 8.09165 3.21094 7.45865 3.21094C6.82565 3.21094 6.3125 3.72409 6.3125 4.35709C6.3125 4.99008 6.82565 5.50323 7.45865 5.50323Z" fill="#01BCF1"/>
<path d="M1.56367 8.22816C4.98818 10.6936 9.94009 10.6858 13.3546 8.22816C9.44072 7.56562 5.47789 7.56562 1.56367 8.22816ZM7.4592 6.91757C10.4866 6.91757 13.7716 7.40301 14.0047 7.54421C15.693 4.49277 12.3277 1.9711 8.6323 0.975561C7.86335 0.768563 7.05333 0.768563 6.28438 0.975561C2.5887 1.9712 -0.77693 4.49317 0.912419 7.54497C1.14576 7.40235 4.37481 6.91757 7.4592 6.91757ZM7.45834 2.39644C8.53894 2.39644 9.41804 3.27553 9.41804 4.35614C9.41804 5.43675 8.53894 6.31584 7.45834 6.31584C6.37773 6.31584 5.49864 5.43675 5.49864 4.35614C5.49864 3.27553 6.37773 2.39644 7.45834 2.39644ZM7.96483 19.8269C7.80421 19.7184 7.63514 19.6229 7.45925 19.5414C7.28335 19.6229 7.11427 19.7184 6.95363 19.827L6.49661 23.1747H8.42179L7.96483 19.8269ZM6.4266 19.201C5.74992 18.9376 5.11316 18.5715 4.54703 18.1181L4.5455 18.1281C4.40298 18.9684 4.67598 19.8036 5.26693 20.3995C5.53367 19.992 5.93414 19.5468 6.4266 19.201ZM9.65153 20.3995C10.2425 19.8036 10.5155 18.9684 10.373 18.1281C10.3724 18.1248 10.3719 18.1215 10.3714 18.1182C9.8053 18.5715 9.16854 18.9376 8.49186 19.201C8.93057 19.5094 9.33547 19.9165 9.65153 20.3995Z" fill="#01BCF1"/>
<path d="M13.146 18.8974L11.2072 18.2308C11.3277 19.4471 10.7944 20.6272 9.77945 21.3549C9.57657 21.5003 9.29081 21.4301 9.17894 21.2064C9.10103 21.0517 9.01234 20.9027 8.91352 20.7605C9.26233 23.3181 9.23843 23.1279 9.23894 23.1742H14.914V21.3732C14.9135 20.2555 14.2027 19.2615 13.146 18.8974ZM12.3549 22.5325H10.8167C10.5925 22.5325 10.41 22.3504 10.41 22.1257C10.41 21.901 10.5925 21.7189 10.8167 21.7189H12.3549C12.5796 21.7189 12.7616 21.901 12.7616 22.1257C12.7616 22.3504 12.5796 22.5325 12.3549 22.5325ZM7.45919 18.678C8.36468 18.4484 9.21906 18.0155 9.93825 17.4208C9.71264 17.1607 9.54049 16.8587 9.43165 16.532C8.17385 16.9612 6.74362 16.9628 5.48286 16.5315C5.37423 16.8575 5.20257 17.1589 4.97764 17.4187C5.69733 18.0145 6.55263 18.4482 7.45919 18.678ZM6.00496 20.7605C5.90591 20.9026 5.81721 21.0516 5.73953 21.2064C5.62782 21.4296 5.34211 21.5007 5.13877 21.3549C4.12361 20.6268 3.59037 19.446 3.71149 18.229L1.76796 18.8974C0.711353 19.2615 0.000508472 20.2555 0 21.3732V23.1742H5.67964C5.67969 23.1281 5.65559 23.3197 6.00496 20.7605ZM4.10144 22.5323H2.56336C2.45548 22.5323 2.35201 22.4895 2.27573 22.4132C2.19944 22.3369 2.15658 22.2334 2.15658 22.1255C2.15658 22.0177 2.19944 21.9142 2.27573 21.8379C2.35201 21.7616 2.45548 21.7188 2.56336 21.7188H4.10144C4.20932 21.7188 4.31279 21.7616 4.38908 21.8379C4.46536 21.9142 4.50822 22.0177 4.50822 22.1255C4.50822 22.2334 4.46536 22.3369 4.38908 22.4132C4.31279 22.4895 4.20932 22.5323 4.10144 22.5323ZM13.7898 8.91711V10.3846C13.7898 10.9505 13.4938 11.4473 13.0484 11.7274C13.0678 11.436 13.0627 11.4385 13.0627 9.38898C13.2611 9.27335 13.526 9.10474 13.7898 8.91711ZM1.87016 11.7305C1.4222 11.4508 1.12423 10.9525 1.12423 10.3846V8.91406C1.3611 9.08284 1.60505 9.24146 1.85542 9.38948C1.85542 11.4422 1.85048 11.4454 1.87016 11.7305Z" fill="#01BCF1"/>
</g>
<defs>
<clipPath id="clip0_100_295">
<rect width="24" height="24" fill="white"/>
</clipPath>
</defs>
</svg>
