<svg width="24" height="24" viewBox="0 0 24 24" fill="none" xmlns="http://www.w3.org/2000/svg">
<path d="M21.1875 5.89844H2.8125C2.08875 5.89844 1.5 6.48719 1.5 7.21094V12.4984C1.5 13.2259 2.08875 13.8147 2.8125 13.8147H4.5225L4.80375 12.3859C4.90125 11.8834 5.24625 11.5459 5.655 11.5459H18.345C18.7575 11.5459 19.0987 11.8834 19.1962 12.3859L19.4738 13.8147H21.1875C21.9112 13.8147 22.5 13.2259 22.5 12.4984V7.21094C22.5 6.48719 21.9112 5.89844 21.1875 5.89844ZM5.2425 8.52344H3.84C3.63375 8.52344 3.465 8.35469 3.465 8.14844C3.465 7.93844 3.63375 7.77344 3.84 7.77344H5.2425C5.73562 7.77831 5.73675 8.51594 5.2425 8.52344Z" fill="#01BCF1"/>
<path d="M18.4609 12.5331C18.4309 12.3756 18.3596 12.3044 18.3371 12.2969H5.65461C5.63961 12.3044 5.56836 12.3756 5.53836 12.5331C5.47086 12.8388 5.35236 13.5051 5.28711 13.8156H18.7121C18.6394 13.5033 18.5306 12.8406 18.4609 12.5331ZM7.68561 14.8019C7.47898 14.7951 7.29936 14.9436 7.28511 15.1506C7.28436 15.1619 7.19511 16.3656 6.69861 17.3616C6.57073 17.6024 6.76386 17.9102 7.03386 17.9039C7.17148 17.9039 7.30386 17.8278 7.36986 17.6965C7.93236 16.5678 8.02986 15.2579 8.03361 15.2028C8.03708 15.1536 8.03083 15.1042 8.01521 15.0575C7.9996 15.0108 7.97493 14.9676 7.94261 14.9304C7.91029 14.8932 7.87096 14.8627 7.82686 14.8407C7.78276 14.8188 7.73476 14.8053 7.68561 14.8019ZM9.87298 15.0107C9.77416 15.0218 9.68376 15.0716 9.6216 15.1492C9.55945 15.2268 9.53064 15.3259 9.54148 15.4247C9.60598 16.0056 9.19461 17.1884 9.03073 17.5953C8.85448 18.0528 9.53173 18.3318 9.72636 17.8758C9.67911 17.9594 10.9414 14.9537 9.87261 15.0107H9.87298ZM16.7137 15.1503C16.6702 14.6568 15.9405 14.7115 15.9656 15.2028C15.9694 15.2579 16.0669 16.5678 16.6294 17.6965C16.8525 18.1349 17.5174 17.8004 17.3006 17.3616C16.806 16.3701 16.7149 15.1623 16.7137 15.1503ZM14.4581 15.4247C14.5042 14.935 13.7775 14.8544 13.7122 15.3423C13.6155 16.2149 14.2057 17.7085 14.2729 17.8758C14.4675 18.331 15.1451 18.0539 14.9689 17.5953C14.8046 17.1888 14.3932 16.0071 14.4581 15.4247ZM12.0199 15.0081C11.9204 15.0081 11.825 15.0476 11.7547 15.118C11.6844 15.1883 11.6449 15.2837 11.6449 15.3831V17.7355C11.6449 17.835 11.6844 17.9303 11.7547 18.0007C11.825 18.071 11.9204 18.1105 12.0199 18.1105C12.1193 18.1105 12.2147 18.071 12.285 18.0007C12.3554 17.9303 12.3949 17.835 12.3949 17.7355V15.3835C12.3949 15.284 12.3554 15.1887 12.285 15.1183C12.2147 15.048 12.1193 15.0085 12.0199 15.0085V15.0081Z" fill="#01BCF1"/>
</svg>
