<svg width="35" height="35" viewBox="0 0 35 35" fill="none" xmlns="http://www.w3.org/2000/svg">
<path d="M17.5 2.91675C25.554 2.91675 32.0833 9.44593 32.0833 17.5001C32.0833 25.5542 25.554 32.0834 17.5 32.0834C9.4458 32.0834 2.91663 25.5542 2.91663 17.5001C2.91663 9.44593 9.4458 2.91675 17.5 2.91675ZM17.5 5.10425C10.6539 5.10425 5.10413 10.6541 5.10413 17.5001C5.10413 24.3461 10.6539 29.8959 17.5 29.8959C24.346 29.8959 29.8958 24.3461 29.8958 17.5001C29.8958 10.6541 24.346 5.10425 17.5 5.10425ZM17.5 10.2084C18.104 10.2084 18.5937 10.6981 18.5937 11.3022V16.4063H23.6979C24.3019 16.4063 24.7916 16.896 24.7916 17.5001C24.7916 18.1041 24.3019 18.5938 23.6979 18.5938H18.5937V23.698C18.5937 24.302 18.104 24.7918 17.5 24.7918C16.8959 24.7918 16.4062 24.302 16.4062 23.698V18.5938H11.302C10.698 18.5938 10.2083 18.1041 10.2083 17.5001C10.2083 16.896 10.698 16.4063 11.302 16.4063H16.4062V11.3022C16.4062 10.6981 16.8959 10.2084 17.5 10.2084Z" fill="white"/>
</svg>
