<svg width="22" height="22" viewBox="0 0 22 22" fill="none" xmlns="http://www.w3.org/2000/svg">
<path d="M18.9385 10.6143C18.9444 10.1663 18.7017 9.75462 18.3077 9.53853L9.12527 4.49345C8.71398 4.261 8.22915 4.28956 7.8416 4.5542C7.44695 4.82329 7.24494 5.46388 7.35527 5.92655L8.21249 9.51797C8.30049 9.88624 8.63009 10.1455 9.00928 10.1439L14.1193 10.1281C14.3809 10.1228 14.5932 10.335 14.5879 10.5967C14.5871 10.854 14.378 11.063 14.1164 11.0683L9.0015 11.0802C8.62231 11.0809 8.29109 11.3414 8.20081 11.7102L7.31327 15.3159C7.20551 15.742 7.32837 16.1674 7.62902 16.468C7.66439 16.5034 7.70418 16.5432 7.744 16.5741C8.13334 16.8745 8.64324 16.9128 9.07858 16.6808L18.2922 11.6851C18.6875 11.4754 18.9327 11.0622 18.9385 10.6143" fill="#01BCF1"/>
</svg>
