<svg width="24" height="24" viewBox="0 0 24 24" fill="none" xmlns="http://www.w3.org/2000/svg">
<g clip-path="url(#clip0_140_866)">
<path d="M3.54074 12.2422C2.3738 12.2422 1.4248 13.1916 1.4248 14.3581C1.4248 15.5247 2.3738 16.4741 3.54074 16.4741C4.70767 16.4741 5.65667 15.5247 5.65667 14.3581C5.65667 13.1916 4.70771 12.2422 3.54074 12.2422ZM3.54074 15.3418C2.99738 15.3418 2.55714 14.9015 2.55714 14.3582C2.55714 13.8148 2.99738 13.3746 3.54074 13.3746C4.08409 13.3746 4.52433 13.8148 4.52433 14.3582C4.52433 14.9015 4.08413 15.3418 3.54074 15.3418Z" fill="#01BCF1"/>
<path d="M7.08197 17.3083V6.68532C7.08197 6.25059 6.72982 5.89844 6.29509 5.89844H0.786886C0.352155 5.89848 0 6.25059 0 6.68532V17.3083C0 17.743 0.352155 18.0952 0.786886 18.0952H6.29509C6.72982 18.0952 7.08197 17.743 7.08197 17.3083ZM3.54097 7.86567C4.08432 7.86567 4.52456 8.30592 4.52456 8.84927C4.52456 9.39262 4.08432 9.83287 3.54097 9.83287C2.99761 9.83287 2.55737 9.39262 2.55737 8.84927C2.55737 8.30592 2.99761 7.86567 3.54097 7.86567ZM3.54097 16.8971C2.1407 16.8971 1.00129 15.7578 1.00129 14.3575C1.00129 12.9572 2.1407 11.8178 3.54097 11.8178C4.94123 11.8178 6.08064 12.9572 6.08064 14.3575C6.08064 15.7578 4.94123 16.8971 3.54097 16.8971ZM16.1311 16.128V14.9476H7.86886V16.128C7.86886 16.5627 8.22101 16.9148 8.65575 16.9148H15.3443C15.779 16.9149 16.1311 16.5627 16.1311 16.128ZM16.1311 11.8001C16.1311 11.3654 15.779 11.0132 15.3443 11.0132H8.65575C8.22101 11.0132 7.86886 11.3654 7.86886 11.8001V14.5542H16.1311V11.8001ZM12.5902 13.7673H8.65575V11.8001H12.5902V13.7673ZM14.1639 13.7673C13.6206 13.7673 13.1803 13.3271 13.1803 12.7837C13.1803 12.2404 13.6206 11.8001 14.1639 11.8001C14.7073 11.8001 15.1475 12.2404 15.1475 12.7837C15.1475 13.3271 14.7073 13.7673 14.1639 13.7673ZM20.459 12.2415C19.2921 12.2415 18.3431 13.1909 18.3431 14.3575C18.3431 15.524 19.2925 16.4734 20.459 16.4734C21.6256 16.4734 22.575 15.524 22.575 14.3575C22.575 13.1909 21.626 12.2415 20.459 12.2415ZM20.459 15.3411C19.9157 15.3411 19.4754 14.9009 19.4754 14.3575C19.4754 13.8142 19.9157 13.3739 20.459 13.3739C21.0024 13.3739 21.4426 13.8142 21.4426 14.3575C21.4426 14.9009 21.0024 15.3411 20.459 15.3411Z" fill="#01BCF1"/>
<path d="M23.2127 5.89844H17.7044C17.2697 5.89844 16.9176 6.25059 16.9176 6.68532V17.3083C16.9176 17.743 17.2697 18.0951 17.7044 18.0951H23.2126C23.6474 18.0951 23.9995 17.743 23.9995 17.3083V6.68528C23.9995 6.25055 23.6474 5.89844 23.2127 5.89844ZM20.4586 7.86563C21.0019 7.86563 21.4422 8.30588 21.4422 8.84923C21.4422 9.39258 21.0019 9.83283 20.4586 9.83283C19.9152 9.83283 19.475 9.39258 19.475 8.84923C19.475 8.30588 19.9152 7.86563 20.4586 7.86563ZM20.4586 16.8971C19.0583 16.8971 17.9189 15.7577 17.9189 14.3574C17.9189 12.9571 19.0583 11.8178 20.4586 11.8178C21.8589 11.8178 22.9982 12.9571 22.9982 14.3574C22.9982 15.7577 21.8588 16.8971 20.4586 16.8971ZM8.65527 17.3083H10.229V18.0951H8.65527V17.3083ZM13.7701 17.3083H15.3438V18.0951H13.7701V17.3083Z" fill="#01BCF1"/>
</g>
<defs>
<clipPath id="clip0_140_866">
<rect width="24" height="24" fill="white"/>
</clipPath>
</defs>
</svg>
