<svg width="24" height="24" viewBox="0 0 24 24" fill="none" xmlns="http://www.w3.org/2000/svg">
<path d="M10.5 4.875C10.9136 4.875 11.25 4.53863 11.25 4.125V3.8325C11.0505 4.0125 10.7891 4.125 10.5 4.125C10.2109 4.125 9.9495 4.01213 9.75 3.8325V4.125C9.75 4.53863 10.0864 4.875 10.5 4.875ZM9.375 3.75H9.6675C9.48788 3.5505 9.375 3.28913 9.375 3C9.375 2.71087 9.48788 2.4495 9.6675 2.25H9.375C8.96137 2.25 8.625 2.58637 8.625 3C8.625 3.41363 8.96137 3.75 9.375 3.75ZM11.25 2.1675V1.875C11.25 1.46137 10.9136 1.125 10.5 1.125C10.0864 1.125 9.75 1.46137 9.75 1.875V2.1675C9.9495 1.98788 10.2109 1.875 10.5 1.875C10.7891 1.875 11.0505 1.98788 11.25 2.1675ZM7.875 5.1675C8.0799 4.98009 8.34732 4.8758 8.625 4.875C9.24525 4.875 9.75 5.37975 9.75 6C9.74906 6.27766 9.64479 6.54502 9.4575 6.75H9.75C9.88244 6.74968 10.0124 6.71432 10.1268 6.64753C10.2412 6.58074 10.3358 6.48488 10.4012 6.36968C10.4665 6.25449 10.5002 6.12405 10.4989 5.99162C10.4975 5.85919 10.4612 5.72947 10.3935 5.61563C10.0739 5.59325 9.76994 5.46917 9.52601 5.26153C9.28207 5.0539 9.11101 4.77363 9.03787 4.46175C8.81138 4.40826 8.60052 4.30258 8.42212 4.15312C8.26502 4.19791 8.12671 4.29252 8.02804 4.42271C7.92936 4.55291 7.87565 4.71164 7.875 4.875V5.1675Z" fill="#01BCF1"/>
<path d="M10.5 3.375C10.7071 3.375 10.875 3.20711 10.875 3C10.875 2.79289 10.7071 2.625 10.5 2.625C10.2929 2.625 10.125 2.79289 10.125 3C10.125 3.20711 10.2929 3.375 10.5 3.375Z" fill="#01BCF1"/>
<path d="M3 10.5C3 10.9136 3.33637 11.25 3.75 11.25C4.16363 11.25 4.5 10.9136 4.5 10.5V10.2075C4.3005 10.3875 4.03913 10.5 3.75 10.5C3.46087 10.5 3.1995 10.3871 3 10.2075V10.5ZM5.22563 16.7891L4.25063 11.9138C4.09388 11.9693 3.9255 12 3.75 12V17.6119C4.03884 17.5817 4.31855 17.4933 4.5722 17.3518C4.82584 17.2104 5.04814 17.019 5.22563 16.7891ZM4.875 10.125C5.28863 10.125 5.625 9.78863 5.625 9.375C5.625 8.96138 5.28863 8.625 4.875 8.625H4.5825C4.7625 8.8245 4.875 9.08588 4.875 9.375C4.875 9.66413 4.76213 9.9255 4.5825 10.125H4.875Z" fill="#01BCF1"/>
<path d="M3.75 9.75C3.95711 9.75 4.125 9.58211 4.125 9.375C4.125 9.16789 3.95711 9 3.75 9C3.54289 9 3.375 9.16789 3.375 9.375C3.375 9.58211 3.54289 9.75 3.75 9.75Z" fill="#01BCF1"/>
<path d="M4.125 18.3075C4.00127 18.3334 3.87602 18.3513 3.75 18.3611V18.6368C3.75 19.0305 3.6345 19.4119 3.41588 19.7396C3.4035 19.7584 3.38813 19.7749 3.375 19.7936V21.375H4.125V18.3075ZM19.3433 7.05938C19.5457 6.90475 19.7844 6.80468 20.0366 6.76875C19.4465 5.32086 18.4379 4.08186 17.14 3.21013C15.842 2.3384 14.3135 1.87355 12.75 1.875H12.615C12.8425 2.07679 13.0032 2.34312 13.0755 2.6385C15.8351 2.7675 18.2996 4.51875 19.3433 7.05938Z" fill="#01BCF1"/>
<path d="M5.25 7.125C5.45711 7.125 5.625 6.95711 5.625 6.75C5.625 6.54289 5.45711 6.375 5.25 6.375C5.04289 6.375 4.875 6.54289 4.875 6.75C4.875 6.95711 5.04289 7.125 5.25 7.125Z" fill="#01BCF1"/>
<path d="M16.125 4.35156V5.21481C16.1263 6.62599 16.6866 7.97918 17.6831 8.97831C17.7541 8.71731 17.8943 8.48031 18.0888 8.29234C18.2833 8.10436 18.525 7.97238 18.7883 7.91031C18.7961 7.87581 18.8104 7.84356 18.8205 7.81019C18.3529 6.35031 17.3771 5.13756 16.125 4.35156ZM20.625 19.7911C20.6119 19.7727 20.5965 19.7562 20.5841 19.7371C20.3659 19.4105 20.2496 19.0265 20.25 18.6338V18.3582C20.1239 18.3487 19.9987 18.3308 19.875 18.3046V21.3724H20.625V19.7911ZM19.5 8.24744V8.53994C19.6995 8.35994 19.9609 8.24744 20.25 8.24744C20.5391 8.24744 20.8005 8.36031 21 8.53994V8.24744C21 7.83381 20.6636 7.49744 20.25 7.49744C19.8364 7.49744 19.5 7.83381 19.5 8.24744Z" fill="#01BCF1"/>
<path d="M13.875 3.47656V5.21394C13.875 8.47119 15.8786 11.2826 18.8985 12.3419L19.0811 11.4284C18.9401 11.2546 18.84 11.0512 18.7883 10.8333C18.5807 10.7847 18.3858 10.6926 18.2165 10.563C18.0473 10.4333 17.9075 10.2692 17.8065 10.0814C16.2829 8.94706 15.375 7.13544 15.375 5.21356V3.94981C14.8965 3.73063 14.3926 3.57167 13.875 3.47656ZM19.125 8.62119C18.7114 8.62119 18.375 8.95756 18.375 9.37119C18.375 9.78481 18.7114 10.1212 19.125 10.1212H19.4175C19.2375 9.92169 19.125 9.66031 19.125 9.37119C19.125 9.08206 19.2379 8.82069 19.4175 8.62119H19.125ZM20.25 17.6081V11.9962C20.0745 11.9962 19.9061 11.9654 19.7498 11.9099L18.7748 16.7853C18.9521 17.0152 19.1744 17.2066 19.4279 17.3481C19.6815 17.4895 19.9612 17.578 20.25 17.6081ZM22.2386 19.8712H22.4576L21.5355 11.2634C21.4045 11.4824 21.2203 11.6647 21 11.7933V18.6326C21 18.8778 21.072 19.1152 21.2081 19.3196C21.321 19.4894 21.4742 19.6287 21.654 19.7249C21.8338 19.8212 22.0347 19.8714 22.2386 19.8712ZM21 10.4962V10.2037C20.8005 10.3837 20.5391 10.4962 20.25 10.4962C19.9609 10.4962 19.6995 10.3833 19.5 10.2037V10.4962C19.5 10.9098 19.8364 11.2462 20.25 11.2462C20.6636 11.2462 21 10.9098 21 10.4962ZM21.375 10.1212C21.7886 10.1212 22.125 9.78481 22.125 9.37119C22.125 8.95756 21.7886 8.62119 21.375 8.62119H21.0825C21.2625 8.82069 21.375 9.08206 21.375 9.37119C21.375 9.66031 21.2621 9.92169 21.0825 10.1212H21.375Z" fill="#01BCF1"/>
<path d="M20.25 9.75C20.4571 9.75 20.625 9.58211 20.625 9.375C20.625 9.16789 20.4571 9 20.25 9C20.0429 9 19.875 9.16789 19.875 9.375C19.875 9.58211 20.0429 9.75 20.25 9.75Z" fill="#01BCF1"/>
<path d="M11.625 2.25001H11.3325C11.5121 2.44951 11.625 2.71089 11.625 3.00001C11.625 3.28914 11.5121 3.55051 11.3325 3.75001H11.625C12.0386 3.75001 12.375 3.41364 12.375 3.00001C12.375 2.58638 12.0386 2.25001 11.625 2.25001ZM3.22012 5.56089C3.38782 5.43041 3.58155 5.33745 3.78825 5.28826C3.83595 5.09016 3.92446 4.9042 4.04813 4.74226L2.5635 4.49476L2.68687 3.75488L4.13588 3.99638C3.89197 3.72673 3.75524 3.37709 3.7515 3.01351C2.86425 3.07801 1.99688 3.36976 1.25175 3.85614L1.40137 4.10589C1.81308 4.79369 2.45872 5.31021 3.22012 5.56089ZM2.625 8.62501C2.21137 8.62501 1.875 8.96138 1.875 9.37501C1.875 9.78864 2.21137 10.125 2.625 10.125H2.9175C2.73788 9.92551 2.625 9.66414 2.625 9.37501C2.625 9.08589 2.73788 8.82451 2.9175 8.62501H2.625ZM4.125 6.00001C3.71137 6.00001 3.375 6.33638 3.375 6.75001C3.375 6.76726 3.38025 6.78413 3.38175 6.80138C3.50025 6.77101 3.62213 6.75001 3.75 6.75001C3.882 6.75001 4.00838 6.77214 4.13063 6.80439C4.1295 6.78601 4.125 6.76876 4.125 6.75001C4.125 6.46089 4.23787 6.19951 4.4175 6.00001H4.125ZM3.948 2.25713C4.07514 2.03613 4.25613 1.85088 4.47412 1.71863C3.90175 1.33022 3.22559 1.12335 2.53387 1.12501H2.25V1.41151C2.25 1.78051 2.3175 2.14988 2.44388 2.49751C2.9325 2.35426 3.438 2.27251 3.948 2.25713ZM1.76138 19.875C2.1765 19.875 2.56163 19.6688 2.79188 19.3234C2.92779 19.1201 3.00023 18.8809 3 18.6364V11.7971C2.7797 11.6686 2.59549 11.4865 2.4645 11.2676L1.54237 19.875H1.76138ZM11.25 6.00001C11.2494 6.23462 11.1936 6.4658 11.087 6.6748C10.9804 6.88381 10.8261 7.06476 10.6365 7.20301C10.309 8.55921 9.64319 9.81032 8.70125 10.8395C7.75931 11.8688 6.57195 12.6425 5.25 13.0886L5.397 13.8229C9.08175 12.6079 11.625 9.13089 11.625 5.21739V5.11501C11.4941 5.26351 11.3325 5.38239 11.1529 5.46976C11.2162 5.63776 11.25 5.81701 11.25 6.00001ZM18.7504 13.0864C15.3731 11.9494 13.125 8.83351 13.125 5.21739V3.39076C13.1062 3.38963 13.0871 3.38926 13.0684 3.38851C12.9655 3.77011 12.7164 4.09579 12.375 4.29489V5.21776C12.375 9.13126 14.9183 12.6083 18.603 13.8233L18.7504 13.0864ZM17.625 22.125H22.875V22.875H17.625V22.125ZM1.125 22.125H6.37537V22.875H1.125V22.125ZM3.75 7.50001C3.33637 7.50001 3 7.83638 3 8.25001V8.54251C3.1995 8.36289 3.46087 8.25001 3.75 8.25001C4.03913 8.25001 4.3005 8.36289 4.5 8.54251V8.25001C4.5 7.83638 4.16363 7.50001 3.75 7.50001ZM6.0825 7.50001H6.375C6.546 7.50001 6.70463 7.43851 6.83325 7.33801C6.64933 7.24692 6.48599 7.11918 6.35325 6.96263C6.31392 7.16318 6.22026 7.34906 6.0825 7.50001ZM6.00675 5.92314C6.01261 5.80987 6.03135 5.69765 6.06262 5.58863C5.86145 5.54559 5.67127 5.46163 5.50393 5.34196C5.33658 5.22228 5.19565 5.06947 5.08987 4.89301C4.92291 4.92964 4.77344 5.02215 4.66618 5.15525C4.55892 5.28835 4.5003 5.45407 4.5 5.62501V5.91751C4.7049 5.7301 4.97232 5.62581 5.25 5.62501C5.53074 5.6258 5.8009 5.73223 6.00675 5.92314ZM5.19788 7.86976C5.20163 7.88439 5.20837 7.89826 5.21175 7.91326C5.46273 7.97173 5.69434 8.09406 5.88412 8.26838C5.95891 8.15074 5.99907 8.01441 6 7.87501V7.58251C5.8005 7.76251 5.53913 7.87501 5.25 7.87501C5.232 7.87501 5.2155 7.87051 5.19788 7.86976ZM7.5 5.25001C7.08637 5.25001 6.75 5.58638 6.75 6.00001C6.75 6.41364 7.08637 6.75001 7.5 6.75001H7.7925C7.6125 6.55051 7.5 6.28914 7.5 6.00001C7.5 5.71089 7.61288 5.44951 7.7925 5.25001H7.5Z" fill="#01BCF1"/>
<path d="M9.44632 8.37731C9.20324 8.54002 8.91757 8.62742 8.62507 8.62856C8.3662 8.6282 8.11184 8.56075 7.88681 8.43279C7.66177 8.30483 7.47375 8.12072 7.34107 7.89844C7.1607 8.05069 6.9462 8.16094 6.71257 8.21494C6.64891 8.49099 6.50775 8.74312 6.3057 8.94169C6.34807 9.08081 6.37507 9.22631 6.37507 9.37856C6.37461 9.71774 6.25941 10.0468 6.04821 10.3122C5.83701 10.5776 5.54223 10.7637 5.21182 10.8403C5.15995 11.0581 5.05986 11.2615 4.91895 11.4354L5.10232 12.3516C6.05673 12.0158 6.93348 11.4907 7.67995 10.8078C8.42642 10.1249 9.02723 9.29817 9.44632 8.37731Z" fill="#01BCF1"/>
<path d="M8.625 6.375C8.83211 6.375 9 6.20711 9 6C9 5.79289 8.83211 5.625 8.625 5.625C8.41789 5.625 8.25 5.79289 8.25 6C8.25 6.20711 8.41789 6.375 8.625 6.375Z" fill="#01BCF1"/>
<path d="M7.875 7.125C7.875 7.53863 8.21137 7.875 8.625 7.875C9.03863 7.875 9.375 7.53863 9.375 7.125V6.8325C9.1755 7.0125 8.91413 7.125 8.625 7.125C8.33587 7.125 8.0745 7.01212 7.875 6.8325V7.125ZM5.25 3.75H5.5425C5.36287 3.5505 5.25 3.28913 5.25 3C5.25 2.71087 5.36287 2.4495 5.5425 2.25H5.25C4.83637 2.25 4.5 2.58637 4.5 3C4.5 3.41363 4.83637 3.75 5.25 3.75ZM6.375 4.875C6.43237 4.875 6.48825 4.86225 6.54413 4.8495C6.72328 4.69848 6.93552 4.59184 7.16363 4.53825C7.21541 4.32063 7.31492 4.11724 7.45494 3.94278C7.59496 3.76832 7.77199 3.62716 7.97325 3.5295C7.90879 3.36038 7.87551 3.18098 7.875 3C7.875 2.799 7.91812 2.60925 7.99012 2.43413C7.85424 2.31575 7.68021 2.25037 7.5 2.25H7.2075C7.39479 2.45498 7.49906 2.72234 7.5 3C7.5 3.62025 6.99525 4.125 6.375 4.125C6.09734 4.12406 5.82998 4.01979 5.625 3.8325V4.125C5.625 4.53863 5.96137 4.875 6.375 4.875ZM7.125 2.1675V1.875C7.125 1.46137 6.78863 1.125 6.375 1.125C5.96137 1.125 5.625 1.46137 5.625 1.875V2.1675C5.8245 1.98788 6.08587 1.875 6.375 1.875C6.66413 1.875 6.9255 1.98788 7.125 2.1675Z" fill="#01BCF1"/>
<path d="M6.375 3.375C6.58211 3.375 6.75 3.20711 6.75 3C6.75 2.79289 6.58211 2.625 6.375 2.625C6.16789 2.625 6 2.79289 6 3C6 3.20711 6.16789 3.375 6.375 3.375Z" fill="#01BCF1"/>
</svg>
