<svg width="24" height="24" viewBox="0 0 24 24" fill="none" xmlns="http://www.w3.org/2000/svg">
<g clip-path="url(#clip0_34_7281)">
<path d="M21.0002 6.4H16.2002V6C16.2002 5.78783 16.1159 5.58434 15.9659 5.43431C15.8159 5.28429 15.6124 5.2 15.4002 5.2H14.6002C14.388 5.2 14.1845 5.28429 14.0345 5.43431C13.8845 5.58434 13.8002 5.78783 13.8002 6V6.4H11.4002V6C11.4002 5.78783 11.3159 5.58434 11.1659 5.43431C11.0159 5.28429 10.8124 5.2 10.6002 5.2H9.8002C9.58802 5.2 9.38454 5.28429 9.23451 5.43431C9.08448 5.58434 9.0002 5.78783 9.0002 6V6.4H6.6002V6C6.6002 5.78783 6.51591 5.58434 6.36588 5.43431C6.21585 5.28429 6.01237 5.2 5.8002 5.2H5.0002C4.78802 5.2 4.58454 5.28429 4.43451 5.43431C4.28448 5.58434 4.2002 5.78783 4.2002 6V6.4H2.6002C2.49411 6.4 2.39237 6.44214 2.31735 6.51716C2.24234 6.59217 2.2002 6.69391 2.2002 6.8C2.2002 6.90609 2.24234 7.00783 2.31735 7.08284C2.39237 7.15786 2.49411 7.2 2.6002 7.2H4.2002V7.6C4.2002 7.81217 4.28448 8.01566 4.43451 8.16569C4.58454 8.31571 4.78802 8.4 5.0002 8.4H5.8002C6.01237 8.4 6.21585 8.31571 6.36588 8.16569C6.51591 8.01566 6.6002 7.81217 6.6002 7.6V7.2H9.0002V7.6C9.0002 7.81217 9.08448 8.01566 9.23451 8.16569C9.38454 8.31571 9.58802 8.4 9.8002 8.4H10.6002C10.8124 8.4 11.0159 8.31571 11.1659 8.16569C11.3159 8.01566 11.4002 7.81217 11.4002 7.6V7.2H13.8002V7.6C13.8002 7.81217 13.8845 8.01566 14.0345 8.16569C14.1845 8.31571 14.388 8.4 14.6002 8.4H15.4002C15.6124 8.4 15.8159 8.31571 15.9659 8.16569C16.1159 8.01566 16.2002 7.81217 16.2002 7.6V7.2H21.0002C21.1063 7.2 21.208 7.24214 21.283 7.31716C21.3581 7.39217 21.4002 7.49391 21.4002 7.6C21.4002 7.70609 21.3581 7.80783 21.283 7.88284C21.208 7.95786 21.1063 8 21.0002 8H20.6002C20.4941 8 20.3924 8.04214 20.3174 8.11716C20.2423 8.19217 20.2002 8.29391 20.2002 8.4C20.2002 8.50609 20.2423 8.60783 20.3174 8.68284C20.3924 8.75786 20.4941 8.8 20.6002 8.8H21.0002C21.3185 8.8 21.6237 8.67357 21.8487 8.44853C22.0738 8.22348 22.2002 7.91826 22.2002 7.6C22.2002 7.28174 22.0738 6.97652 21.8487 6.75147C21.6237 6.52643 21.3185 6.4 21.0002 6.4ZM10.2002 3.6C10.2002 3.70609 10.2423 3.80783 10.3174 3.88284C10.3924 3.95786 10.4941 4 10.6002 4C10.7063 4 10.808 3.95786 10.883 3.88284C10.9581 3.80783 11.0002 3.70609 11.0002 3.6C10.9745 3.34855 10.8977 3.10501 10.7743 2.88439C10.651 2.66378 10.4838 2.47075 10.283 2.3172C10.0346 2.0688 9.8002 1.8344 9.8002 1.6C9.8002 1.08 10.0062 0.8 10.2002 0.8C10.3063 0.8 10.408 0.757857 10.483 0.682843C10.5581 0.607828 10.6002 0.506087 10.6002 0.4C10.6002 0.293913 10.5581 0.192172 10.483 0.117157C10.408 0.0421427 10.3063 0 10.2002 0C9.6038 0 9.0002 0.5496 9.0002 1.6C9.02586 1.85145 9.10273 2.09499 9.22607 2.31561C9.34942 2.53622 9.51662 2.72925 9.7174 2.8828C9.9658 3.1312 10.2002 3.3656 10.2002 3.6ZM15.0002 3.6C15.0002 3.70609 15.0423 3.80783 15.1174 3.88284C15.1924 3.95786 15.2941 4 15.4002 4C15.5063 4 15.608 3.95786 15.683 3.88284C15.7581 3.80783 15.8002 3.70609 15.8002 3.6C15.7745 3.34855 15.6977 3.10501 15.5743 2.88439C15.451 2.66378 15.2838 2.47075 15.083 2.3172C14.8346 2.0688 14.6002 1.8344 14.6002 1.6C14.6002 1.08 14.8062 0.8 15.0002 0.8C15.1063 0.8 15.208 0.757857 15.283 0.682843C15.3581 0.607828 15.4002 0.506087 15.4002 0.4C15.4002 0.293913 15.3581 0.192172 15.283 0.117157C15.208 0.0421427 15.1063 0 15.0002 0C14.4038 0 13.8002 0.5496 13.8002 1.6C13.8259 1.85145 13.9027 2.09499 14.0261 2.31561C14.1494 2.53622 14.3166 2.72925 14.5174 2.8828C14.7658 3.1312 15.0002 3.3656 15.0002 3.6ZM5.4002 3.6C5.4002 3.70609 5.44234 3.80783 5.51735 3.88284C5.59237 3.95786 5.69411 4 5.8002 4C5.90628 4 6.00802 3.95786 6.08304 3.88284C6.15805 3.80783 6.2002 3.70609 6.2002 3.6C6.17454 3.34855 6.09767 3.10501 5.97432 2.88439C5.85098 2.66378 5.68377 2.47075 5.483 2.3172C5.2346 2.0688 5.0002 1.8344 5.0002 1.6C5.0002 1.08 5.2062 0.8 5.4002 0.8C5.50628 0.8 5.60802 0.757857 5.68304 0.682843C5.75805 0.607828 5.8002 0.506087 5.8002 0.4C5.8002 0.293913 5.75805 0.192172 5.68304 0.117157C5.60802 0.0421427 5.50628 0 5.4002 0C4.8038 0 4.2002 0.5496 4.2002 1.6C4.22585 1.85145 4.30273 2.09499 4.42607 2.31561C4.54942 2.53622 4.71662 2.72925 4.9174 2.8828C5.1658 3.1312 5.4002 3.3656 5.4002 3.6Z" fill="#01BCF1"/>
<path d="M16.6002 21.6008C16.8211 21.6008 17.0002 21.4217 17.0002 21.2008C17.0002 20.9799 16.8211 20.8008 16.6002 20.8008C16.3793 20.8008 16.2002 20.9799 16.2002 21.2008C16.2002 21.4217 16.3793 21.6008 16.6002 21.6008Z" fill="#01BCF1"/>
<path d="M4.61981 20.7992C4.55778 20.7988 4.49669 20.7841 4.44121 20.7564C4.38573 20.7287 4.33736 20.6886 4.2998 20.6392C4.26216 20.5905 4.23671 20.5335 4.22558 20.473C4.21445 20.4124 4.21795 20.3501 4.2358 20.2912L5.5438 15.5992H5.39981C5.1774 15.5968 4.95547 15.5781 4.73581 15.5432H4.72781L2.6118 23.1112C2.59641 23.1708 2.59476 23.2332 2.60697 23.2935C2.61919 23.3538 2.64495 23.4106 2.68232 23.4595C2.71969 23.5085 2.76768 23.5483 2.82268 23.5759C2.87768 23.6036 2.93825 23.6184 2.9998 23.6192C3.1806 23.618 3.339 23.4972 3.3878 23.3232L3.7878 21.8912C3.81131 21.8074 3.86153 21.7335 3.93083 21.6808C4.00014 21.6281 4.08474 21.5995 4.1718 21.5992H13.4278C13.4238 21.5752 13.4238 21.5472 13.4198 21.5232C13.407 21.4157 13.4004 21.3075 13.3998 21.1992C13.401 21.0656 13.4102 20.932 13.4278 20.7992H4.61981ZM16.5998 18.7992C16.2786 18.7992 15.9602 18.8632 15.6638 18.9872C15.1912 19.1879 14.7953 19.5346 14.5341 19.9765C14.2728 20.4185 14.1599 20.9325 14.2118 21.4432C14.259 21.9051 14.4391 22.3433 14.7304 22.7048C15.0216 23.0664 15.4115 23.3357 15.8527 23.4801C16.2939 23.6245 16.7676 23.6379 17.2162 23.5186C17.6649 23.3993 18.0693 23.1524 18.3805 22.8079C18.6916 22.4633 18.8962 22.0359 18.9694 21.5775C19.0425 21.119 18.9812 20.6492 18.7927 20.2249C18.6042 19.8006 18.2968 19.4401 17.9075 19.1871C17.5183 18.934 17.0641 18.7993 16.5998 18.7992ZM16.5998 22.3992C16.3625 22.3992 16.1305 22.3288 15.9331 22.197C15.7358 22.0651 15.582 21.8777 15.4912 21.6584C15.4003 21.4392 15.3766 21.1979 15.4229 20.9651C15.4692 20.7323 15.5835 20.5185 15.7513 20.3507C15.9191 20.1829 16.1329 20.0686 16.3657 20.0223C16.5985 19.976 16.8398 19.9997 17.059 20.0906C17.2783 20.1814 17.4657 20.3352 17.5976 20.5325C17.7294 20.7299 17.7998 20.9619 17.7998 21.1992C17.7989 21.5172 17.6721 21.8219 17.4473 22.0467C17.2224 22.2715 16.9178 22.3983 16.5998 22.3992ZM14.9998 15.5992H14.7878L15.4398 18.2192C15.6891 18.1212 15.9499 18.0554 16.2158 18.0232L15.5998 15.5552C15.5518 15.5592 15.4998 15.5672 15.4518 15.5712C15.3018 15.5888 15.151 15.598 14.9998 15.5992ZM2.1998 9.99922H18.1998C18.3059 9.99922 18.4076 9.95708 18.4826 9.88206C18.5577 9.80705 18.5998 9.70531 18.5998 9.59922C18.5998 9.49313 18.5577 9.39139 18.4826 9.31638C18.4076 9.24136 18.3059 9.19922 18.1998 9.19922H2.1998C2.09372 9.19922 1.99198 9.24136 1.91696 9.31638C1.84195 9.39139 1.7998 9.49313 1.7998 9.59922C1.7998 9.70531 1.84195 9.80705 1.91696 9.88206C1.99198 9.95708 2.09372 9.99922 2.1998 9.99922ZM4.85181 14.7592C5.03339 14.7846 5.21646 14.798 5.39981 14.7992H14.9998C15.9542 14.7981 16.8692 14.4184 17.5441 13.7435C18.219 13.0686 18.5986 12.1536 18.5998 11.1992V10.7992H1.7998V11.1992C1.80154 12.0588 2.10985 12.8895 2.66929 13.5421C3.22873 14.1946 4.00262 14.6262 4.85181 14.7592Z" fill="#01BCF1"/>
</g>
<defs>
<clipPath id="clip0_34_7281">
<rect width="24" height="24" fill="white"/>
</clipPath>
</defs>
</svg>
