<svg width="37" height="37" viewBox="0 0 37 37" fill="none" xmlns="http://www.w3.org/2000/svg">
<path d="M10.8795 3.72851L12.6786 3.18621C14.7175 2.57164 16.8958 3.56483 17.769 5.50707L19.1591 8.59922C19.9033 10.2547 19.5111 12.2003 18.1837 13.4382L15.88 15.5865C15.8126 15.6492 15.7699 15.734 15.7597 15.8256C15.6913 16.4378 16.1064 17.6301 17.0626 19.2863C17.758 20.4908 18.3873 21.3354 18.9231 21.8105C19.2963 22.1415 19.5018 22.213 19.5892 22.187L22.6886 21.2395C24.4239 20.709 26.3044 21.3415 27.3662 22.813L29.3406 25.5495C30.5833 27.2719 30.3598 29.648 28.8178 31.1084L27.4513 32.4025C25.9768 33.799 23.8777 34.3193 21.9218 33.7734C17.6759 32.5883 13.869 29.0051 10.459 23.099C7.04432 17.1846 5.84615 12.0902 6.95067 7.81699C7.45614 5.86142 8.94559 4.31144 10.8795 3.72851ZM11.5469 5.9426C10.3865 6.29236 9.49287 7.22235 9.18959 8.3957C8.26051 11.9901 9.3225 16.5055 12.4617 21.9428C15.5968 27.3727 18.9713 30.549 22.5434 31.546C23.717 31.8736 24.9764 31.5614 25.8612 30.7235L27.2276 29.4294C27.9286 28.7656 28.0302 27.6855 27.4653 26.9026L25.4909 24.1662C25.0082 23.4974 24.1533 23.2097 23.3646 23.451L20.2577 24.4008C18.4544 24.9384 16.8176 23.4869 15.06 20.4426C13.8755 18.3911 13.3234 16.8052 13.4615 15.5689C13.5331 14.9284 13.8315 14.3347 14.3028 13.8952L16.6066 11.7469C17.21 11.1843 17.3882 10.2999 17.0499 9.5474L15.6598 6.45525C15.2629 5.57242 14.2728 5.12096 13.346 5.40031L11.5469 5.9426Z" fill="white"/>
</svg>
