<svg width="105" height="105" viewBox="0 0 105 105" fill="none" xmlns="http://www.w3.org/2000/svg">
<path d="M65.4194 41.0417L63.6344 35.5204L68.3287 32.086C70.2537 30.686 71.0194 28.3148 70.28 26.0529C69.6062 23.9704 67.7556 21.8748 65.1481 21.8748H59.3556L57.6406 16.8742C56.91 14.5948 54.8931 13.1248 52.4956 13.1248C50.0981 13.1248 48.0812 14.5992 47.3681 16.8348L45.6356 21.8748H39.8475C37.2444 21.8748 35.3937 23.9704 34.7113 26.0529C33.9762 28.3148 34.7419 30.6817 36.6581 32.0817L41.3569 35.5204L39.5762 41.0417C38.8369 43.321 39.62 45.6879 41.5537 47.0835C43.4569 48.4573 46.0119 48.4485 47.9106 47.0573L52.4956 43.6842L57.0806 47.0529C58.0475 47.766 59.1631 48.1204 60.2744 48.1204C61.3725 48.1204 62.4706 47.7792 63.4331 47.0879C65.3669 45.6967 66.1456 43.3254 65.415 41.0417H65.4194ZM60.8825 43.531C60.4756 43.8285 60.0687 43.8242 59.675 43.531L53.795 39.2129C53.41 38.9329 52.955 38.7885 52.5 38.7885C52.045 38.7885 51.59 38.9286 51.205 39.2129L45.325 43.531C44.9487 43.8023 44.485 43.8067 44.1175 43.531C43.715 43.2467 43.5881 42.8617 43.7412 42.3848L46.0119 35.3585C46.3006 34.4617 45.9856 33.4773 45.22 32.9217L39.2438 28.551C38.8456 28.2623 38.7231 27.8729 38.8719 27.4092C39.1037 26.7092 39.6156 26.2454 39.8519 26.2454H47.2062C48.1425 26.2454 48.9694 25.6504 49.2756 24.7667L51.5331 18.2042C51.8306 17.2635 53.165 17.2198 53.4975 18.2479L55.7331 24.7667C56.035 25.6504 56.8662 26.2454 57.8025 26.2454H65.1612C65.3975 26.2454 65.905 26.7048 66.1369 27.4092C66.2856 27.8729 66.1631 28.2579 65.765 28.551L59.7887 32.9217C59.0231 33.4773 58.7081 34.4617 58.9969 35.3629L61.2675 42.3804C61.4206 42.8573 61.2981 43.2423 60.8956 43.531H60.8825ZM65.7256 69.9473C94.675 69.1729 105 53.7904 105 40.7398C105 33.6129 99.8156 27.7023 93.0256 26.5035C94.0975 23.9617 94.9944 21.5335 95.6331 19.3723C96.9806 14.8223 96.1056 10.0098 93.24 6.17292C90.3087 2.24855 85.82 -0.00457764 80.9287 -0.00457764H24.0625C19.1712 -0.00457764 14.6781 2.24855 11.7512 6.17292C8.88562 10.0098 8.015 14.8223 9.35812 19.3723C9.99687 21.5292 10.8937 23.9617 11.9656 26.5035C5.18 27.7067 0 33.6173 0 40.7398C0 53.7904 10.3206 69.1729 39.2744 69.9473C39.3225 70.5729 39.375 71.1985 39.375 71.8329V89.6829C39.375 100.235 29.5487 100.612 28.4287 100.62H24.0625C22.855 100.62 21.875 101.6 21.875 102.808C21.875 104.015 22.855 104.995 24.0625 104.995H80.9375C82.145 104.995 83.125 104.015 83.125 102.808C83.125 101.6 82.145 100.62 80.9375 100.62H76.5712C75.4512 100.612 65.625 100.235 65.625 89.6829V71.8329C65.625 71.1985 65.6775 70.5729 65.7256 69.9473ZM100.625 40.7398C100.625 52.2154 91.5862 64.5835 66.4912 65.5329C67.7294 60.9392 70.28 56.7917 73.9462 53.6723C81.4669 47.276 87.2156 38.6354 91.1094 30.6817C96.4031 31.001 100.625 35.3629 100.625 40.7398ZM4.375 40.7398C4.375 35.3717 8.58812 31.0098 13.8775 30.686C17.7756 38.6398 23.5244 47.2717 31.0494 53.6723C34.7156 56.7917 37.2662 60.9392 38.5087 65.5329C13.4137 64.5835 4.375 52.2154 4.375 40.7398ZM39.4581 100.625C41.9212 98.2579 43.75 94.8017 43.75 89.6873V71.8373C43.75 63.5117 40.1581 55.676 33.8887 50.3429C23.2225 41.2823 16.2706 27.326 13.5537 18.1385C12.6 14.9229 13.2256 11.5148 15.2556 8.79792C17.3556 5.9848 20.5669 4.3748 24.0669 4.3748H80.9287C84.4287 4.3748 87.6356 5.9848 89.74 8.79792C91.77 11.5148 92.3912 14.9185 91.4419 18.1385C88.725 27.3348 81.7687 41.2867 71.1156 50.3429C64.8462 55.676 61.2544 63.5117 61.2544 71.8373V89.6873C61.2544 94.8017 63.0831 98.2579 65.5462 100.625H39.4669H39.4581Z" fill="white" fill-opacity="0.4"/>
</svg>
