<svg width="20" height="22" viewBox="0 0 20 22" fill="none" xmlns="http://www.w3.org/2000/svg">
<path fill-rule="evenodd" clip-rule="evenodd" d="M14.9536 2.72837V1.12537C14.9536 0.711366 14.6176 0.375366 14.2036 0.375366C13.7896 0.375366 13.4536 0.711366 13.4536 1.12537V4.38837C13.4536 4.64837 13.5946 4.86737 13.7966 5.00137C13.6776 5.08137 13.5426 5.13837 13.3886 5.13837C12.9746 5.13837 12.6386 4.80237 12.6386 4.38837V2.22237C11.8366 2.12637 10.9626 2.07737 9.99959 2.07737C8.86559 2.07737 7.85459 2.14537 6.94559 2.28237V1.12537C6.94559 0.711366 6.60959 0.375366 6.19559 0.375366C5.78159 0.375366 5.44559 0.711366 5.44559 1.12537V4.38837C5.44559 4.64837 5.58659 4.86737 5.78859 5.00137C5.66959 5.08137 5.53459 5.13837 5.38059 5.13837C4.96659 5.13837 4.63059 4.80237 4.63059 4.38837V2.85837C2.49659 3.68137 1.24459 5.21237 0.652588 7.65037H19.3476C18.7196 5.06437 17.3316 3.51237 14.9536 2.72837Z" fill="#01BCF1"/>
<path fill-rule="evenodd" clip-rule="evenodd" d="M14.4126 13.0867C13.9986 13.0867 13.6586 12.7507 13.6586 12.3367C13.6586 11.9227 13.9896 11.5867 14.4036 11.5867H14.4126C14.8266 11.5867 15.1626 11.9227 15.1626 12.3367C15.1626 12.7507 14.8266 13.0867 14.4126 13.0867ZM14.4126 16.9397C13.9986 16.9397 13.6586 16.6037 13.6586 16.1897C13.6586 15.7747 13.9896 15.4397 14.4036 15.4397H14.4126C14.8266 15.4397 15.1626 15.7747 15.1626 16.1897C15.1626 16.6037 14.8266 16.9397 14.4126 16.9397ZM10.0136 13.0867C9.59959 13.0867 9.25859 12.7507 9.25859 12.3367C9.25859 11.9227 9.59059 11.5867 10.0046 11.5867H10.0136C10.4276 11.5867 10.7636 11.9227 10.7636 12.3367C10.7636 12.7507 10.4276 13.0867 10.0136 13.0867ZM10.0136 16.9397C9.59959 16.9397 9.25859 16.6037 9.25859 16.1897C9.25859 15.7747 9.59059 15.4397 10.0046 15.4397H10.0136C10.4276 15.4397 10.7636 15.7747 10.7636 16.1897C10.7636 16.6037 10.4276 16.9397 10.0136 16.9397ZM5.60559 13.0867C5.19159 13.0867 4.85059 12.7507 4.85059 12.3367C4.85059 11.9227 5.18259 11.5867 5.59659 11.5867H5.60559C6.01959 11.5867 6.35559 11.9227 6.35559 12.3367C6.35559 12.7507 6.01959 13.0867 5.60559 13.0867ZM5.60559 16.9397C5.19159 16.9397 4.85059 16.6037 4.85059 16.1897C4.85059 15.7747 5.18259 15.4397 5.59659 15.4397H5.60559C6.01959 15.4397 6.35559 15.7747 6.35559 16.1897C6.35559 16.6037 6.01959 16.9397 5.60559 16.9397ZM19.6196 9.14972H0.380586C0.278586 9.96972 0.225586 10.8627 0.225586 11.8517C0.225586 19.0667 2.78359 21.6247 9.99959 21.6247C17.2166 21.6247 19.7746 19.0667 19.7746 11.8517C19.7746 10.8627 19.7216 9.96972 19.6196 9.14972Z" fill="#01BCF1"/>
</svg>
