<svg width="24" height="24" viewBox="0 0 24 24" fill="none" xmlns="http://www.w3.org/2000/svg">
<g clip-path="url(#clip0_102_175)">
<path d="M21.8906 21.1875H0V23.2969C0 23.6852 0.314812 24 0.703125 24H21.8906C22.2789 24 22.5938 23.6852 22.5938 23.2969V21.8906C22.5938 21.5023 22.2789 21.1875 21.8906 21.1875ZM21.4219 11.8125H21.1875V11.1094C21.1875 10.7211 20.8727 10.4062 20.4844 10.4062H10.1719C9.78356 10.4062 9.46875 10.7211 9.46875 11.1094V15.2205C9.46875 17.3349 10.8934 19.2001 12.9333 19.7565C12.9936 19.773 13.0558 19.7812 13.1183 19.7812H17.538C17.6004 19.7812 17.6627 19.7729 17.723 19.7565C19.1721 19.3613 20.31 18.3052 20.848 16.9688H21.4219C22.8435 16.9688 24 15.8122 24 14.3906C24 12.969 22.8435 11.8125 21.4219 11.8125ZM21.4219 15.5625H21.1875V13.2188H21.4219C22.068 13.2188 22.5938 13.7445 22.5938 14.3906C22.5938 15.0368 22.068 15.5625 21.4219 15.5625Z" fill="#01BCF1"/>
<path d="M7.03125 7.03125H14.625V8.20312C14.625 8.59144 14.9398 8.90625 15.3281 8.90625C15.7164 8.90625 16.0312 8.59144 16.0312 8.20312V7.03125H19.0781C21.0166 7.03125 22.5938 5.45414 22.5938 3.51562C22.5938 1.57711 21.0166 0 19.0781 0H0.703125C0.314812 0 0 0.314812 0 0.703125V19.7812H7.03125V7.03125ZM19.0781 2.8125C19.4664 2.8125 19.7812 3.12731 19.7812 3.51562C19.7812 3.90394 19.4664 4.21875 19.0781 4.21875C18.6898 4.21875 18.375 3.90394 18.375 3.51562C18.375 3.12731 18.6898 2.8125 19.0781 2.8125ZM16.2656 2.8125C16.6539 2.8125 16.9688 3.12731 16.9688 3.51562C16.9688 3.90394 16.6539 4.21875 16.2656 4.21875C15.8773 4.21875 15.5625 3.90394 15.5625 3.51562C15.5625 3.12731 15.8773 2.8125 16.2656 2.8125ZM13.4531 2.8125C13.8414 2.8125 14.1562 3.12731 14.1562 3.51562C14.1562 3.90394 13.8414 4.21875 13.4531 4.21875C13.0648 4.21875 12.75 3.90394 12.75 3.51562C12.75 3.12731 13.0648 2.8125 13.4531 2.8125ZM4.21875 14.8594C4.21875 15.2477 3.90394 15.5625 3.51562 15.5625C3.12731 15.5625 2.8125 15.2477 2.8125 14.8594V12.9844C2.8125 12.5961 3.12731 12.2812 3.51562 12.2812C3.90394 12.2812 4.21875 12.5961 4.21875 12.9844V14.8594Z" fill="#01BCF1"/>
</g>
<defs>
<clipPath id="clip0_102_175">
<rect width="24" height="24" fill="white"/>
</clipPath>
</defs>
</svg>
