<svg width="24" height="24" viewBox="0 0 24 24" fill="none" xmlns="http://www.w3.org/2000/svg">
<path d="M9.05515 9.7856C7.57888 6.98424 13.8788 1.27295 9.05515 0C10.4169 2.57003 4.2155 8.50564 9.05515 9.7856ZM12.5719 9.93635C11.6811 8.01575 16.0817 4.41573 12.9038 3.40236C13.7261 5.16453 9.38383 8.91759 12.5719 9.93635ZM22.4662 14.0691C21.7991 13.0881 20.6302 12.5319 19.2545 12.5436C19.258 12.3966 19.2601 12.2494 19.2601 12.1019C19.2601 11.99 19.2157 11.8827 19.1366 11.8036C19.0575 11.7245 18.9502 11.6801 18.8383 11.6801H1.39642C1.28455 11.6801 1.17726 11.7245 1.09816 11.8036C1.01905 11.8827 0.974609 11.99 0.974609 12.1019C0.974609 14.629 1.49015 17.0765 2.46572 19.1793C3.48154 21.3691 4.92668 23.0185 6.64473 23.9492C6.70644 23.9826 6.77551 24.0001 6.84568 24.0002H13.389C13.4592 24.0001 13.5283 23.9826 13.59 23.9492C14.6987 23.3486 15.6927 22.4473 16.5321 21.2961C19.7595 21.2548 22 19.2932 22.7213 17.4682C23.2017 16.2527 23.1088 15.0138 22.4662 14.0691ZM5.17589 18.9534C5.04397 19.0146 4.89313 19.0209 4.75656 18.9709C4.62 18.9209 4.50888 18.8187 4.44766 18.6868C3.89331 17.4926 3.60032 16.1057 3.60032 14.6763C3.60032 14.5309 3.6581 14.3914 3.76093 14.2885C3.86377 14.1857 4.00325 14.1279 4.14868 14.1279C4.29412 14.1279 4.43359 14.1857 4.53643 14.2885C4.63927 14.3914 4.69704 14.5309 4.69704 14.6763C4.69704 15.9473 4.95485 17.1744 5.44247 18.225C5.50367 18.357 5.50997 18.5078 5.45997 18.6444C5.40998 18.781 5.3078 18.8921 5.17589 18.9534ZM7.65869 21.2647C7.58941 21.3926 7.47219 21.4877 7.33279 21.5291C7.1934 21.5706 7.04325 21.555 6.91537 21.4857C6.39442 21.2036 5.91524 20.8129 5.49107 20.3246C5.44384 20.2703 5.40779 20.2071 5.38497 20.1388C5.36215 20.0705 5.353 19.9984 5.35805 19.9266C5.36311 19.8547 5.38226 19.7846 5.41442 19.7202C5.44658 19.6557 5.49111 19.5983 5.54548 19.551C5.59985 19.5038 5.66299 19.4678 5.73129 19.4449C5.79959 19.4221 5.87172 19.413 5.94355 19.418C6.01539 19.4231 6.08553 19.4422 6.14996 19.4744C6.2144 19.5065 6.27186 19.5511 6.31909 19.6054C6.65662 19.994 7.03297 20.3022 7.43774 20.5215C7.50105 20.5558 7.55699 20.6022 7.60235 20.6581C7.64772 20.714 7.68163 20.7783 7.70215 20.8473C7.72266 20.9163 7.72938 20.9887 7.72193 21.0603C7.71447 21.1319 7.69298 21.2014 7.65869 21.2647ZM20.8558 16.7306C20.4611 17.7293 19.3403 18.7374 17.793 19.1253C18.4352 17.726 18.8742 16.176 19.0947 14.5524C19.1519 14.5509 19.208 14.5497 19.2618 14.5491L19.3017 14.5488C19.9785 14.5488 20.5272 14.7851 20.8074 15.1971C21.0743 15.5896 21.0915 16.1342 20.8558 16.7306Z" fill="#01BCF1"/>
</svg>
