<svg width="24" height="24" viewBox="0 0 24 24" fill="none" xmlns="http://www.w3.org/2000/svg">
<path d="M11.1141 7.48985L10.8859 9.45241C10.8662 9.5682 10.8806 9.68721 10.9274 9.79494C10.9742 9.90267 11.0513 9.99447 11.1493 10.0592L11.5967 10.5238L11.6483 10.5515C11.7582 10.6069 11.8797 10.6358 12.0028 10.6358C12.126 10.6358 12.2474 10.6069 12.3574 10.5515L12.4089 10.524L12.8563 10.0593C12.957 9.99395 13.0352 9.89916 13.0802 9.78784C13.1252 9.67652 13.1349 9.55405 13.1079 9.43703L12.8175 7.50747C12.5761 7.57617 12.3269 7.61403 12.0759 7.62016L12.3579 9.49347L12.0028 9.86228L11.6372 9.48278L11.8543 7.61659C11.6032 7.60576 11.3545 7.56317 11.1141 7.48985ZM14.25 4.61228C14.2483 4.16765 14.1148 3.73351 13.8665 3.36466C13.6182 2.99581 13.2662 2.70879 12.855 2.53985C12.4437 2.3709 11.9915 2.3276 11.5557 2.41541C11.1198 2.50322 10.7197 2.7182 10.4059 3.03322C10.0921 3.34823 9.87872 3.74916 9.79261 4.18537C9.70651 4.62159 9.75158 5.07354 9.92213 5.48416C10.0927 5.89478 10.3811 6.24566 10.7509 6.4925C11.1207 6.73935 11.5554 6.87109 12 6.8711C12.2961 6.87058 12.5891 6.81174 12.8625 6.69793C13.1358 6.58412 13.384 6.41758 13.593 6.20782C13.8019 5.99805 13.9675 5.74918 14.0802 5.47541C14.1929 5.20165 14.2506 4.90835 14.25 4.61228ZM12 6.11809C11.7019 6.11925 11.4102 6.03191 11.1618 5.86714C10.9134 5.70237 10.7195 5.46759 10.6047 5.19253C10.4898 4.91747 10.4592 4.61451 10.5166 4.32202C10.5741 4.02954 10.7171 3.76068 10.9274 3.54952C11.1378 3.33835 11.4061 3.19437 11.6984 3.13582C11.9907 3.07727 12.2937 3.10677 12.5692 3.2206C12.8447 3.33443 13.0802 3.52745 13.2459 3.77523C13.4116 4.02301 13.5 4.31439 13.5 4.61247C13.5003 5.01089 13.3425 5.39314 13.0613 5.6754C12.7801 5.95765 12.3984 6.11685 12 6.11809ZM6.1875 10.824C6.18617 10.4905 6.08606 10.1649 5.89982 9.88827C5.71358 9.61165 5.44955 9.39641 5.14108 9.26973C4.8326 9.14304 4.4935 9.1106 4.1666 9.17649C3.8397 9.24237 3.53965 9.40364 3.30433 9.63993C3.06901 9.87621 2.90898 10.1769 2.84443 10.5041C2.77988 10.8313 2.81372 11.1702 2.94167 11.4782C3.06962 11.7861 3.28594 12.0493 3.56332 12.2344C3.84071 12.4195 4.16672 12.5183 4.50019 12.5182C4.72224 12.5178 4.94203 12.4736 5.14701 12.3883C5.35198 12.3029 5.53813 12.178 5.69482 12.0206C5.85151 11.8633 5.97567 11.6766 6.06021 11.4713C6.14474 11.266 6.188 11.046 6.1875 10.824ZM4.50019 11.7652C4.31386 11.766 4.1315 11.7115 3.97619 11.6085C3.82089 11.5056 3.69963 11.3588 3.62779 11.1869C3.55594 11.015 3.53674 10.8256 3.57261 10.6428C3.60848 10.4599 3.69782 10.2918 3.8293 10.1598C3.96077 10.0278 4.12848 9.93774 4.31117 9.9011C4.49386 9.86447 4.68332 9.88287 4.85554 9.954C5.02776 10.0251 5.175 10.1458 5.2786 10.3006C5.3822 10.4555 5.4375 10.6376 5.4375 10.824C5.4377 11.073 5.33914 11.3119 5.16343 11.4884C4.98772 11.6648 4.74921 11.7644 4.50019 11.7652ZM2.81269 17.4123C3.14801 17.4136 3.47615 17.3153 3.75557 17.13C4.03499 16.9446 4.25312 16.6805 4.38232 16.371C4.51152 16.0616 4.54599 15.7208 4.48137 15.3918C4.41674 15.0628 4.25592 14.7603 4.01927 14.5227C3.78263 14.2852 3.4808 14.1232 3.15203 14.0573C2.82325 13.9914 2.48231 14.0245 2.17239 14.1525C1.86246 14.2805 1.5975 14.4976 1.41105 14.7763C1.22459 15.055 1.12504 15.3828 1.125 15.7181C1.12451 15.9402 1.16778 16.1602 1.25234 16.3655C1.3369 16.5709 1.46109 16.7576 1.61782 16.9149C1.77455 17.0722 1.96074 17.1971 2.16576 17.2825C2.37078 17.3679 2.59061 17.412 2.81269 17.4123ZM2.81269 14.777C2.999 14.7763 3.18133 14.8309 3.33659 14.9339C3.49184 15.0369 3.61304 15.1837 3.68483 15.3556C3.75662 15.5275 3.77577 15.7169 3.73985 15.8997C3.70394 16.0825 3.61457 16.2506 3.48308 16.3826C3.35159 16.5146 3.18388 16.6046 3.0012 16.6412C2.81852 16.6778 2.62908 16.6594 2.45688 16.5882C2.28468 16.5171 2.13747 16.3964 2.03388 16.2416C1.9303 16.0867 1.87501 15.9046 1.875 15.7183C1.87475 15.4692 1.97335 15.2302 2.14916 15.0537C2.32496 14.8772 2.5636 14.7777 2.81269 14.777ZM19.4998 12.518C19.8352 12.5194 20.1634 12.4211 20.4428 12.2358C20.7223 12.0505 20.9405 11.7863 21.0697 11.4769C21.199 11.1675 21.2335 10.8266 21.1689 10.4976C21.1043 10.1685 20.9434 9.86601 20.7068 9.62843C20.4701 9.39084 20.1682 9.22884 19.8394 9.16295C19.5106 9.09705 19.1697 9.13023 18.8597 9.25828C18.5498 9.38633 18.2848 9.60348 18.0984 9.88224C17.912 10.161 17.8125 10.4888 17.8125 10.8242C17.8116 11.2726 17.9889 11.703 18.3053 12.0207C18.6217 12.3384 19.0514 12.5175 19.4998 12.5184V12.518ZM19.4998 9.88291C19.6861 9.88213 19.8685 9.93667 20.0238 10.0396C20.1791 10.1426 20.3004 10.2893 20.3722 10.4612C20.4441 10.6331 20.4633 10.8225 20.4274 11.0054C20.3915 11.1882 20.3022 11.3563 20.1707 11.4883C20.0392 11.6203 19.8715 11.7104 19.6888 11.747C19.5061 11.7837 19.3167 11.7653 19.1445 11.6941C18.9722 11.623 18.825 11.5024 18.7214 11.3475C18.6178 11.1926 18.5625 11.0105 18.5625 10.8242C18.5623 10.5751 18.6609 10.3362 18.8366 10.1598C19.0123 9.98331 19.2508 9.88375 19.4998 9.88291ZM21.3778 12.3823C21.2105 12.5839 21.0121 12.7575 20.79 12.8964C20.9609 12.9922 21.1115 13.1203 21.2336 13.2735C21.5643 13.2795 21.8902 13.3535 22.191 13.4908C22.0413 13.0459 21.7572 12.6586 21.3778 12.3823ZM19.5 15.7181C19.5013 16.0516 19.6014 16.3772 19.7876 16.6538C19.9738 16.9305 20.2378 17.1458 20.5463 17.2725C20.8548 17.3992 21.1939 17.4317 21.5208 17.3658C21.8477 17.2999 22.1478 17.1387 22.3831 16.9024C22.6185 16.6661 22.7785 16.3654 22.8431 16.0382C22.9076 15.7111 22.8738 15.3721 22.7459 15.0641C22.6179 14.7562 22.4016 14.493 22.1242 14.3079C21.8468 14.1228 21.5208 14.024 21.1873 14.024C20.9653 14.0245 20.7455 14.0686 20.5405 14.154C20.3356 14.2393 20.1494 14.3642 19.9928 14.5216C19.8361 14.6789 19.7119 14.8655 19.6274 15.0708C19.5428 15.2761 19.4995 15.4961 19.5 15.7181ZM22.125 15.7181C22.1243 15.9033 22.0687 16.0842 21.9652 16.2379C21.8617 16.3916 21.7151 16.5111 21.5437 16.5815C21.3724 16.6519 21.184 16.67 21.0024 16.6334C20.8208 16.5968 20.6541 16.5072 20.5233 16.376C20.3926 16.2448 20.3037 16.0777 20.2678 15.896C20.2319 15.7142 20.2506 15.5259 20.3217 15.3548C20.3927 15.1838 20.5128 15.0375 20.6669 14.9347C20.821 14.8318 21.0021 14.7769 21.1873 14.7768C21.4364 14.7776 21.675 14.8771 21.8508 15.0536C22.0266 15.23 22.1252 15.469 22.125 15.7181ZM19.9418 21.9965L16.2458 13.7692C16.1448 13.5723 15.9939 13.4053 15.8082 13.2849C15.6225 13.1645 15.4085 13.0948 15.1875 13.083H8.8125C8.59151 13.0948 8.37749 13.1645 8.1918 13.2849C8.00611 13.4053 7.85525 13.5723 7.75425 13.7692L4.05825 21.9965C3.99904 22.1574 3.95852 22.3246 3.9375 22.4947V23.2475C3.9377 23.4467 4.01669 23.6376 4.15721 23.7787C4.29773 23.9198 4.48838 23.9995 4.6875 24.0005H19.3125C19.5116 23.9995 19.7023 23.9198 19.8428 23.7787C19.9833 23.6376 20.0623 23.4467 20.0625 23.2475V22.4947C20.0415 22.3246 20.001 22.1574 19.9418 21.9965ZM8.43788 14.0788C8.47974 14.0142 8.53474 13.9592 8.59929 13.9174C8.66384 13.8755 8.73649 13.8477 8.8125 13.8358H15.1875C15.2635 13.8477 15.3362 13.8755 15.4007 13.9174C15.4653 13.9592 15.5203 14.0142 15.5621 14.0788L19.0044 21.7417H4.99557L8.43788 14.0788ZM19.3125 23.2475H4.6875V22.4947H19.3125V23.2475Z" fill="#01BCF1"/>
<path d="M17.1085 11.2945H16.3122V9.23636C16.302 8.63202 16.1102 8.04474 15.7618 7.55085C15.4133 7.05696 14.9244 6.67931 14.3585 6.46698C14.1759 6.70101 13.9598 6.90691 13.7172 7.07805C14.2264 7.16992 14.6882 7.43493 15.0244 7.82821C15.3607 8.2215 15.5507 8.71889 15.5622 9.23617V11.2945H8.43723V9.23636C8.44874 8.71903 8.63869 8.22158 8.97492 7.82825C9.31115 7.43492 9.77299 7.16989 10.2822 7.07805C10.0397 6.90685 9.8236 6.7009 9.64098 6.4668C9.07508 6.67912 8.58613 7.05677 8.2377 7.55066C7.88927 8.04455 7.69747 8.63183 7.68723 9.23617V11.2945H6.89092C6.83887 11.5595 6.74306 11.814 6.60742 12.0475H17.392C17.2564 11.814 17.1606 11.5595 17.1085 11.2945Z" fill="#01BCF1"/>
<path d="M2.29875 11.8681C2.09892 11.4479 2.02345 10.9793 2.08126 10.5176C2.13907 10.0559 2.32773 9.62038 2.625 9.26241V0.95354C2.63372 0.894008 2.66491 0.840078 2.71217 0.802834C2.75942 0.76559 2.81914 0.74786 2.87906 0.753289H21.1209C21.1809 0.747814 21.2406 0.765526 21.2879 0.802779C21.3351 0.840031 21.3663 0.893989 21.375 0.95354V9.26241C21.6725 9.62069 21.8612 10.0566 21.9188 10.5188C21.9764 10.9809 21.9005 11.4498 21.7001 11.8702C21.8293 11.7857 21.9357 11.6707 22.0098 11.5353C22.084 11.3999 22.1235 11.2483 22.125 11.0939V0.953727C22.1179 0.694316 22.0082 0.448304 21.8201 0.269591C21.6319 0.0908787 21.3806 -0.00596098 21.1211 0.000289486H2.87906C2.61963 -0.00601197 2.36828 0.0907796 2.18007 0.269457C1.99187 0.448135 1.88217 0.694128 1.875 0.95354V11.0917C1.8765 11.2459 1.91593 11.3974 1.98983 11.5328C2.06374 11.6683 2.16983 11.7834 2.29875 11.8681ZM3.21 12.8962C2.98792 12.7572 2.78948 12.5836 2.62219 12.382C2.24282 12.6584 1.95866 13.0457 1.809 13.4905C2.10985 13.3532 2.43573 13.2793 2.76638 13.2732C2.88849 13.1201 3.03914 12.9919 3.21 12.8962ZM4.1025 17.7903C4.41096 17.964 4.64865 18.2405 4.77413 18.5716L5.15231 17.7297C5.02073 17.5573 4.86515 17.4045 4.69031 17.2762C4.52309 17.4778 4.32471 17.6513 4.10269 17.7903H4.1025ZM0.750002 23.2473V19.1062C0.750056 18.8379 0.821675 18.5746 0.957469 18.3433C1.09326 18.112 1.28832 17.9211 1.5225 17.7903C1.30042 17.6513 1.10198 17.4778 0.934689 17.2762C0.645148 17.4854 0.409431 17.7604 0.246934 18.0786C0.0844377 18.3967 -0.000194476 18.7489 1.50013e-06 19.1062V23.2473C-0.000195679 23.346 0.0190472 23.4437 0.0566316 23.535C0.094216 23.6262 0.149406 23.7092 0.21905 23.7791C0.288694 23.849 0.371428 23.9046 0.462529 23.9425C0.55363 23.9805 0.651313 24.0001 0.750002 24.0003H3.39038C3.2575 23.7716 3.18751 23.5118 3.1875 23.2473H0.750002ZM7.07044 13.4594C7.08919 13.4176 7.11019 13.3765 7.13269 13.3362C6.97265 12.9554 6.71163 12.6254 6.37781 12.382C6.21059 12.5836 6.01221 12.7572 5.79019 12.8962C6.02434 13.027 6.21935 13.2179 6.35511 13.4492C6.49088 13.6805 6.56247 13.9438 6.5625 14.212V14.5902L7.07044 13.4594ZM19.8975 17.7903C19.6754 17.6513 19.477 17.4778 19.3097 17.2762C19.1349 17.4046 18.9794 17.5573 18.8479 17.7297L19.2261 18.5716C19.3514 18.2406 19.5892 17.9641 19.8975 17.7903ZM23.0653 17.2762C22.898 17.4778 22.6996 17.6513 22.4775 17.7903C22.7117 17.9211 22.9067 18.112 23.0425 18.3433C23.1783 18.5746 23.2499 18.8379 23.25 19.1062V23.2473H20.8125C20.8125 23.5118 20.7425 23.7716 20.6096 24.0003H23.25C23.3487 24.0001 23.4464 23.9805 23.5375 23.9425C23.6286 23.9046 23.7113 23.849 23.781 23.7791C23.8506 23.7092 23.9058 23.6262 23.9434 23.535C23.981 23.4437 24.0002 23.346 24 23.2473V19.1062C24.0002 18.7489 23.9156 18.3967 23.7531 18.0786C23.5906 17.7604 23.3549 17.4854 23.0653 17.2762ZM17.4375 14.5904V14.212C17.4376 13.9438 17.5092 13.6805 17.645 13.4491C17.7808 13.2178 17.9758 13.0269 18.21 12.8962C17.9879 12.7572 17.7895 12.5836 17.6222 12.382C17.2883 12.6255 17.0273 12.9555 16.8673 13.3364C16.8898 13.3767 16.9108 13.4178 16.9296 13.4596L17.4375 14.5904Z" fill="#01BCF1"/>
</svg>
