<svg width="44" height="44" viewBox="0 0 44 44" fill="none" xmlns="http://www.w3.org/2000/svg">
<circle cx="22" cy="22" r="22" fill="#01BCF1"/>
<circle cx="22" cy="22" r="18.975" stroke="#FFD602" stroke-width="0.55"/>
<path fill-rule="evenodd" clip-rule="evenodd" d="M13.4296 20.3036C13.4296 15.6654 17.3055 11.9166 21.9938 11.9166C26.6953 11.9166 30.5712 15.6654 30.5712 20.3036C30.5712 22.6409 29.7212 24.8108 28.3221 26.6499C26.7787 28.6786 24.8763 30.4462 22.735 31.8336C22.2449 32.1542 21.8026 32.1784 21.2648 31.8336C19.1113 30.4462 17.2089 28.6786 15.6787 26.6499C14.2786 24.8108 13.4296 22.6409 13.4296 20.3036ZM19.1712 20.5648C19.1712 22.1186 20.4391 23.3407 21.9938 23.3407C23.5494 23.3407 24.8295 22.1186 24.8295 20.5648C24.8295 19.0231 23.5494 17.7415 21.9938 17.7415C20.4391 17.7415 19.1712 19.0231 19.1712 20.5648Z" fill="#FFD602"/>
</svg>
