<svg width="24" height="24" viewBox="0 0 24 24" fill="none" xmlns="http://www.w3.org/2000/svg">
<g clip-path="url(#clip0_100_306)">
<path d="M9.20235 3.94963C10.293 3.94963 11.1772 3.06547 11.1772 1.97481C11.1772 0.884154 10.293 0 9.20235 0C8.11169 0 7.22754 0.884154 7.22754 1.97481C7.22754 3.06547 8.11169 3.94963 9.20235 3.94963Z" fill="#01BCF1"/>
<path d="M20.2141 22.7663C19.816 22.3137 18.9844 22.3719 18.4192 22.4783C18.3711 22.4874 18.3216 22.4861 18.274 22.4744C18.2264 22.4627 18.1819 22.441 18.1435 22.4106C18.0657 22.3492 18.0422 22.253 18.0138 22.158C17.8557 21.6276 17.447 21.3755 16.8213 21.2103C16.535 21.1347 16.2585 21.0875 15.9868 21.0922V9.05005L16.601 8.58806C17.0215 8.2717 17.106 7.67435 16.7896 7.25376C16.5936 6.99316 16.2897 6.86197 15.9867 6.87481V2.89125C15.9867 2.82961 15.9745 2.76857 15.951 2.71163C15.9274 2.65468 15.8928 2.60294 15.8492 2.55935C15.8056 2.51577 15.7539 2.48119 15.6969 2.4576C15.64 2.43402 15.579 2.42188 15.5173 2.42188C15.4557 2.42188 15.3946 2.43402 15.3377 2.4576C15.2808 2.48119 15.229 2.51577 15.1854 2.55935C15.1418 2.60294 15.1073 2.65468 15.0837 2.71163C15.0601 2.76857 15.0479 2.82961 15.0479 2.89125V7.37154L14.0132 8.1499L14.0066 6.82274C14.0003 5.5856 12.9888 4.57914 11.7517 4.57914H6.63624C5.3991 4.57914 4.38758 5.5856 4.38132 6.82274L4.34803 13.4627C3.5781 13.8173 3.03788 14.5879 3.01758 15.4851L3.49273 19.9781C3.50184 20.0619 3.54158 20.1394 3.60432 20.1957C3.66706 20.252 3.74838 20.2831 3.83268 20.2831H6.76453C6.849 20.2831 6.93049 20.2519 6.99328 20.1954C7.05608 20.1389 7.09575 20.0611 7.10465 19.9771L7.5806 15.4851C7.56038 14.5894 7.02176 13.8197 6.25376 13.4643L6.28706 6.83229C6.28718 6.78349 6.30669 6.73675 6.34128 6.70234C6.37587 6.66793 6.42272 6.64866 6.47152 6.64879C6.52031 6.64892 6.56705 6.66843 6.60147 6.70302C6.63588 6.73761 6.65514 6.78446 6.65501 6.83325V12.847C7.9252 13.4899 8.38318 14.8392 8.30664 15.562L7.83069 20.054C7.80325 20.3175 7.67904 20.5614 7.48209 20.7386C7.28514 20.9158 7.02946 21.0137 6.76453 21.0132H6.65541V22.8501C6.65541 23.4816 7.16731 23.9935 7.79884 23.9935C8.43036 23.9935 8.94226 23.4816 8.94226 22.8501V13.7106H9.43602V22.8502C9.43602 23.4818 9.94792 23.9937 10.5794 23.9937C11.211 23.9937 11.7229 23.4818 11.7229 22.8502C11.7229 7.91505 11.7026 16.1211 11.7021 6.81448C11.7039 6.76274 11.7257 6.71372 11.7629 6.67774C11.8001 6.64176 11.8498 6.62164 11.9016 6.62162C11.9534 6.6216 12.0031 6.64168 12.0404 6.67763C12.0776 6.71358 12.0994 6.76258 12.1013 6.81432C12.1013 6.82017 12.1012 6.82619 12.1009 6.83229L12.1171 10.0566C12.118 10.2333 12.1679 10.4062 12.2614 10.5562C12.3549 10.7061 12.4883 10.8271 12.6466 10.9056C12.8048 10.9841 12.9818 11.017 13.1578 11.0007C13.3337 10.9844 13.5016 10.9195 13.6428 10.8132L15.048 9.75612V21.256C14.0274 21.5861 13.2886 22.2986 13.2886 22.2986C10.5385 24.7678 17.9661 23.7165 19.8467 23.9532C21.7275 24.1899 20.8492 23.4884 20.2141 22.7663ZM6.85062 15.4851H3.74787C3.76504 14.967 4.03728 14.5124 4.44262 14.2431C4.56233 14.4896 4.76116 14.7809 5.29937 14.7806C5.85636 14.7804 6.03472 14.4925 6.15587 14.243C6.56122 14.5124 6.83337 14.9669 6.85062 15.4851Z" fill="#01BCF1"/>
</g>
<defs>
<clipPath id="clip0_100_306">
<rect width="24" height="24" fill="white"/>
</clipPath>
</defs>
</svg>
