<svg width="24" height="24" viewBox="0 0 24 24" fill="none" xmlns="http://www.w3.org/2000/svg">
<path d="M11.8226 23.1469C11.8759 23.18 11.9375 23.1975 12.0002 23.1975C12.063 23.1975 12.1245 23.18 12.1778 23.1469C13.6414 22.2621 20.9538 17.4897 21.1942 10.4085C21.3105 8.06255 20.5206 5.76165 18.9879 3.98178C17.4552 2.20192 15.297 1.07928 12.9598 0.846107C12.6374 0.813317 12.3135 0.796896 11.9894 0.796907C9.71962 0.790849 7.53 1.63576 5.8526 3.16491C4.89159 4.03498 4.12346 5.09668 3.59767 6.28164C3.07188 7.4666 2.80009 8.74854 2.7998 10.0449C2.7998 17.3233 10.3158 22.2369 11.8226 23.1469ZM3.5998 9.99691C3.5998 8.33554 4.09246 6.71149 5.01546 5.33012C5.93846 3.94874 7.25036 2.8721 8.78526 2.23632C10.3202 1.60054 12.0091 1.4342 13.6386 1.75831C15.268 2.08243 16.7647 2.88245 17.9395 4.05721C19.1143 5.23197 19.9143 6.72871 20.2384 8.35815C20.5625 9.98759 20.3962 11.6765 19.7604 13.2114C19.1246 14.7463 18.048 16.0582 16.6666 16.9813C15.2852 17.9043 13.6612 18.3969 11.9998 18.3969C9.77277 18.3944 7.63767 17.5086 6.06291 15.9338C4.48816 14.359 3.60235 12.2239 3.5998 9.99691Z" fill="#01BCF1"/>
<path d="M9.69336 12.9224L13.5138 9.10156L14.4954 10.0832L10.675 13.904L9.69336 12.9224Z" fill="#01BCF1"/>
<path d="M19.5994 9.99844C19.5994 8.4953 19.1537 7.02592 18.3186 5.77611C17.4835 4.52629 16.2965 3.55218 14.9078 2.97696C13.5191 2.40173 11.991 2.25123 10.5167 2.54447C9.04248 2.83772 7.68829 3.56155 6.62541 4.62443C5.56253 5.68731 4.8387 7.0415 4.54545 8.51575C4.2522 9.99001 4.40271 11.5181 4.97793 12.9068C5.55316 14.2956 6.52727 15.4825 7.77708 16.3176C9.0269 17.1527 10.4963 17.5984 11.9994 17.5984C14.0144 17.5962 15.9462 16.7948 17.371 15.37C18.7958 13.9452 19.5972 12.0134 19.5994 9.99844ZM7.53462 11.3504C7.48215 11.2668 7.45516 11.1697 7.45694 11.071C7.45872 10.9722 7.48918 10.8762 7.54462 10.7944C7.74405 10.4944 7.83915 10.1371 7.81522 9.77762C7.79129 9.41816 7.64966 9.07658 7.41222 8.80564C7.01907 8.30543 6.80348 7.68865 6.79942 7.05244C6.79942 5.93044 7.47422 4.79844 8.98182 4.79844C9.43319 4.79091 9.87294 4.94179 10.2246 5.22484C10.2959 5.2832 10.3489 5.36085 10.3773 5.44852C10.4057 5.53619 10.4082 5.63017 10.3846 5.71924C10.3598 5.80951 10.3098 5.89085 10.2404 5.95375C10.1711 6.01665 10.0853 6.05851 9.99302 6.07444C9.98502 6.07444 9.20062 6.25684 9.20062 6.96324C9.20223 7.33315 9.32191 7.69289 9.54222 7.99004C9.83986 8.41257 9.99955 8.9168 9.99942 9.43364C9.99942 10.6596 8.87582 11.4736 8.06502 11.5936C8.03854 11.5977 8.0118 11.5997 7.98502 11.5996C7.89501 11.5995 7.80649 11.5766 7.72773 11.533C7.64897 11.4895 7.58253 11.4266 7.53462 11.3504ZM8.84422 15.2676L8.33022 14.7532C8.12061 14.5397 8.00318 14.2525 8.00318 13.9532C8.00318 13.654 8.12061 13.3668 8.33022 13.1532L15.5558 5.92924C15.7715 5.72382 16.058 5.60924 16.3558 5.60924C16.6537 5.60924 16.9401 5.72382 17.1558 5.92924L17.6698 6.44364C17.8795 6.65712 17.997 6.9444 17.997 7.24364C17.997 7.54289 17.8795 7.83017 17.6698 8.04364L10.443 15.2676C10.2294 15.4766 9.94245 15.5936 9.64362 15.5936C9.34479 15.5936 9.05784 15.4766 8.84422 15.2676Z" fill="#01BCF1"/>
<path d="M17.1036 7.47514C17.1646 7.41279 17.1988 7.329 17.1988 7.24174C17.1988 7.15447 17.1646 7.07069 17.1036 7.00834L16.5892 6.49354C16.5268 6.43236 16.443 6.3981 16.3556 6.3981C16.2682 6.3981 16.1844 6.43236 16.122 6.49354L14.082 8.53354L15.0636 9.51514L17.1036 7.47514ZM8.8964 13.7171C8.83532 13.7796 8.80112 13.8634 8.80112 13.9507C8.80112 14.0381 8.83532 14.1219 8.8964 14.1843L9.4108 14.6987C9.47393 14.7584 9.55751 14.7917 9.6444 14.7917C9.73128 14.7917 9.81487 14.7584 9.878 14.6987L10.1116 14.4651L9.13 13.4835L8.8964 13.7171ZM8.6184 9.82954C8.61895 10.0748 8.58584 10.3189 8.52 10.5551C8.71856 10.4397 8.88491 10.2762 9.00374 10.0796C9.12257 9.88308 9.19006 9.6598 9.2 9.43034C9.19838 9.06043 9.0787 8.70069 8.8584 8.40354C8.56033 7.98115 8.40021 7.4769 8.4 6.95994C8.39945 6.6919 8.46484 6.42783 8.5904 6.19102C8.71595 5.9542 8.89783 5.7519 9.12 5.60194C9.07387 5.59737 9.02755 5.5951 8.9812 5.59514C8.7912 5.58644 8.60156 5.6187 8.42512 5.68972C8.24869 5.76074 8.08958 5.86886 7.95859 6.00675C7.8276 6.14465 7.72778 6.30909 7.66591 6.48894C7.60404 6.66879 7.58156 6.85984 7.6 7.04914C7.60373 7.52545 7.7714 7.98594 8.0748 8.35314C8.41338 8.77213 8.60443 9.29102 8.6184 9.82954Z" fill="#01BCF1"/>
</svg>
