<svg width="24" height="24" viewBox="0 0 24 24" fill="none" xmlns="http://www.w3.org/2000/svg">
<g clip-path="url(#clip0_100_312)">
<path fill-rule="evenodd" clip-rule="evenodd" d="M0 8.73237C0.139605 12.1679 2.35508 15.9312 5.4264 18.8629C8.71624 22.007 12.9833 24.1861 16.7466 23.9919C18.4583 23.7976 20.0243 22.7718 20.8012 21.8431C21.013 21.5315 21.1767 21.1898 21.2868 20.8295C21.3001 20.797 21.3037 20.7615 21.2972 20.727C21.2908 20.6925 21.2745 20.6607 21.2504 20.6353C20.3997 19.7397 19.3753 19.0272 18.2398 18.5412C17.0446 18.0108 15.7589 17.7141 14.4522 17.6671C14.4196 17.664 14.3868 17.6703 14.3577 17.6854C14.3286 17.7005 14.3045 17.7236 14.2883 17.7521C14.1122 18.0192 13.9218 18.2765 13.7178 18.523C13.4446 18.8265 13.2989 19.1239 12.6859 18.9843C10.4886 18.1041 6.50076 14.4076 5.36571 12.3136C5.17147 11.7187 5.45068 11.5427 5.72989 11.2453C5.88771 11.0692 6.14871 10.8507 6.44613 10.6079C6.49469 10.5594 6.52504 10.4987 6.5129 10.4319C6.34615 9.13502 5.93198 7.8822 5.29287 6.74147C4.70216 5.65935 3.89906 4.70761 2.93171 3.9433C2.90444 3.91995 2.87087 3.9052 2.83523 3.90088C2.79959 3.89656 2.76347 3.90287 2.73141 3.91902C2.38142 4.06198 2.05582 4.25857 1.76631 4.50172C0.91654 5.35756 0.0364188 7.01462 0 8.73237ZM14.9681 16.7202C15.2231 16.3378 15.478 15.9676 15.7026 15.6884C16.4917 14.7051 21.8695 17.1876 21.7967 18.6383C21.7755 18.9703 21.7227 19.2996 21.6388 19.6216C21.6326 19.6554 21.6167 19.6865 21.5929 19.7114C21.5692 19.7362 21.5388 19.7535 21.5053 19.7612C21.474 19.7712 21.4405 19.7726 21.4084 19.7651C21.3763 19.7576 21.3469 19.7416 21.3232 19.7187C20.5126 18.9655 19.581 18.354 18.5675 17.9099C17.4732 17.4247 16.3063 17.1232 15.1138 17.0176C15.0799 17.0159 15.0472 17.0048 15.0193 16.9855C14.9915 16.9662 14.9695 16.9395 14.956 16.9084C14.9413 16.8787 14.9347 16.8457 14.9368 16.8127C14.9389 16.7796 14.9497 16.7478 14.9681 16.7202ZM7.40516 9.831C7.76328 9.53965 8.10926 9.25437 8.36419 9.00551C9.26859 8.12539 6.30653 3.00855 4.86191 3.20885C4.61912 3.24527 4.27314 3.33632 3.90288 3.45771C3.87009 3.46755 3.84074 3.48644 3.81819 3.51221C3.79564 3.53798 3.78082 3.56958 3.77542 3.60339C3.76757 3.63638 3.7691 3.67091 3.77983 3.70308C3.79055 3.73525 3.81005 3.76379 3.83612 3.78548C4.55842 4.42281 5.29287 5.29079 5.88771 6.35908C6.42792 7.31811 6.86495 8.44709 7.0956 9.71568C7.10774 9.78245 7.1563 9.83707 7.22307 9.86135C7.25337 9.87298 7.28623 9.8763 7.31824 9.87096C7.35026 9.86563 7.38027 9.85183 7.40516 9.831Z" fill="#01BCF1"/>
<path d="M17.3291 0.000138776C18.6521 -0.00840543 19.9477 0.377767 21.0502 1.1093C22.1526 1.84083 23.0119 2.88449 23.5182 4.10688C24.0245 5.32928 24.1548 6.67487 23.8924 7.97169C23.63 9.26851 22.9869 10.4576 22.0453 11.3871C21.1158 12.3287 19.9267 12.9718 18.6299 13.2342C17.3331 13.4966 15.9875 13.3663 14.7651 12.86C13.5427 12.3537 12.499 11.4944 11.7675 10.3919C11.036 9.28948 10.6498 7.99392 10.6583 6.67085C10.6559 5.79417 10.8268 4.92565 11.1612 4.11524C11.4956 3.30483 11.9869 2.5685 12.6068 1.94859C13.2267 1.32868 13.963 0.837406 14.7734 0.503022C15.5839 0.168639 16.4524 -0.00226421 17.3291 0.000138776ZM16.54 2.72548C16.4847 2.72706 16.4322 2.75014 16.3937 2.78981C16.3551 2.82948 16.3336 2.88262 16.3336 2.93792V5.6754H13.5961C13.5408 5.67538 13.4877 5.69693 13.448 5.73547C13.4083 5.774 13.3853 5.82649 13.3837 5.88178V7.45993C13.3837 7.57525 13.4808 7.67237 13.5961 7.67237H16.3336V10.4038C16.3336 10.5191 16.4247 10.6162 16.54 10.6162H18.1181C18.1745 10.6162 18.2285 10.5938 18.2683 10.554C18.3082 10.5142 18.3306 10.4601 18.3306 10.4038V7.67237H21.0681C21.1233 7.67079 21.1758 7.64771 21.2144 7.60804C21.2529 7.56837 21.2745 7.51523 21.2744 7.45993V5.88178C21.2744 5.82704 21.2527 5.77455 21.214 5.73585C21.1753 5.69715 21.1228 5.6754 21.0681 5.6754H18.3306V2.93792C18.3306 2.91002 18.3251 2.8824 18.3144 2.85662C18.3037 2.83085 18.2881 2.80743 18.2683 2.7877C18.2486 2.76798 18.2252 2.75233 18.1994 2.74165C18.1737 2.73098 18.146 2.72548 18.1181 2.72548H16.54Z" fill="#01BCF1"/>
</g>
<defs>
<clipPath id="clip0_100_312">
<rect width="24" height="24" fill="white"/>
</clipPath>
</defs>
</svg>
