<svg width="24" height="24" viewBox="0 0 24 24" fill="none" xmlns="http://www.w3.org/2000/svg">
<path d="M9.525 12.9C9.4875 12.8625 9.45 12.825 9.375 12.7875V14.4L11.625 15.525V13.8C10.95 13.725 10.35 13.5 9.7875 13.0875L9.525 12.9ZM12.375 13.8V15.525L14.625 14.4V12.7875C14.5875 12.825 14.55 12.8625 14.475 12.9L14.2125 13.125C13.65 13.5 13.05 13.725 12.375 13.8ZM8.25 4.875H15.75V5.625H8.25V4.875ZM12 7.875C13.275 7.875 14.5125 7.3125 15.375 6.375H8.625C9.4875 7.3125 10.725 7.875 12 7.875ZM8.175 4.125H15.8625L16.3125 2.5875C16.3875 2.4 16.2375 2.175 16.05 2.1375H16.0125L12 1.5L8.025 2.1C7.8375 2.1375 7.6875 2.325 7.725 2.5125V2.55L8.175 4.125ZM8.625 14.85V14.025L5.025 15.225C4.275 15.4875 3.75 16.2 3.75 16.9875V22.5H6.75V19.125H7.5V22.5H10.5V16.6875L11.25 16.2L8.625 14.85ZM18.975 15.225L15.375 14.025V14.85L12.1875 16.425L11.25 17.0625V22.5H16.5V19.125H17.25V22.5H20.25V16.9875C20.25 16.2 19.725 15.4875 18.975 15.225ZM12.75 21.75H12V21H12.75V21.75ZM12.75 20.25H12V19.5H12.75V20.25ZM12.75 18.75H12V18H12.75V18.75ZM16.5 18.375H13.5V17.625H16.5V18.375Z" fill="#01BCF1"/>
<path d="M7.65 8.54688L8.25 8.95938C8.25 10.2719 8.8875 11.5094 9.9375 12.2969L10.2375 12.5219C11.2875 13.2719 12.7125 13.2719 13.7625 12.5219L14.0625 12.2969C15.1125 11.5094 15.75 10.2719 15.75 8.95938L16.35 8.54688C16.4625 8.47187 16.5 8.35938 16.5 8.24688V7.87188C16.5 7.64688 16.3125 7.49688 16.0875 7.49688H15.75V7.04688C13.725 9.10938 10.3875 9.14688 8.325 7.12188L8.25 7.04688V7.49688H7.9125C7.6875 7.49688 7.5375 7.64688 7.5 7.87188V8.24688C7.5 8.35938 7.575 8.47187 7.65 8.54688Z" fill="#01BCF1"/>
</svg>
