<svg width="44" height="44" viewBox="0 0 44 44" fill="none" xmlns="http://www.w3.org/2000/svg">
<circle cx="22" cy="22" r="22" fill="#01BCF1"/>
<circle cx="22" cy="22" r="18.975" stroke="#FFD602" stroke-width="0.55"/>
<path fill-rule="evenodd" clip-rule="evenodd" d="M26.981 12.9249C28.3331 12.9249 29.6339 13.4593 30.5908 14.4182C31.5487 15.3752 32.0841 16.6658 32.0841 18.017V25.9828C32.0841 28.7961 29.7952 31.0749 26.981 31.0749H17.0196C14.2054 31.0749 11.9175 28.7961 11.9175 25.9828V18.017C11.9175 15.2037 14.1953 12.9249 17.0196 12.9249H26.981ZM28.5852 19.5194L28.6659 19.4387C28.9069 19.1463 28.9069 18.7228 28.6548 18.4304C28.5146 18.2802 28.322 18.1884 28.1214 18.1682C27.9096 18.1571 27.708 18.2287 27.5557 18.3699L23.0091 21.9999C22.4243 22.4849 21.5864 22.4849 20.9925 21.9999L16.455 18.3699C16.1414 18.138 15.7078 18.1682 15.4466 18.4405C15.1744 18.7127 15.1441 19.1463 15.375 19.4488L15.5071 19.5799L20.0951 23.1595C20.6597 23.6032 21.3444 23.8452 22.0613 23.8452C22.7762 23.8452 23.473 23.6032 24.0366 23.1595L28.5852 19.5194Z" fill="#FFD602"/>
</svg>
