<svg width="25" height="26" viewBox="0 0 25 26" fill="none" xmlns="http://www.w3.org/2000/svg">
<path d="M7.03993 23.0795V13.8775C6.1851 13.6428 5.46856 13.1735 4.89029 12.4695C4.31202 11.7655 4.02289 10.9442 4.02289 10.0056V2.96582H6.03425V10.0056H7.03993V2.96582H9.0513V10.0056H10.057V2.96582H12.0683V10.0056C12.0683 10.9442 11.7792 11.7655 11.2009 12.4695C10.6227 13.1735 9.90613 13.6428 9.0513 13.8775V23.0795H7.03993ZM17.0968 23.0795V15.034H14.0797V7.99423C14.0797 6.60304 14.57 5.41717 15.5505 4.43663C16.5311 3.45609 17.7169 2.96582 19.1081 2.96582V23.0795H17.0968Z" fill="#01BCF1"/>
</svg>
