<svg width="24" height="24" viewBox="0 0 24 24" fill="none" xmlns="http://www.w3.org/2000/svg">
<path d="M6.86996 10.9444C7.16662 11.2952 9.82579 14.3769 12.0091 14.3769C14.195 14.3769 16.8275 11.2927 17.12 10.9411C17.3408 10.6769 17.305 10.2827 17.0408 10.0619C16.7741 9.84106 16.3816 9.87689 16.16 10.1411C15.1966 11.2952 13.2175 13.1269 12.0091 13.1269C10.7991 13.1269 8.80162 11.2936 7.82579 10.1386C7.60329 9.87439 7.20912 9.84106 6.94579 10.0636C6.68162 10.2861 6.64829 10.6802 6.86996 10.9444Z" fill="#01BCF1"/>
<path fill-rule="evenodd" clip-rule="evenodd" d="M3.43848 12.9998C3.43848 19.0707 5.67931 21.2223 11.9993 21.2223C18.3201 21.2223 20.561 19.0707 20.561 12.9998C20.561 6.92901 18.3201 4.77734 11.9993 4.77734C5.67931 4.77734 3.43848 6.92901 3.43848 12.9998ZM4.68848 12.9998C4.68848 7.65651 6.39681 6.02734 11.9993 6.02734C17.6026 6.02734 19.311 7.65651 19.311 12.9998C19.311 18.3432 17.6026 19.9723 11.9993 19.9723C6.39681 19.9723 4.68848 18.3432 4.68848 12.9998Z" fill="#01BCF1"/>
</svg>
