<svg width="50" height="28" viewBox="0 0 50 28" fill="none" xmlns="http://www.w3.org/2000/svg">
<rect y="0.179688" width="50" height="27" rx="4.02273" fill="#01BCF1"/>
<path d="M11.99 10.5137C12.05 9.31369 12.47 8.38969 13.25 7.74169C14.042 7.08169 15.08 6.75169 16.364 6.75169C17.24 6.75169 17.99 6.90769 18.614 7.21969C19.238 7.51969 19.706 7.93369 20.018 8.46169C20.342 8.97769 20.504 9.56569 20.504 10.2257C20.504 10.9817 20.306 11.6237 19.91 12.1517C19.526 12.6677 19.064 13.0157 18.524 13.1957V13.2677C19.22 13.4837 19.76 13.8677 20.144 14.4197C20.54 14.9717 20.738 15.6797 20.738 16.5437C20.738 17.2637 20.57 17.9057 20.234 18.4697C19.91 19.0337 19.424 19.4777 18.776 19.8017C18.14 20.1137 17.372 20.2697 16.472 20.2697C15.116 20.2697 14.012 19.9277 13.16 19.2437C12.308 18.5597 11.858 17.5517 11.81 16.2197H14.258C14.282 16.8077 14.48 17.2817 14.852 17.6417C15.236 17.9897 15.758 18.1637 16.418 18.1637C17.03 18.1637 17.498 17.9957 17.822 17.6597C18.158 17.3117 18.326 16.8677 18.326 16.3277C18.326 15.6077 18.098 15.0917 17.642 14.7797C17.186 14.4677 16.478 14.3117 15.518 14.3117H14.996V12.2417H15.518C17.222 12.2417 18.074 11.6717 18.074 10.5317C18.074 10.0157 17.918 9.61369 17.606 9.32569C17.306 9.03769 16.868 8.89369 16.292 8.89369C15.728 8.89369 15.29 9.04969 14.978 9.36169C14.678 9.66169 14.504 10.0457 14.456 10.5137H11.99ZM24.1334 20.3057C23.6774 20.3057 23.2994 20.1677 22.9994 19.8917C22.7114 19.6037 22.5674 19.2497 22.5674 18.8297C22.5674 18.4097 22.7114 18.0617 22.9994 17.7857C23.2994 17.4977 23.6774 17.3537 24.1334 17.3537C24.5774 17.3537 24.9434 17.4977 25.2314 17.7857C25.5194 18.0617 25.6634 18.4097 25.6634 18.8297C25.6634 19.2497 25.5194 19.6037 25.2314 19.8917C24.9434 20.1677 24.5774 20.3057 24.1334 20.3057ZM27.4052 13.4477C27.4052 11.3717 27.7772 9.74569 28.5212 8.56969C29.2772 7.39369 30.5252 6.80569 32.2652 6.80569C34.0052 6.80569 35.2472 7.39369 35.9912 8.56969C36.7472 9.74569 37.1252 11.3717 37.1252 13.4477C37.1252 15.5357 36.7472 17.1737 35.9912 18.3617C35.2472 19.5497 34.0052 20.1437 32.2652 20.1437C30.5252 20.1437 29.2772 19.5497 28.5212 18.3617C27.7772 17.1737 27.4052 15.5357 27.4052 13.4477ZM34.6412 13.4477C34.6412 12.5597 34.5812 11.8157 34.4612 11.2157C34.3532 10.6037 34.1252 10.1057 33.7772 9.72169C33.4412 9.33769 32.9372 9.14569 32.2652 9.14569C31.5932 9.14569 31.0832 9.33769 30.7352 9.72169C30.3992 10.1057 30.1712 10.6037 30.0512 11.2157C29.9432 11.8157 29.8892 12.5597 29.8892 13.4477C29.8892 14.3597 29.9432 15.1277 30.0512 15.7517C30.1592 16.3637 30.3872 16.8617 30.7352 17.2457C31.0832 17.6177 31.5932 17.8037 32.2652 17.8037C32.9372 17.8037 33.4472 17.6177 33.7952 17.2457C34.1432 16.8617 34.3712 16.3637 34.4792 15.7517C34.5872 15.1277 34.6412 14.3597 34.6412 13.4477Z" fill="white"/>
</svg>
