<svg width="24" height="24" viewBox="0 0 24 24" fill="none" xmlns="http://www.w3.org/2000/svg">
<path d="M12.0001 21.1717L11.7001 21.0417C6.99006 18.9517 1.98006 14.8517 2.00006 9.59169C2.01006 6.49169 3.73006 4.00169 6.48006 3.12169C8.59006 2.44169 10.5201 2.95169 12.0001 4.56169C13.4801 2.95169 15.4101 2.44169 17.5201 3.12169C20.2701 4.01169 21.9901 6.49169 22.0001 9.60169C22.0301 14.8517 17.0101 18.9517 12.3001 21.0417L12.0001 21.1717ZM8.25006 4.32169C7.83006 4.32169 7.40006 4.39169 6.94006 4.54169C4.41006 5.35169 3.50006 7.69169 3.50006 9.60169C3.48006 14.0217 8.00006 17.6717 12.0001 19.5217C16.0001 17.6717 20.5201 14.0217 20.5001 9.60169C20.5001 7.69169 19.5801 5.36169 17.0601 4.54169C15.2701 3.96169 13.7801 4.52169 12.6201 6.18169L12.0001 7.06169L11.3801 6.18169C10.5201 4.94169 9.47006 4.31169 8.25006 4.31169V4.32169Z" fill="#717171"/>
</svg>
