<svg width="24" height="24" viewBox="0 0 24 24" fill="none" xmlns="http://www.w3.org/2000/svg">
<path d="M2.57237 14.1431C2.57237 14.3798 2.7642 14.5716 3.00088 14.5716C3.23756 14.5716 3.4294 14.7634 3.4294 15.0001V21.8566C3.4294 21.9703 3.47454 22.0793 3.55491 22.1596C3.63527 22.24 3.74426 22.2851 3.85791 22.2851C3.97156 22.2851 4.08056 22.24 4.16092 22.1596C4.24128 22.0793 4.28643 21.9703 4.28643 21.8566V15.0002C4.28643 14.7635 4.47826 14.5717 4.71494 14.5717C4.95163 14.5717 5.14346 14.3798 5.14346 14.1431V13.2861H2.57227V14.1431H2.57237ZM12.0001 12.0004C9.39673 12.0004 7.28624 14.1109 7.28624 16.7143C7.28624 19.3177 9.39673 21.4282 12.0001 21.4282C14.6035 21.4282 16.714 19.3177 16.714 16.7143C16.7109 14.1122 14.6022 12.0035 12.0001 12.0004ZM12.0001 20.5711C9.87009 20.5711 8.14332 18.8443 8.14332 16.7143C8.14332 14.5843 9.87009 12.8575 12.0001 12.8575C14.1301 12.8575 15.8569 14.5843 15.8569 16.7143C15.8545 18.8434 14.1292 20.5687 12.0001 20.5711ZM6.85772 1.71563C6.85772 1.60198 6.81258 1.49298 6.73222 1.41262C6.65185 1.33226 6.54286 1.28711 6.42921 1.28711H4.71505C4.6014 1.28711 4.4924 1.33226 4.41204 1.41262C4.33168 1.49298 4.28653 1.60198 4.28653 1.71563V4.0297L6.85772 2.31559V1.71563Z" fill="#01BCF1"/>
<path d="M11.9997 19.7143C13.6564 19.7143 14.9994 18.3712 14.9994 16.7146C14.9994 15.0579 13.6564 13.7148 11.9997 13.7148C10.343 13.7148 9 15.0579 9 16.7146C9 18.3712 10.343 19.7143 11.9997 19.7143Z" fill="#01BCF1"/>
<path d="M19.7137 21.8573C19.7137 21.9709 19.7588 22.0799 19.8392 22.1603C19.9196 22.2407 20.0286 22.2858 20.1422 22.2858C20.2559 22.2858 20.3648 22.2407 20.4452 22.1603C20.5256 22.0799 20.5707 21.9709 20.5707 21.8573V18.429H19.7136V21.8573H19.7137ZM23.9904 8.05855C23.9796 8.00332 23.958 7.95079 23.9267 7.904C23.8954 7.85721 23.8552 7.81711 23.8083 7.78602L12.2379 0.0724309C12.1676 0.0252161 12.0849 0 12.0003 0C11.9156 0 11.8329 0.0252161 11.7627 0.0724309L0.192289 7.78602C0.0989041 7.84959 0.0343958 7.94747 0.0127934 8.05836C-0.00880898 8.16925 0.0142416 8.28418 0.0769323 8.37816C0.139623 8.47215 0.236884 8.53758 0.347563 8.56023C0.458242 8.58288 0.573388 8.56092 0.667961 8.49912L11.7622 1.10392C11.8326 1.05694 11.9154 1.03187 12.0001 1.03187C12.0847 1.03187 12.1675 1.05694 12.2379 1.10392L23.3326 8.50083C23.4279 8.56129 23.5429 8.58269 23.6536 8.56059C23.7643 8.53848 23.8622 8.47455 23.927 8.38211C23.9586 8.33512 23.9805 8.2823 23.9913 8.22673C24.0022 8.17117 24.0019 8.11399 23.9904 8.05855Z" fill="#01BCF1"/>
<path d="M22.8571 9.21468L12.0003 1.97461L1.14294 9.21468C1.0542 9.27234 0.958614 9.31869 0.858398 9.35268V23.5705C0.858398 23.6842 0.903546 23.7932 0.983908 23.8735C1.06427 23.9539 1.17326 23.9991 1.28691 23.9991H22.7136C22.8272 23.9991 22.9362 23.9539 23.0166 23.8735C23.0969 23.7932 23.1421 23.6842 23.1421 23.5705V9.35223C23.0418 9.31818 22.9461 9.27199 22.8571 9.21468ZM6.00079 14.1428C6.00047 14.4086 5.91793 14.6678 5.76448 14.8849C5.61104 15.1019 5.3942 15.2662 5.14371 15.3551V21.8564C5.14371 22.5664 4.5681 23.142 3.85811 23.142C3.14812 23.142 2.57251 22.5664 2.57251 21.8564V15.3551C2.32203 15.2662 2.10521 15.1019 1.95176 14.8848C1.79832 14.6678 1.71577 14.4086 1.71543 14.1428V10.286C1.71543 10.1723 1.76058 10.0634 1.84094 9.98299C1.9213 9.90263 2.0303 9.85748 2.14395 9.85748C2.2576 9.85748 2.36659 9.90263 2.44695 9.98299C2.52731 10.0634 2.57246 10.1723 2.57246 10.286V12.4287H3.42954V10.286C3.42954 10.1723 3.47469 10.0634 3.55505 9.98299C3.63542 9.90263 3.74441 9.85748 3.85806 9.85748C3.97171 9.85748 4.0807 9.90263 4.16107 9.98299C4.24143 10.0634 4.28658 10.1723 4.28658 10.286V12.4287H5.14366V10.286C5.14366 10.1723 5.1888 10.0634 5.26917 9.98299C5.34953 9.90263 5.45852 9.85748 5.57217 9.85748C5.68582 9.85748 5.79482 9.90263 5.87518 9.98299C5.95554 10.0634 6.00069 10.1723 6.00069 10.286V14.1428H6.00079ZM12.0003 22.2849C8.92352 22.2849 6.42936 19.7907 6.42936 16.714C6.42936 13.6373 8.92352 11.1431 12.0003 11.1431C15.077 11.1431 17.5712 13.6373 17.5712 16.714C17.5676 19.7893 15.0755 22.2814 12.0003 22.2849ZM22.285 17.1425C22.2839 17.4075 22.201 17.6656 22.0476 17.8816C21.8942 18.0976 21.6778 18.2609 21.428 18.3493V21.8564C21.428 22.5664 20.8524 23.142 20.1424 23.142C19.4324 23.142 18.8568 22.5664 18.8568 21.8564V10.286C18.8568 9.81264 19.2405 9.42892 19.7138 9.42892C21.1333 9.43032 22.2836 10.5807 22.285 12.0001V17.1425Z" fill="#01BCF1"/>
<path d="M19.7139 10.2871V17.5722H20.9995C21.1131 17.5722 21.2221 17.527 21.3025 17.4467C21.3828 17.3663 21.428 17.2573 21.428 17.1437V12.0013C21.428 11.0546 20.6605 10.2871 19.7139 10.2871Z" fill="#01BCF1"/>
</svg>
