<svg width="36" height="30" viewBox="0 0 36 30" fill="none" xmlns="http://www.w3.org/2000/svg">
<rect width="36" height="30" rx="9" fill="#E8F7F0"/>
<path d="M14.845 10.34H9.58V13.76C9.81 13.44 10.15 13.18 10.6 12.98C11.05 12.77 11.535 12.665 12.055 12.665C12.885 12.665 13.56 12.84 14.08 13.19C14.6 13.53 14.97 13.975 15.19 14.525C15.42 15.065 15.535 15.64 15.535 16.25C15.535 16.97 15.4 17.615 15.13 18.185C14.86 18.755 14.445 19.205 13.885 19.535C13.335 19.865 12.65 20.03 11.83 20.03C10.78 20.03 9.93 19.76 9.28 19.22C8.63 18.68 8.235 17.96 8.095 17.06H9.43C9.56 17.63 9.835 18.075 10.255 18.395C10.675 18.715 11.205 18.875 11.845 18.875C12.635 18.875 13.23 18.64 13.63 18.17C14.03 17.69 14.23 17.06 14.23 16.28C14.23 15.5 14.03 14.9 13.63 14.48C13.23 14.05 12.64 13.835 11.86 13.835C11.33 13.835 10.865 13.965 10.465 14.225C10.075 14.475 9.79 14.82 9.61 15.26H8.32V9.14H14.845V10.34ZM18.0089 20.09C17.7489 20.09 17.5289 20 17.3489 19.82C17.1689 19.64 17.0789 19.42 17.0789 19.16C17.0789 18.9 17.1689 18.68 17.3489 18.5C17.5289 18.32 17.7489 18.23 18.0089 18.23C18.2589 18.23 18.4689 18.32 18.6389 18.5C18.8189 18.68 18.9089 18.9 18.9089 19.16C18.9089 19.42 18.8189 19.64 18.6389 19.82C18.4689 20 18.2589 20.09 18.0089 20.09ZM20.4984 14.465C20.4984 12.745 20.7784 11.405 21.3384 10.445C21.8984 9.475 22.8784 8.99 24.2784 8.99C25.6684 8.99 26.6434 9.475 27.2034 10.445C27.7634 11.405 28.0434 12.745 28.0434 14.465C28.0434 16.215 27.7634 17.575 27.2034 18.545C26.6434 19.515 25.6684 20 24.2784 20C22.8784 20 21.8984 19.515 21.3384 18.545C20.7784 17.575 20.4984 16.215 20.4984 14.465ZM26.6934 14.465C26.6934 13.595 26.6334 12.86 26.5134 12.26C26.4034 11.65 26.1684 11.16 25.8084 10.79C25.4584 10.42 24.9484 10.235 24.2784 10.235C23.5984 10.235 23.0784 10.42 22.7184 10.79C22.3684 11.16 22.1334 11.65 22.0134 12.26C21.9034 12.86 21.8484 13.595 21.8484 14.465C21.8484 15.365 21.9034 16.12 22.0134 16.73C22.1334 17.34 22.3684 17.83 22.7184 18.2C23.0784 18.57 23.5984 18.755 24.2784 18.755C24.9484 18.755 25.4584 18.57 25.8084 18.2C26.1684 17.83 26.4034 17.34 26.5134 16.73C26.6334 16.12 26.6934 15.365 26.6934 14.465Z" fill="#1EBC67"/>
</svg>
