<svg width="27" height="27" viewBox="0 0 27 27" fill="none" xmlns="http://www.w3.org/2000/svg">
<g clip-path="url(#clip0_6_26)">
<path d="M26.9736 7.93807C26.9103 6.50342 26.6784 5.5172 26.346 4.66252C26.0031 3.75537 25.4757 2.94321 24.7847 2.26802C24.1095 1.58234 23.2919 1.04951 22.3953 0.712053C21.5357 0.379762 20.5546 0.147685 19.12 0.084497C17.6746 0.0158234 17.2158 0 13.55 0C9.88429 0 9.42547 0.0158234 7.98548 0.079117C6.55088 0.142411 5.56461 0.374593 4.7102 0.706673C3.80278 1.04951 2.99061 1.57696 2.31543 2.26802C1.62975 2.94315 1.09719 3.7607 0.759462 4.65736C0.427171 5.5172 0.195147 6.49814 0.131906 7.93269C0.0632852 9.37806 0.0474091 9.83688 0.0474091 13.5026C0.0474091 17.1684 0.0632852 17.6273 0.126526 19.0672C0.18982 20.5019 0.422002 21.4881 0.754346 22.3427C1.09719 23.2499 1.62975 24.0621 2.31543 24.7373C2.99061 25.4229 3.80816 25.9558 4.70482 26.2932C5.56456 26.6255 6.5455 26.8576 7.98037 26.9208C9.42009 26.9843 9.87917 26.9999 13.5449 26.9999C17.2107 26.9999 17.6695 26.9843 19.1095 26.9208C20.5441 26.8575 21.5304 26.6256 22.3848 26.2932C23.2822 25.9463 24.0971 25.4156 24.7775 24.7353C25.4578 24.055 25.9885 23.2401 26.3355 22.3427C26.6676 21.483 26.8998 20.5018 26.9631 19.0672C27.0264 17.6273 27.0422 17.1684 27.0422 13.5026C27.0422 9.83688 27.0368 9.378 26.9736 7.93807ZM24.5422 18.9617C24.4841 20.2803 24.2626 20.9924 24.078 21.4671C23.6243 22.6433 22.6908 23.5769 21.5145 24.0306C21.0398 24.2152 20.3226 24.4367 19.0091 24.4945C17.585 24.558 17.1579 24.5736 13.5554 24.5736C9.95291 24.5736 9.52046 24.558 8.10147 24.4945C6.78285 24.4367 6.0708 24.2152 5.5961 24.0306C5.01079 23.8142 4.47801 23.4714 4.04551 23.0231C3.59718 22.5853 3.25434 22.0578 3.03798 21.4725C2.85337 20.9978 2.6319 20.2803 2.57404 18.9671C2.51053 17.543 2.49492 17.1156 2.49492 13.5131C2.49492 9.91062 2.51053 9.47817 2.57404 8.05944C2.6319 6.74082 2.85337 6.02877 3.03798 5.55407C3.25434 4.9685 3.59718 4.43583 4.05089 4.00322C4.48846 3.55489 5.01591 3.21205 5.60148 2.99595C6.07618 2.81134 6.79361 2.58982 8.10685 2.53174C9.53095 2.46845 9.95829 2.45263 13.5605 2.45263C17.1684 2.45263 17.5955 2.46845 19.0145 2.53174C20.3331 2.58987 21.0452 2.81129 21.5199 2.9959C22.1052 3.21205 22.638 3.55489 23.0705 4.00322C23.5188 4.44105 23.8616 4.9685 24.078 5.55407C24.2626 6.02877 24.4841 6.74594 24.5421 8.05944C24.6054 9.48355 24.6213 9.91062 24.6213 13.5131C24.6213 17.1156 24.6055 17.5376 24.5422 18.9617Z" fill="#01BCF1"/>
<path d="M13.5501 6.56677C9.72095 6.56677 6.61418 9.67333 6.61418 13.5027C6.61418 17.3321 9.72095 20.4386 13.5501 20.4386C17.3794 20.4386 20.486 17.3321 20.486 13.5027C20.486 9.67333 17.3794 6.56677 13.5501 6.56677ZM13.5501 18.0018C11.0659 18.0018 9.05088 15.9871 9.05088 13.5027C9.05088 11.0183 11.0659 9.00357 13.5501 9.00357C16.0344 9.00357 18.0492 11.0183 18.0492 13.5027C18.0492 15.9871 16.0344 18.0018 13.5501 18.0018ZM22.3797 6.2925C22.3797 7.18673 21.6546 7.91176 20.7602 7.91176C19.866 7.91176 19.141 7.18673 19.141 6.2925C19.141 5.39816 19.866 4.67334 20.7603 4.67334C21.6546 4.67334 22.3797 5.3981 22.3797 6.2925Z" fill="#01BCF1"/>
</g>
<defs>
<clipPath id="clip0_6_26">
<rect width="27" height="27" fill="white"/>
</clipPath>
</defs>
</svg>
