<svg width="27" height="27" viewBox="0 0 27 27" fill="none" xmlns="http://www.w3.org/2000/svg">
<g clip-path="url(#clip0_6_52)">
<path d="M8.43792 22.3066H4.74652V10.3887H8.43792V22.3066ZM8.80622 6.59159C8.80622 5.39826 7.83802 4.42969 6.64537 4.42969C5.44809 4.42969 4.48242 5.39826 4.48242 6.59159C4.48242 7.78533 5.44815 8.75391 6.64537 8.75391C7.83807 8.75391 8.80622 7.78533 8.80622 6.59159ZM22.2539 15.7499C22.2539 12.5506 21.5781 10.1777 17.8407 10.1777C16.0449 10.1777 14.8393 11.0759 14.3472 12.0098H14.3438V10.3887H10.7578V22.3066H14.3438V16.3893C14.3438 14.8396 14.7382 13.3383 16.6591 13.3383C18.5539 13.3383 18.6152 15.1105 18.6152 16.4877V22.3066H22.2539V15.7499ZM27 23.8359V3.16406C27 1.41929 25.5807 0 23.8359 0H3.16406C1.41929 0 0 1.41929 0 3.16406V23.8359C0 25.5807 1.41929 27 3.16406 27H23.8359C25.5807 27 27 25.5807 27 23.8359ZM23.8359 2.10938C24.4174 2.10938 24.8906 2.58256 24.8906 3.16406V23.8359C24.8906 24.4174 24.4174 24.8906 23.8359 24.8906H3.16406C2.58256 24.8906 2.10938 24.4174 2.10938 23.8359V3.16406C2.10938 2.58256 2.58256 2.10938 3.16406 2.10938H23.8359Z" fill="#01BCF1"/>
</g>
<defs>
<clipPath id="clip0_6_52">
<rect width="27" height="27" fill="white"/>
</clipPath>
</defs>
</svg>
