<svg width="24" height="24" viewBox="0 0 24 24" fill="none" xmlns="http://www.w3.org/2000/svg">
<g clip-path="url(#clip0_140_914)">
<path d="M13.6641 19.4766L15.1566 17.983C15.2155 17.9242 15.2601 17.8528 15.287 17.7741C15.314 17.6954 15.3226 17.6116 15.3122 17.5291C15.2866 17.3241 15.2728 17.1174 15.2728 16.9091C15.2728 14.2021 17.4748 12 20.1818 12C20.2535 12.0001 20.3244 11.986 20.3906 11.9586C20.4568 11.9312 20.517 11.891 20.5677 11.8404C20.6183 11.7897 20.6585 11.7296 20.6859 11.6634C20.7133 11.5971 20.7274 11.5262 20.7273 11.4546V2.18184C20.7273 0.978495 19.7483 0 18.5455 0H12C11.3454 0 10.764 0.295824 10.3637 0.754057C9.96336 0.295824 9.38184 0 8.7273 0H2.18184C0.979057 0 0 0.978495 0 2.18184V17.4546C0 18.6579 0.979057 19.6364 2.18184 19.6364H8.7273C9.38189 19.6364 9.96336 19.3406 10.3637 18.8823C10.764 19.3406 11.3454 19.6364 12 19.6364H13.2784C13.4233 19.6364 13.5618 19.5788 13.6641 19.4766ZM3.8182 3.27273H7.09093C7.39243 3.27273 7.6364 3.5167 7.6364 3.8182C7.6364 4.1197 7.39243 4.36367 7.09093 4.36367H3.8182C3.5167 4.36362 3.27273 4.11965 3.27273 3.8182C3.27273 3.51675 3.5167 3.27273 3.8182 3.27273ZM7.09093 6.54546H3.8182C3.74656 6.54551 3.6756 6.53143 3.6094 6.50403C3.5432 6.47664 3.48305 6.43646 3.43239 6.3858C3.38173 6.33514 3.34155 6.27499 3.31416 6.20879C3.28676 6.14258 3.27268 6.07163 3.27273 5.99999C3.27268 5.92834 3.28676 5.85739 3.31416 5.79119C3.34155 5.72499 3.38173 5.66484 3.43239 5.61417C3.48305 5.56351 3.5432 5.52334 3.6094 5.49594C3.6756 5.46854 3.74656 5.45447 3.8182 5.45451H7.09093C7.16258 5.45447 7.23353 5.46854 7.29973 5.49594C7.36593 5.52334 7.42608 5.56351 7.47674 5.61417C7.5274 5.66484 7.56758 5.72499 7.59498 5.79119C7.62237 5.85739 7.63645 5.92834 7.6364 5.99999C7.63644 6.07163 7.62235 6.14257 7.59495 6.20877C7.56755 6.27496 7.52737 6.33511 7.47671 6.38577C7.42605 6.43643 7.36591 6.4766 7.29971 6.50401C7.23352 6.53141 7.16257 6.54549 7.09093 6.54546ZM8.7273 10.3637C8.72734 10.4353 8.71327 10.5063 8.68587 10.5725C8.65847 10.6387 8.6183 10.6988 8.56764 10.7495C8.51697 10.8001 8.45682 10.8403 8.39062 10.8677C8.32442 10.8951 8.25347 10.9092 8.18182 10.9091C8.11018 10.9092 8.03923 10.8951 7.97302 10.8677C7.90682 10.8403 7.84667 10.8001 7.79601 10.7495C7.74535 10.6988 7.70517 10.6387 7.67778 10.5725C7.65038 10.5063 7.6363 10.4353 7.63635 10.3637V9.27277C7.6363 9.20112 7.65038 9.13017 7.67778 9.06397C7.70517 8.99777 7.74535 8.93762 7.79601 8.88696C7.84667 8.83629 7.90682 8.79612 7.97302 8.76872C8.03923 8.74132 8.11018 8.72725 8.18182 8.7273C8.25347 8.72725 8.32442 8.74132 8.39062 8.76872C8.45682 8.79612 8.51697 8.83629 8.56764 8.88696C8.6183 8.93762 8.65847 8.99777 8.68587 9.06397C8.71327 9.13017 8.72734 9.20112 8.7273 9.27277V10.3637ZM18 8.7273C18.0717 8.72725 18.1426 8.74132 18.2088 8.76872C18.275 8.79612 18.3352 8.83629 18.3858 8.88696C18.4365 8.93762 18.4767 8.99777 18.5041 9.06397C18.5315 9.13017 18.5455 9.20112 18.5455 9.27277V10.3637C18.5455 10.4353 18.5315 10.5063 18.5041 10.5725C18.4767 10.6387 18.4365 10.6988 18.3858 10.7495C18.3352 10.8001 18.275 10.8403 18.2088 10.8677C18.1426 10.8951 18.0717 10.9092 18 10.9091C17.9284 10.9092 17.8574 10.8951 17.7912 10.8677C17.725 10.8403 17.6649 10.8001 17.6142 10.7495C17.5635 10.6988 17.5234 10.6387 17.496 10.5725C17.4686 10.5063 17.4545 10.4353 17.4545 10.3637V9.27277C17.4545 9.20112 17.4686 9.13017 17.496 9.06397C17.5234 8.99777 17.5635 8.93762 17.6142 8.88696C17.6649 8.83629 17.725 8.79612 17.7912 8.76872C17.8574 8.74132 17.9284 8.72725 18 8.7273ZM13.6364 3.27273H16.9091C17.2106 3.27273 17.4546 3.5167 17.4546 3.8182C17.4546 4.1197 17.2106 4.36367 16.9091 4.36367H13.6364C13.3349 4.36367 13.0909 4.1197 13.0909 3.8182C13.0909 3.5167 13.3349 3.27273 13.6364 3.27273ZM13.0909 5.99999C13.0909 5.92834 13.1049 5.85739 13.1323 5.79119C13.1597 5.72499 13.1999 5.66484 13.2506 5.61417C13.3012 5.56351 13.3614 5.52334 13.4276 5.49594C13.4938 5.46854 13.5647 5.45447 13.6364 5.45451H16.9091C16.9808 5.45447 17.0517 5.46854 17.1179 5.49594C17.1841 5.52334 17.2443 5.56351 17.2949 5.61417C17.3456 5.66484 17.3858 5.72499 17.4132 5.79119C17.4406 5.85739 17.4546 5.92834 17.4546 5.99999C17.4546 6.07163 17.4406 6.14258 17.4132 6.20879C17.3858 6.27499 17.3456 6.33514 17.2949 6.3858C17.2443 6.43646 17.1841 6.47664 17.1179 6.50403C17.0517 6.53143 16.9808 6.54551 16.9091 6.54546H13.6364C13.5647 6.54551 13.4938 6.53143 13.4276 6.50403C13.3614 6.47664 13.3012 6.43646 13.2506 6.3858C13.1999 6.33514 13.1597 6.27499 13.1323 6.20879C13.1049 6.14258 13.0909 6.07163 13.0909 5.99999Z" fill="#01BCF1"/>
<path d="M20.1818 13.0938C18.0766 13.0938 16.3635 14.8068 16.3635 16.912C16.3635 17.3234 16.4315 17.7319 16.5649 18.1211L13.2506 21.4354C13.1483 21.5377 13.0908 21.6762 13.0908 21.8211V23.4575C13.0908 23.5291 13.1048 23.6001 13.1322 23.6663C13.1596 23.7325 13.1998 23.7926 13.2505 23.8433C13.3011 23.8939 13.3613 23.9341 13.4275 23.9615C13.4937 23.9889 13.5646 24.003 13.6363 24.0029H15.2727C15.3443 24.0029 15.4152 23.9888 15.4814 23.9614C15.5476 23.934 15.6077 23.8938 15.6583 23.8431L18.9726 20.5294C19.3658 20.6626 19.7706 20.7302 20.1818 20.7302C22.2869 20.7302 24 19.0171 24 16.912C24 14.8069 22.2868 13.0938 20.1818 13.0938ZM20.7272 17.4574C20.1253 17.4574 19.6363 16.9678 19.6363 16.3665C19.6363 15.7651 20.1253 15.2756 20.7272 15.2756C21.329 15.2756 21.8181 15.7651 21.8181 16.3665C21.8181 16.9678 21.3291 17.4574 20.7272 17.4574Z" fill="#01BCF1"/>
</g>
<defs>
<clipPath id="clip0_140_914">
<rect width="24" height="24" fill="white"/>
</clipPath>
</defs>
</svg>
