<svg width="32" height="32" viewBox="0 0 32 32" fill="none" xmlns="http://www.w3.org/2000/svg">
<path d="M7.79188 12.711C8.26655 13.2724 12.5212 18.203 16.0145 18.203C19.5119 18.203 23.7239 13.2684 24.1919 12.7057C24.5452 12.283 24.4879 11.6524 24.0652 11.299C23.6385 10.9457 23.0105 11.003 22.6559 11.4257C21.1145 13.2724 17.9479 16.203 16.0145 16.203C14.0785 16.203 10.8825 13.2697 9.32121 11.4217C8.96521 10.999 8.33455 10.9457 7.91321 11.3017C7.49055 11.6577 7.43721 12.2884 7.79188 12.711Z" fill="white"/>
<path fill-rule="evenodd" clip-rule="evenodd" d="M2.30151 15.9997C2.30151 25.7131 5.88685 29.1557 15.9988 29.1557C26.1122 29.1557 29.6975 25.7131 29.6975 15.9997C29.6975 6.28642 26.1122 2.84375 15.9988 2.84375C5.88685 2.84375 2.30151 6.28642 2.30151 15.9997ZM4.30151 15.9997C4.30151 7.45042 7.03485 4.84375 15.9988 4.84375C24.9642 4.84375 27.6975 7.45042 27.6975 15.9997C27.6975 24.5491 24.9642 27.1557 15.9988 27.1557C7.03485 27.1557 4.30151 24.5491 4.30151 15.9997Z" fill="white"/>
</svg>
