<svg width="25" height="24" viewBox="0 0 25 24" fill="none" xmlns="http://www.w3.org/2000/svg">
<path fill-rule="evenodd" clip-rule="evenodd" d="M17.064 3C18.405 3 19.695 3.53 20.644 4.481C21.594 5.43 22.125 6.71 22.125 8.05V15.95C22.125 18.74 19.855 21 17.064 21H7.185C4.394 21 2.125 18.74 2.125 15.95V8.05C2.125 5.26 4.384 3 7.185 3H17.064ZM18.655 9.54L18.735 9.46C18.974 9.17 18.974 8.75 18.724 8.46C18.585 8.311 18.394 8.22 18.195 8.2C17.985 8.189 17.785 8.26 17.634 8.4L13.125 12C12.545 12.481 11.714 12.481 11.125 12L6.625 8.4C6.314 8.17 5.884 8.2 5.625 8.47C5.355 8.74 5.325 9.17 5.554 9.47L5.685 9.6L10.235 13.15C10.795 13.59 11.474 13.83 12.185 13.83C12.894 13.83 13.585 13.59 14.144 13.15L18.655 9.54Z" fill="#01BCF1"/>
</svg>
