<svg width="32" height="33" viewBox="0 0 32 33" fill="none" xmlns="http://www.w3.org/2000/svg">
<path d="M7.79212 13.211C8.26679 13.7724 12.5215 18.703 16.0148 18.703C19.5121 18.703 23.7241 13.7684 24.1921 13.2057C24.5455 12.783 24.4881 12.1524 24.0655 11.799C23.6388 11.4457 23.0108 11.503 22.6561 11.9257C21.1148 13.7724 17.9481 16.703 16.0148 16.703C14.0788 16.703 10.8828 13.7697 9.32146 11.9217C8.96546 11.499 8.33479 11.4457 7.91346 11.8017C7.49079 12.1577 7.43746 12.7884 7.79212 13.211Z" fill="#01BCF1"/>
<path fill-rule="evenodd" clip-rule="evenodd" d="M2.30176 16.4997C2.30176 26.2131 5.88709 29.6557 15.9991 29.6557C26.1124 29.6557 29.6978 26.2131 29.6978 16.4997C29.6978 6.78642 26.1124 3.34375 15.9991 3.34375C5.88709 3.34375 2.30176 6.78642 2.30176 16.4997ZM4.30176 16.4997C4.30176 7.95042 7.03509 5.34375 15.9991 5.34375C24.9644 5.34375 27.6978 7.95042 27.6978 16.4997C27.6978 25.0491 24.9644 27.6557 15.9991 27.6557C7.03509 27.6557 4.30176 25.0491 4.30176 16.4997Z" fill="#01BCF1"/>
</svg>
