<svg width="25" height="31" viewBox="0 0 25 31" fill="none" xmlns="http://www.w3.org/2000/svg">
<path d="M4.87912 0.731193L6.67825 0.188896C8.71712 -0.425674 10.8954 0.567513 11.7686 2.50975L13.1587 5.6019C13.9029 7.25739 13.5107 9.20299 12.1833 10.4409L9.87961 12.5892C9.81224 12.6519 9.76953 12.7367 9.75936 12.8283C9.69091 13.4405 10.1061 14.6328 11.0622 16.289C11.7577 17.4935 12.387 18.338 12.9227 18.8132C13.2959 19.1442 13.5014 19.2157 13.5889 19.1897L16.6882 18.2422C18.4235 17.7117 20.304 18.3442 21.3658 19.8157L23.3402 22.5522C24.5829 24.2745 24.3594 26.6507 22.8174 28.1111L21.4509 29.4052C19.9764 30.8016 17.8773 31.322 15.9214 30.7761C11.6755 29.591 7.86863 26.0078 4.45866 20.1017C1.04395 14.1873 -0.154219 9.09285 0.950308 4.81968C1.45577 2.8641 2.94522 1.31413 4.87912 0.731193ZM5.54651 2.94529C4.38617 3.29505 3.4925 4.22504 3.18922 5.39839C2.26014 8.9928 3.32213 13.5082 6.46135 18.9455C9.59641 24.3754 12.971 27.5517 16.543 28.5487C17.7167 28.8763 18.9761 28.5641 19.8608 27.7262L21.2272 26.4321C21.9282 25.7683 22.0298 24.6882 21.4649 23.9053L19.4905 21.1689C19.0078 20.5001 18.153 20.2124 17.3642 20.4537L14.2573 21.4035C12.454 21.9411 10.8173 20.4896 9.0596 17.4453C7.87512 15.3938 7.32306 13.8079 7.46115 12.5716C7.53268 11.9311 7.8311 11.3374 8.30242 10.8979L10.6062 8.74962C11.2096 8.18694 11.3878 7.30258 11.0496 6.55009L9.65946 3.45794C9.26257 2.5751 8.27239 2.12364 7.34563 2.40299L5.54651 2.94529Z" fill="#01BCF1"/>
</svg>
