<svg width="24" height="24" viewBox="0 0 24 24" fill="none" xmlns="http://www.w3.org/2000/svg">
<g clip-path="url(#clip0_140_890)">
<path d="M20.7255 3.29138C17.3569 -0.097125 11.8931 -0.097125 8.52452 3.29138C6.38364 5.445 5.60589 8.448 6.18564 11.2163C6.20543 11.313 6.24414 11.405 6.29956 11.4868C6.35498 11.5686 6.42601 11.6386 6.50858 11.6928C6.59115 11.7471 6.68362 11.7845 6.78069 11.8029C6.87775 11.8213 6.9775 11.8204 7.0742 11.8001C7.1709 11.7799 7.26264 11.7407 7.34416 11.6849C7.42568 11.6291 7.49537 11.5577 7.54923 11.4749C7.60308 11.3921 7.64004 11.2994 7.65798 11.2022C7.67592 11.1051 7.67449 11.0054 7.65377 10.9088C7.17302 8.61188 7.81952 6.12863 9.58877 4.34888C12.3705 1.55025 16.8795 1.55025 19.6613 4.34888C22.446 7.15013 22.446 11.6936 19.6613 14.4945L14.0936 20.0963C13.9574 20.2381 13.8823 20.4278 13.8845 20.6244C13.8868 20.8211 13.9662 21.009 14.1056 21.1477C14.2451 21.2864 14.4335 21.3647 14.6302 21.3659C14.8268 21.367 15.0161 21.2908 15.1571 21.1538L20.7259 15.5524C24.0919 12.1661 24.0915 6.67763 20.7255 3.29138Z" fill="#01BCF1"/>
<path fill-rule="evenodd" clip-rule="evenodd" d="M2.7255 14.4368C2.99625 13.6436 3.74887 13.125 4.57875 13.125H9.67125C10.5011 13.125 11.2538 13.6436 11.5245 14.4368L11.9828 15.7781C12.1595 15.7051 12.3575 15.7023 12.5362 15.7704C12.715 15.8385 12.8609 15.9723 12.9443 16.1444C13.0276 16.3166 13.042 16.5141 12.9846 16.6965C12.9272 16.8789 12.8022 17.0325 12.6353 17.1259L12.597 17.1473C13.1445 17.5688 13.5 18.2242 13.5 18.9716V21.324C13.5 22.4047 12.6071 23.25 11.5447 23.25C10.6721 23.25 9.91425 22.68 9.67087 21.8775H4.57875C4.33575 22.68 3.57788 23.25 2.70525 23.25C1.64288 23.25 0.75 22.4047 0.75 21.324V18.9713C0.75 18.2318 1.09875 17.5822 1.63575 17.16L1.57388 17.1255C1.40442 17.0303 1.27853 16.8731 1.22273 16.6869C1.16693 16.5007 1.18558 16.3002 1.27475 16.1275C1.36391 15.9548 1.51663 15.8235 1.70072 15.7612C1.88482 15.6989 2.08591 15.7105 2.26163 15.7935L2.7255 14.4368ZM3.55313 16.6534L4.14488 14.9216C4.20188 14.754 4.37063 14.625 4.57875 14.625H9.67125C9.879 14.625 10.0478 14.754 10.1051 14.9216L10.6969 16.6534H3.55313ZM3.70987 18.6135C3.51096 18.6135 3.3202 18.6925 3.17954 18.8332C3.03889 18.9738 2.95988 19.1646 2.95988 19.3635C2.95988 19.5624 3.03889 19.7532 3.17954 19.8938C3.3202 20.0345 3.51096 20.1135 3.70987 20.1135H4.5135C4.71241 20.1135 4.90318 20.0345 5.04383 19.8938C5.18448 19.7532 5.2635 19.5624 5.2635 19.3635C5.2635 19.1646 5.18448 18.9738 5.04383 18.8332C4.90318 18.6925 4.71241 18.6135 4.5135 18.6135H3.70987ZM9.5355 18.6135C9.33659 18.6135 9.14582 18.6925 9.00517 18.8332C8.86452 18.9738 8.7855 19.1646 8.7855 19.3635C8.7855 19.5624 8.86452 19.7532 9.00517 19.8938C9.14582 20.0345 9.33659 20.1135 9.5355 20.1135H10.3391C10.538 20.1135 10.7288 20.0345 10.8695 19.8938C11.0101 19.7532 11.0891 19.5624 11.0891 19.3635C11.0891 19.1646 11.0101 18.9738 10.8695 18.8332C10.7288 18.6925 10.538 18.6135 10.3391 18.6135H9.5355ZM13.875 10.875H15C15.3447 10.875 15.6861 10.8071 16.0045 10.6752C16.323 10.5433 16.6124 10.3499 16.8562 10.1062C17.0999 9.8624 17.2933 9.57302 17.4252 9.25454C17.5571 8.93606 17.625 8.59472 17.625 8.25C17.625 7.90528 17.5571 7.56394 17.4252 7.24546C17.2933 6.92698 17.0999 6.6376 16.8562 6.39384C16.6124 6.15009 16.323 5.95673 16.0045 5.82482C15.6861 5.6929 15.3447 5.625 15 5.625H13.125C12.9261 5.625 12.7353 5.70402 12.5947 5.84467C12.454 5.98532 12.375 6.17609 12.375 6.375V12.375C12.375 12.5739 12.454 12.7647 12.5947 12.9053C12.7353 13.046 12.9261 13.125 13.125 13.125C13.3239 13.125 13.5147 13.046 13.6553 12.9053C13.796 12.7647 13.875 12.5739 13.875 12.375V10.875ZM13.875 7.125V9.375H15C15.1477 9.375 15.294 9.3459 15.4305 9.28936C15.567 9.23283 15.691 9.14996 15.7955 9.0455C15.9 8.94103 15.9828 8.81701 16.0394 8.68052C16.0959 8.54403 16.125 8.39774 16.125 8.25C16.125 8.10226 16.0959 7.95597 16.0394 7.81948C15.9828 7.68299 15.9 7.55897 15.7955 7.4545C15.691 7.35004 15.567 7.26717 15.4305 7.21064C15.294 7.1541 15.1477 7.125 15 7.125H13.875Z" fill="#01BCF1"/>
</g>
<defs>
<clipPath id="clip0_140_890">
<rect width="24" height="24" fill="white"/>
</clipPath>
</defs>
</svg>
