<svg width="24" height="24" viewBox="0 0 24 24" fill="none" xmlns="http://www.w3.org/2000/svg">
<path d="M21.3638 7.41805H20.3625V3.92305C20.3625 3.71305 20.1937 3.54805 19.9875 3.54805H18.1613V1.74805C18.1613 1.53805 17.9925 1.37305 17.7863 1.37305H6.21375C6.0075 1.37305 5.83875 1.53805 5.83875 1.74805V3.54805H4.01625C3.81 3.54805 3.64125 3.71305 3.64125 3.92305V7.41805H2.63625C2.13629 7.41904 1.65709 7.61809 1.30356 7.97161C0.950039 8.32514 0.750991 8.80434 0.75 9.3043V15.2893C0.750991 15.7893 0.950039 16.2685 1.30356 16.622C1.65709 16.9755 2.13629 17.1746 2.63625 17.1755H5.4975L4.92375 22.2118C4.9125 22.3168 4.94625 22.4255 5.0175 22.5043C5.08875 22.583 5.19 22.628 5.295 22.628H18.705C18.8138 22.628 18.915 22.583 18.9863 22.5043C19.0575 22.4255 19.0912 22.3168 19.0762 22.2118L18.5025 17.1755H21.3638C21.8637 17.1746 22.3429 16.9755 22.6964 16.622C23.05 16.2685 23.249 15.7893 23.25 15.2893V9.3043C23.249 8.80434 23.05 8.32514 22.6964 7.97161C22.3429 7.61809 21.8637 7.41904 21.3638 7.41805ZM7.36875 10.0468C7.36875 10.253 7.2 10.4218 6.99375 10.4218H6.0675C5.86125 10.4218 5.6925 10.253 5.6925 10.0468C5.6925 9.84055 5.86125 9.6718 6.0675 9.6718H6.99375C7.2 9.6718 7.36875 9.8368 7.36875 10.0468ZM3.3375 9.6718H4.26375C4.47 9.6718 4.63875 9.8368 4.63875 10.0468C4.63875 10.2568 4.47 10.4218 4.26375 10.4218H3.3375C3.13125 10.4218 2.9625 10.253 2.9625 10.0468C2.9625 9.84055 3.13125 9.6718 3.3375 9.6718ZM6.58875 2.12305H17.4113V7.41805H6.58875V2.12305ZM5.715 21.878L6.51375 14.873H17.49L18.285 21.878H5.715ZM18.42 16.4255L18.195 14.453C18.185 14.3618 18.1415 14.2776 18.0729 14.2166C18.0043 14.1557 17.9155 14.1223 17.8237 14.123H6.18C5.98875 14.123 5.8275 14.2655 5.805 14.453L5.58 16.4255H4.7925V12.6718H19.2075V16.4255H18.42Z" fill="#01BCF1"/>
<path d="M8.64359 16.6426H15.3598C15.5661 16.6426 15.7348 16.4738 15.7348 16.2676C15.7348 16.0613 15.5661 15.8926 15.3598 15.8926H8.64359C8.43734 15.8926 8.26859 16.0613 8.26859 16.2676C8.26859 16.4738 8.43734 16.6426 8.64359 16.6426ZM8.25359 18.7501H15.7461C15.9523 18.7501 16.1211 18.5813 16.1211 18.3751C16.1211 18.1688 15.9523 18.0001 15.7461 18.0001H8.25359C8.04734 18.0001 7.87859 18.1688 7.87859 18.3751C7.87859 18.5813 8.04734 18.7501 8.25359 18.7501ZM16.1286 20.1076H7.87109C7.66484 20.1076 7.49609 20.2763 7.49609 20.4826C7.49609 20.6888 7.66484 20.8576 7.87109 20.8576H16.1286C16.3348 20.8576 16.5036 20.6888 16.5036 20.4826C16.5036 20.2763 16.3348 20.1076 16.1286 20.1076Z" fill="#01BCF1"/>
</svg>
