<svg width="21" height="17" viewBox="0 0 21 17" fill="none" xmlns="http://www.w3.org/2000/svg">
<path d="M2.47949 15.7505C2.47949 14.2993 4.72949 14.2993 4.72949 15.7505C4.72949 17.2018 2.47949 17.2018 2.47949 15.7505ZM11.2695 15.7505C11.2695 14.2993 13.5195 14.2993 13.5195 15.7505C13.5195 17.2018 11.2695 17.2018 11.2695 15.7505Z" fill="#01BCF1"/>
<path d="M13.9995 14.625H1.24953C0.765781 14.625 0.765781 13.875 1.24953 13.875H13.9995C15.0345 13.875 15.8745 13.035 15.8745 12V4.125C15.8745 3.5025 16.377 3 16.9995 3H17.3745C17.3745 2.79375 17.5433 2.625 17.7495 2.625H20.3745C20.5808 2.625 20.7495 2.79375 20.7495 3V3.75C20.7495 3.95625 20.5808 4.125 20.3745 4.125H17.7495C17.5433 4.125 17.3745 3.95625 17.3745 3.75H16.9995C16.7933 3.75 16.6245 3.91875 16.6245 4.125V12C16.6245 13.4512 15.4508 14.625 13.9995 14.625ZM6.12453 1.125C5.91828 1.125 5.74953 1.29375 5.74953 1.5V2.625H4.99953V1.5C4.99953 0.8775 5.50203 0.375 6.12453 0.375H10.6245C11.247 0.375 11.7495 0.8775 11.7495 1.5V2.625H10.9995V1.5C10.9995 1.29375 10.8308 1.125 10.6245 1.125H6.12453Z" fill="#01BCF1"/>
<path d="M14.375 3.75V12C14.375 12.2063 14.2063 12.375 14 12.375H2.75C2.54375 12.375 2.375 12.2063 2.375 12V3.75C2.375 3.54375 2.54375 3.375 2.75 3.375H11V4.875H10.625C10.4187 4.875 10.25 5.04375 10.25 5.25V7.5C10.25 7.70625 10.4187 7.875 10.625 7.875H12.125C12.3313 7.875 12.5 7.70625 12.5 7.5V5.25C12.5 5.04375 12.3313 4.875 12.125 4.875H11.75V3.375H14C14.2063 3.375 14.375 3.54375 14.375 3.75Z" fill="#01BCF1"/>
</svg>
