<svg width="24" height="24" viewBox="0 0 24 24" fill="none" xmlns="http://www.w3.org/2000/svg">
<path d="M22.9695 24H1.43159C0.058545 24 0.0573751 21.9367 1.43159 21.9367H22.9695C24.3425 21.9367 24.3437 24 22.9695 24ZM12.2006 11.3757C6.63932 11.3757 2.08166 15.6706 1.66608 21.1232H22.7351C22.3194 15.6706 17.7618 11.3757 12.2006 11.3757ZM9.88308 14.4975C7.68915 15.1795 5.9166 16.7859 5.02003 18.9048C4.98887 18.9785 4.93668 19.0414 4.86998 19.0855C4.80329 19.1297 4.72505 19.1533 4.64504 19.1533C4.35602 19.1533 4.15652 18.8572 4.27046 18.588C5.26058 16.248 7.21818 14.474 9.64137 13.7206C9.74434 13.6889 9.85573 13.6992 9.95107 13.7495C10.0464 13.7997 10.1179 13.8856 10.15 13.9885C10.182 14.0914 10.1718 14.2027 10.1218 14.2981C10.0718 14.3936 9.98592 14.4652 9.88308 14.4975ZM13.4371 9.72175L13.3512 10.6192C12.586 10.5432 11.8152 10.5432 11.05 10.6192L10.964 9.72175C10.7921 7.92748 13.609 7.9259 13.4371 9.72175ZM22.7657 15.8764C22.4574 15.8764 22.2577 15.5419 22.4118 15.2694C25.5652 9.69215 17.3199 3.69734 22.4063 1.47689C22.4553 1.4555 22.508 1.44397 22.5614 1.44295C22.6148 1.44193 22.668 1.45145 22.7177 1.47095C22.7675 1.49045 22.8129 1.51955 22.8514 1.5566C22.8899 1.59365 22.9207 1.63792 22.9421 1.68688C22.9635 1.73583 22.975 1.78851 22.976 1.84191C22.9771 1.89532 22.9676 1.94841 22.948 1.99814C22.9285 2.04787 22.8994 2.09327 22.8624 2.13176C22.8253 2.17024 22.781 2.20105 22.7321 2.22243C18.7551 3.95847 26.4324 9.81174 23.1204 15.6696C23.0849 15.7324 23.0334 15.7847 22.971 15.821C22.9087 15.8573 22.8378 15.8765 22.7657 15.8764ZM17.3679 5.78106C17.3054 5.78116 17.2438 5.76687 17.1878 5.73932C17.1318 5.71176 17.0829 5.67168 17.0449 5.62217C16.0366 4.31088 15.2557 2.77506 17.1083 1.32659C17.1934 1.26063 17.3011 1.23105 17.408 1.24432C17.5148 1.25758 17.612 1.31262 17.6783 1.39738C17.7446 1.48214 17.7747 1.58971 17.7618 1.69654C17.7489 1.80338 17.6943 1.90077 17.6097 1.96739C16.513 2.82484 16.5333 3.62198 17.6901 5.12648C17.8983 5.39708 17.6993 5.78106 17.3679 5.78106Z" fill="#01BCF1"/>
<path d="M21.028 14.1473C20.7588 14.1473 20.5643 13.891 20.6353 13.6326C21.2887 11.2572 20.1286 9.38222 18.7777 7.70993C18.7099 7.626 18.6782 7.51857 18.6896 7.4113C18.7011 7.30402 18.7547 7.20568 18.8386 7.1379C18.9226 7.07013 19.0301 7.03847 19.1374 7.0499C19.2447 7.06133 19.3431 7.1149 19.4109 7.19884C20.8267 8.95152 22.1726 11.1122 21.42 13.8482C21.3964 13.9341 21.3453 14.0099 21.2745 14.0639C21.2037 14.1179 21.117 14.1472 21.028 14.1473ZM4.18403 6.59338H2.22627C2.11834 6.59338 2.01484 6.55053 1.93852 6.47424C1.86221 6.39796 1.81934 6.2945 1.81934 6.18662C1.81934 4.17001 3.77709 4.58023 3.77709 3.79121C3.77709 2.99407 2.6332 3.02285 2.6332 3.77088C2.6332 3.87876 2.59033 3.98222 2.51401 4.0585C2.4377 4.13478 2.33419 4.17764 2.22627 4.17764C2.11834 4.17764 2.01484 4.13478 1.93852 4.0585C1.86221 3.98222 1.81934 3.87876 1.81934 3.77088C1.81934 1.94198 4.59096 1.92404 4.59096 3.79121C4.59096 5.24452 2.94644 4.88189 2.6831 5.77986H4.18403C4.29195 5.77986 4.39546 5.82272 4.47177 5.899C4.54809 5.97528 4.59096 6.07874 4.59096 6.18662C4.59096 6.2945 4.54809 6.39796 4.47177 6.47424C4.39546 6.55053 4.29195 6.59338 4.18403 6.59338ZM6.82843 6.58102C6.7205 6.58102 6.617 6.53817 6.54068 6.46189C6.46437 6.38561 6.4215 6.28214 6.4215 6.17427V5.60973H5.12796C4.79809 5.60973 4.60495 5.23638 4.79626 4.96731L6.49673 2.57622C6.72553 2.25448 7.23536 2.41662 7.23536 2.81189V4.79784C7.33654 4.80699 7.43065 4.85363 7.49918 4.9286C7.5677 5.00357 7.6057 5.10145 7.6057 5.203C7.6057 5.30455 7.5677 5.40243 7.49918 5.4774C7.43065 5.55237 7.33654 5.59901 7.23536 5.60816V6.17432C7.23535 6.28219 7.19247 6.38563 7.11616 6.46191C7.03984 6.53818 6.93635 6.58102 6.82843 6.58102ZM5.91654 4.79622H6.42155V4.08612L5.91654 4.79622Z" fill="#01BCF1"/>
<path d="M8.07404 7.45308L7.96671 8.65149C7.95771 8.75266 7.91117 8.8468 7.83624 8.91539C7.76131 8.98398 7.66342 9.02207 7.56181 9.02215C7.32416 9.02215 7.13468 8.81811 7.15589 8.57879L7.17421 8.37337C5.41442 9.58013 3.00182 9.431 1.40389 7.88933C-0.40096 6.14845 -0.512053 3.23773 1.34133 1.37864C3.02964 -0.315771 5.69109 -0.465865 7.49924 1.02577C7.5825 1.09451 7.63505 1.19348 7.64535 1.30092C7.65565 1.40836 7.62286 1.5155 7.55418 1.59879C7.41124 1.77167 7.15437 1.79658 6.98091 1.6532C5.50054 0.430633 3.3117 0.554338 1.91764 1.95268C0.388948 3.48723 0.488342 5.87694 1.96902 7.3041C3.23341 8.52448 5.12346 8.68683 6.55618 7.80442L6.458 7.80289C6.35009 7.80095 6.24737 7.75627 6.1724 7.67867C6.09743 7.60106 6.05635 7.49688 6.05819 7.38901C6.06211 7.17541 6.23215 6.98937 6.47225 6.98937L7.67575 7.01022C7.73162 7.01125 7.78668 7.02375 7.83751 7.04696C7.88834 7.07016 7.93384 7.10357 7.9712 7.14511C8.00856 7.18665 8.03696 7.23542 8.05466 7.28841C8.07235 7.34139 8.07894 7.39744 8.07404 7.45308Z" fill="#01BCF1"/>
</svg>
