<svg width="25" height="25" viewBox="0 0 25 25" fill="none" xmlns="http://www.w3.org/2000/svg">
<path d="M2.37488 21.9375V19.9261C3.01181 19.9261 3.48951 19.7585 3.80797 19.4233C4.12644 19.088 4.75499 18.9204 5.69363 18.9204C6.63226 18.9204 7.27758 19.088 7.62957 19.4233C7.98155 19.7585 8.45925 19.9261 9.06266 19.9261C9.66607 19.9261 10.1438 19.7585 10.4958 19.4233C10.8477 19.088 11.4931 18.9204 12.4317 18.9204C13.3703 18.9204 14.0156 19.088 14.3676 19.4233C14.7196 19.7585 15.1973 19.9261 15.8007 19.9261C16.4041 19.9261 16.8818 19.7585 17.2338 19.4233C17.5858 19.088 18.2311 18.9204 19.1698 18.9204C20.1084 18.9204 20.737 19.088 21.0554 19.4233C21.3739 19.7585 21.8516 19.9261 22.4885 19.9261V21.9375C21.4996 21.9375 20.8501 21.7699 20.54 21.4346C20.2299 21.0994 19.7732 20.9318 19.1698 20.9318C18.5664 20.9318 18.0887 21.0994 17.7367 21.4346C17.3847 21.7699 16.7394 21.9375 15.8007 21.9375C14.8621 21.9375 14.2168 21.7699 13.8648 21.4346C13.5128 21.0994 13.0351 20.9318 12.4317 20.9318C11.8283 20.9318 11.3506 21.0994 10.9986 21.4346C10.6466 21.7699 10.0013 21.9375 9.06266 21.9375C8.12403 21.9375 7.47871 21.7699 7.12672 21.4346C6.77474 21.0994 6.29704 20.9318 5.69363 20.9318C5.09022 20.9318 4.63347 21.0994 4.32339 21.4346C4.0133 21.7699 3.3638 21.9375 2.37488 21.9375ZM2.37488 17.4119V15.4005C3.01181 15.4005 3.48951 15.2329 3.80797 14.8977C4.12644 14.5625 4.75499 14.3949 5.69363 14.3949C6.63226 14.3949 7.28177 14.5625 7.64214 14.8977C8.00251 15.2329 8.47601 15.4005 9.06266 15.4005C9.66607 15.4005 10.1438 15.2329 10.4958 14.8977C10.8477 14.5625 11.4931 14.3949 12.4317 14.3949C13.3703 14.3949 14.0156 14.5625 14.3676 14.8977C14.7196 15.2329 15.1973 15.4005 15.8007 15.4005C16.4041 15.4005 16.8818 15.2329 17.2338 14.8977C17.5858 14.5625 18.2311 14.3949 19.1698 14.3949C20.1084 14.3949 20.737 14.5625 21.0554 14.8977C21.3739 15.2329 21.8516 15.4005 22.4885 15.4005V17.4119C21.4996 17.4119 20.8501 17.2443 20.54 16.9091C20.2299 16.5738 19.7732 16.4062 19.1698 16.4062C18.5664 16.4062 18.1012 16.5738 17.7744 16.9091C17.4475 17.2443 16.7897 17.4119 15.8007 17.4119C14.8453 17.4119 14.1958 17.2443 13.8522 16.9091C13.5086 16.5738 13.0351 16.4062 12.4317 16.4062C11.7948 16.4062 11.3213 16.5738 11.0112 16.9091C10.7011 17.2443 10.0516 17.4119 9.06266 17.4119C8.07374 17.4119 7.41586 17.2443 7.08901 16.9091C6.76217 16.5738 6.29704 16.4062 5.69363 16.4062C5.09022 16.4062 4.63347 16.5738 4.32339 16.9091C4.0133 17.2443 3.3638 17.4119 2.37488 17.4119ZM7.30272 12.2829L10.6466 8.93904L9.64093 7.93336C9.0878 7.38023 8.50116 6.97796 7.88099 6.72654C7.26082 6.47512 6.49817 6.34941 5.59306 6.34941V3.83521C6.85016 3.83521 7.88937 3.97349 8.71067 4.25005C9.53198 4.52661 10.3365 5.05878 11.1243 5.84657L17.5607 12.2829C17.2757 12.4673 16.9992 12.614 16.731 12.7229C16.4628 12.8319 16.1527 12.8863 15.8007 12.8863C15.1973 12.8863 14.7196 12.7187 14.3676 12.3835C14.0156 12.0483 13.3703 11.8807 12.4317 11.8807C11.4931 11.8807 10.8477 12.0483 10.4958 12.3835C10.1438 12.7187 9.66607 12.8863 9.06266 12.8863C8.71067 12.8863 8.40059 12.8319 8.13241 12.7229C7.86422 12.614 7.58766 12.4673 7.30272 12.2829ZM17.1584 3.83521C17.8624 3.83521 18.4574 4.08244 18.9435 4.5769C19.4296 5.07136 19.6726 5.66219 19.6726 6.34941C19.6726 7.05339 19.4296 7.64842 18.9435 8.13449C18.4574 8.62057 17.8624 8.86361 17.1584 8.86361C16.4544 8.86361 15.8594 8.62057 15.3733 8.13449C14.8872 7.64842 14.6442 7.05339 14.6442 6.34941C14.6442 5.66219 14.8872 5.07136 15.3733 4.5769C15.8594 4.08244 16.4544 3.83521 17.1584 3.83521Z" fill="#01BCF1"/>
</svg>
