<svg width="24" height="20" viewBox="0 0 24 20" fill="none" xmlns="http://www.w3.org/2000/svg">
<path d="M21.2327 13.2561L19.2641 8.7982H19.2177C18.1875 8.7982 17.3494 7.96013 17.3494 6.92991V6.1402C17.3494 5.65031 16.9508 5.25178 16.461 5.25178H7.53895C7.04906 5.25178 6.65053 5.65036 6.65053 6.1402V6.92991C6.65053 7.96008 5.81245 8.7982 4.78223 8.7982H4.73541L2.76684 13.2561C2.29238 14.3306 2.05177 15.4711 2.05177 16.6459V18.1154C2.05177 18.8669 2.66311 19.4782 3.41452 19.4782H20.585C21.3364 19.4782 21.9478 18.8668 21.9478 18.1154V16.6459C21.9479 15.4712 21.7072 14.3307 21.2327 13.2561ZM8.91033 16.8885C8.36981 16.8885 7.93158 16.4503 7.93158 15.9098C7.93158 15.3692 8.36981 14.931 8.91033 14.931C9.45094 14.931 9.88908 15.3692 9.88908 15.9098C9.88908 16.4503 9.45089 16.8885 8.91033 16.8885ZM8.91033 13.9134C8.36981 13.9134 7.93158 13.4752 7.93158 12.9347C7.93158 12.3942 8.36981 11.9559 8.91033 11.9559C9.45094 11.9559 9.88908 12.3942 9.88908 12.9347C9.88908 13.4753 9.45089 13.9134 8.91033 13.9134ZM8.91033 10.9384C8.36981 10.9384 7.93158 10.5002 7.93158 9.95967C7.93158 9.41916 8.36981 8.98092 8.91033 8.98092C9.45094 8.98092 9.88908 9.41916 9.88908 9.95967C9.88908 10.5002 9.45089 10.9384 8.91033 10.9384ZM12 16.8885C11.4594 16.8885 11.0212 16.4503 11.0212 15.9098C11.0212 15.3692 11.4594 14.931 12 14.931C12.5405 14.931 12.9787 15.3692 12.9787 15.9098C12.9787 16.4503 12.5406 16.8885 12 16.8885ZM12 13.9134C11.4594 13.9134 11.0212 13.4752 11.0212 12.9347C11.0212 12.3942 11.4594 11.9559 12 11.9559C12.5405 11.9559 12.9787 12.3942 12.9787 12.9347C12.9787 13.4753 12.5406 13.9134 12 13.9134ZM12 10.9384C11.4594 10.9384 11.0212 10.5002 11.0212 9.95967C11.0212 9.41916 11.4594 8.98092 12 8.98092C12.5405 8.98092 12.9787 9.41916 12.9787 9.95967C12.9787 10.5002 12.5406 10.9384 12 10.9384ZM15.0897 16.8885C14.5491 16.8885 14.1109 16.4503 14.1109 15.9098C14.1109 15.3692 14.5492 14.931 15.0897 14.931C15.6302 14.931 16.0684 15.3692 16.0684 15.9098C16.0684 16.4503 15.6302 16.8885 15.0897 16.8885ZM15.0897 13.9134C14.5491 13.9134 14.1109 13.4752 14.1109 12.9347C14.1109 12.3942 14.5492 11.9559 15.0897 11.9559C15.6302 11.9559 16.0684 12.3942 16.0684 12.9347C16.0684 13.4753 15.6302 13.9134 15.0897 13.9134ZM15.0897 10.9384C14.5491 10.9384 14.1109 10.5002 14.1109 9.95967C14.1109 9.41916 14.5492 8.98092 15.0897 8.98092C15.6302 8.98092 16.0684 9.41916 16.0684 9.95967C16.0684 10.5002 15.6302 10.9384 15.0897 10.9384ZM17.746 0.515625H6.25397C3.52823 0.515625 1.20455 2.2687 0.350156 4.70644H5.96259C6.35283 4.27777 6.915 4.00833 7.539 4.00833H16.461C17.085 4.00833 17.6472 4.27781 18.0374 4.70644H23.6498C22.7955 2.26866 20.4718 0.515625 17.746 0.515625ZM23.9243 5.79722H18.5649C18.5835 5.91061 18.5928 6.02531 18.5929 6.1402V6.92991C18.5929 7.27444 18.8732 7.5547 19.2177 7.5547H23.2149C23.6478 7.5547 24 7.20248 24 6.76955C24 6.44396 23.9747 6.11887 23.9243 5.79722ZM0.0757032 5.79717C0.0252782 6.11886 -3.26036e-05 6.44398 3.15185e-08 6.76959C3.15185e-08 7.20253 0.352219 7.55475 0.785156 7.55475H4.78223C5.12677 7.55475 5.40703 7.27449 5.40703 6.92995V6.14025C5.40703 6.02349 5.41683 5.90897 5.43502 5.79722L0.0757032 5.79717Z" fill="#01BCF1"/>
</svg>
