<svg width="24" height="24" viewBox="0 0 24 24" fill="none" xmlns="http://www.w3.org/2000/svg">
<path d="M16.6185 16.3273C16.073 16.0728 15.6366 15.7091 15.3457 15.1637C15.273 16.2909 15.4548 17.8182 16.2185 19.2C16.2185 19.1637 16.6185 16.1091 16.6185 16.3273ZM20.7639 20.0728C20.0366 19.8909 19.4912 19.6 19.1276 19.3091C19.1276 19.3455 18.8003 21.5637 18.8366 21.4182C18.7639 21.8546 19.7094 22.0728 20.2185 22.1819C20.8003 22.3273 21.3821 22 21.5639 21.4182C21.7094 20.8 21.3457 20.2182 20.7639 20.0728ZM14.1094 9.52731V11.0546C14.473 10.9455 14.7639 10.8364 15.0548 10.6546V8.76367C14.8366 9.05458 14.5457 9.34549 14.1094 9.52731Z" fill="#01BCF1"/>
<path d="M17.6009 6.00057C18.6452 6.00057 19.4918 5.15398 19.4918 4.10966C19.4918 3.06534 18.6452 2.21875 17.6009 2.21875C16.5566 2.21875 15.71 3.06534 15.71 4.10966C15.71 5.15398 16.5566 6.00057 17.6009 6.00057Z" fill="#01BCF1"/>
<path d="M23.3095 20.7643H23.455L22.8368 17.0552C22.7641 16.7643 22.5459 16.5825 22.2914 16.437L21.9641 14.9461C21.9277 14.9825 21.855 14.9825 21.8186 15.0188L22.1095 16.3643C21.7823 16.2552 21.455 16.1825 21.2732 16.1825L21.055 14.9825C20.9823 14.9461 20.9459 14.9097 20.8732 14.8734L21.1277 16.1825C21.1277 16.2188 21.1277 16.2915 21.1641 16.3279C21.4186 17.9279 21.7095 19.5279 22.0732 20.7279H22.2186V20.7643L22.255 20.9825C22.255 21.0915 22.3641 21.1643 22.4368 21.1279C22.5095 21.0915 22.5823 21.0188 22.5459 20.9097L22.4368 20.7279L23.0186 20.7643L23.055 20.9825C23.055 21.0915 23.1641 21.1643 23.2368 21.1279C23.3095 21.0915 23.3823 21.0188 23.3459 20.9097L23.3095 20.7643ZM4.61863 5.30973C5.60045 5.30973 6.40045 4.50973 6.40045 3.52791C6.40045 2.54609 5.60045 1.74609 4.61863 1.74609C3.63681 1.74609 2.83681 2.54609 2.83681 3.52791C2.83681 4.50973 3.63681 5.30973 4.61863 5.30973ZM1.89136 12.2915C2.29136 12.2188 2.58227 11.8552 2.50954 11.4552C2.40045 10.837 2.21863 9.38246 2.21863 9.45519C2.21863 9.41882 2.61863 8.61882 2.61863 8.65518L2.76409 10.2552L2.72772 10.3643L2.87318 11.3825C2.9459 11.9279 2.61863 12.437 2.10954 12.5825V12.6188H7.16409L6.50954 10.2552L6.61863 8.98246C8.21863 12.2915 9.67318 13.9279 7.27318 6.69155C7.20045 6.40064 6.9459 6.21882 6.69136 6.18246C6.36409 6.07337 6.07318 5.96428 5.7459 5.92791L5.67318 6.69155L5.455 6.94609L5.7459 7.16428L4.72772 8.94609C4.83681 8.72791 5.12772 7.89155 5.12772 5.89155C3.455 5.78246 4.36409 8.69155 4.50954 8.94609L3.52772 7.20064L3.81863 6.98246L3.60045 6.72791C3.20045 6.437 4.36409 5.60064 2.43681 6.29155H2.40045C2.21863 6.36428 2.07318 6.47337 1.96409 6.65518C1.96409 6.69155 0.727722 9.20064 0.800449 9.05518C0.764086 9.16428 0.727722 9.30973 0.764086 9.45519L1.09136 11.6734C1.12772 12.1097 1.56409 12.3643 1.89136 12.2915Z" fill="#01BCF1"/>
<path d="M19.3095 15.3471C19.6004 14.9834 19.8186 14.5107 19.8186 13.9652V12.2198C20.1095 12.838 20.5095 13.7834 20.9095 14.3652C21.1641 14.7289 21.6004 14.7652 21.9277 14.5471C22.255 14.3289 22.3277 13.8561 22.1095 13.5289C21.4186 12.5107 20.2186 9.31069 19.7823 8.14705C19.6004 7.12887 18.6914 6.36523 17.6368 6.36523C16.4368 6.36523 15.455 7.34705 15.455 8.54705V13.9289C15.455 14.8743 16.0732 15.7834 17.055 16.038C17.055 16.0743 16.8004 17.8561 16.8368 17.7471L16.5823 19.638L16.4004 21.0198C16.3277 21.6016 16.7277 22.1471 17.3459 22.2561C17.9641 22.3289 18.5095 21.8925 18.5823 21.3107C18.5095 21.0561 19.3095 15.5652 19.3095 15.3471ZM1.30953 15.4198H1.12772V16.6561H3.41863C3.7459 16.6561 4.03681 16.9471 4.03681 17.2743C4.03681 17.638 3.7459 17.8925 3.41863 17.8925H1.12772V20.1471C1.12772 20.6925 1.56408 21.1289 2.10953 21.1289H12.655C13.2004 21.1289 13.6368 20.6925 13.6368 20.1471V19.4925H11.7459C11.4186 19.4925 11.1277 19.2016 11.1277 18.8743C11.1277 18.5471 11.4186 18.2561 11.7459 18.2561H13.6368V15.4198H7.92772H1.30953ZM14.2186 13.3471V14.7289C14.2186 14.9107 14.0732 15.0561 13.8914 15.0561H0.873171C0.691353 15.0561 0.545898 14.9107 0.545898 14.7289V13.3471C0.545898 13.1652 0.691353 13.0198 0.873171 13.0198H13.8914C14.0732 13.0198 14.2186 13.1652 14.2186 13.3471ZM7.85499 12.6561H13.6004C13.6732 12.6561 13.7459 12.5834 13.7459 12.5107V9.49251C13.7459 9.41978 13.6732 9.34705 13.6004 9.34705H9.41863C9.3459 9.34705 9.27317 9.41978 9.27317 9.49251V12.438H7.85499V12.6561Z" fill="#01BCF1"/>
</svg>
