<svg width="28" height="15" viewBox="0 0 28 15" fill="none" xmlns="http://www.w3.org/2000/svg">
<path d="M0.742195 7.19434C0.502435 7.19434 0.308071 7.38871 0.308071 7.62847C0.308071 7.86823 0.502435 8.06259 0.742195 8.06259L0.742195 7.19434ZM26.5967 8.06259C26.8364 8.06259 27.0308 7.86823 27.0308 7.62847C27.0308 7.38871 26.8364 7.19434 26.5967 7.19434L26.5967 8.06259ZM20.404 0.777417C20.2167 0.627776 19.9435 0.658329 19.7939 0.845658C19.6442 1.03299 19.6748 1.30616 19.8621 1.4558L20.404 0.777417ZM22.9818 3.39225L23.2528 3.05306L22.9818 3.39225ZM22.9818 11.8647L22.7109 11.5255L22.7109 11.5255L22.9818 11.8647ZM19.8621 13.8011C19.6748 13.9508 19.6442 14.2239 19.7939 14.4113C19.9435 14.5986 20.2167 14.6292 20.404 14.4795L19.8621 13.8011ZM26.5645 7.22039L26.9933 7.15258L26.9933 7.15258L26.5645 7.22039ZM26.5645 8.03654L26.9933 8.10436L26.9933 8.10436L26.5645 8.03654ZM0.742195 8.06259L26.5967 8.06259L26.5967 7.19434L0.742195 7.19434L0.742195 8.06259ZM19.8621 1.4558L22.7109 3.73144L23.2528 3.05306L20.404 0.777417L19.8621 1.4558ZM22.7109 11.5255L19.8621 13.8011L20.404 14.4795L23.2528 12.2039L22.7109 11.5255ZM22.7109 3.73144C23.8551 4.64545 24.6837 5.30821 25.252 5.87855C25.8182 6.44675 26.0695 6.86958 26.1357 7.2882L26.9933 7.15258C26.8846 6.46524 26.4806 5.88139 25.8671 5.26571C25.2557 4.65216 24.3804 3.95384 23.2528 3.05306L22.7109 3.73144ZM23.2528 12.2039C24.3804 11.3031 25.2557 10.6048 25.8671 9.99123C26.4806 9.37554 26.8846 8.79169 26.9933 8.10436L26.1357 7.96873C26.0695 8.38736 25.8182 8.81019 25.252 9.37838C24.6837 9.94872 23.8551 10.6115 22.7109 11.5255L23.2528 12.2039ZM26.1357 7.2882C26.1715 7.51425 26.1715 7.74269 26.1357 7.96873L26.9933 8.10436C27.0433 7.78845 27.0433 7.46848 26.9933 7.15258L26.1357 7.2882Z" fill="#111214"/>
</svg>
