<svg width="40" height="32" viewBox="0 0 40 32" fill="none" xmlns="http://www.w3.org/2000/svg">
<g clip-path="url(#clip0_139_35)">
<path d="M32.5967 15.1943C32.8364 15.1943 33.0308 15.3887 33.0308 15.6285C33.0308 15.8682 32.8364 16.0626 32.5967 16.0626L32.5967 15.1943ZM6.74219 16.0626C6.50243 16.0626 6.30806 15.8682 6.30806 15.6285C6.30806 15.3887 6.50243 15.1943 6.74219 15.1943L6.74219 16.0626ZM12.9349 8.77742C13.1222 8.62778 13.3954 8.65833 13.545 8.84566C13.6946 9.03299 13.6641 9.30616 13.4768 9.4558L12.9349 8.77742ZM10.357 11.3923L10.0861 11.0531L10.357 11.3923ZM10.357 19.8647L10.628 19.5255L10.628 19.5255L10.357 19.8647ZM13.4768 21.8011C13.6641 21.9508 13.6946 22.2239 13.545 22.4113C13.3954 22.5986 13.1222 22.6292 12.9349 22.4795L13.4768 21.8011ZM6.77433 15.2204L6.34553 15.1526L6.34553 15.1526L6.77433 15.2204ZM6.77433 16.0365L6.34553 16.1044L6.34553 16.1044L6.77433 16.0365ZM32.5967 16.0626L6.74219 16.0626L6.74219 15.1943L32.5967 15.1943L32.5967 16.0626ZM13.4768 9.4558L10.628 11.7314L10.0861 11.0531L12.9349 8.77742L13.4768 9.4558ZM10.628 19.5255L13.4768 21.8011L12.9349 22.4795L10.0861 20.2039L10.628 19.5255ZM10.628 11.7314C9.48376 12.6455 8.65514 13.3082 8.08684 13.8786C7.52067 14.4467 7.26933 14.8696 7.20312 15.2882L6.34553 15.1526C6.45423 14.4652 6.85831 13.8814 7.4718 13.2657C8.08315 12.6522 8.95842 11.9538 10.0861 11.0531L10.628 11.7314ZM10.0861 20.2039C8.95842 19.3031 8.08315 18.6048 7.4718 17.9912C6.85831 17.3755 6.45423 16.7917 6.34553 16.1044L7.20312 15.9687C7.26933 16.3874 7.52067 16.8102 8.08684 17.3784C8.65514 17.9487 9.48376 18.6115 10.628 19.5255L10.0861 20.2039ZM7.20312 15.2882C7.16737 15.5142 7.16737 15.7427 7.20312 15.9687L6.34553 16.1044C6.29557 15.7885 6.29557 15.4685 6.34553 15.1526L7.20312 15.2882Z" fill="#111214"/>
</g>
<defs>
<clipPath id="clip0_139_35">
<rect width="31.2569" height="38.7817" fill="white" transform="matrix(4.37114e-08 1 1 -4.37114e-08 0.278564 0)"/>
</clipPath>
</defs>
</svg>
