<svg width="16" height="20" viewBox="0 0 16 20" fill="none" xmlns="http://www.w3.org/2000/svg">
<path fill-rule="evenodd" clip-rule="evenodd" d="M15.5193 17.3916C14.5033 14.1786 11.7733 12.3376 8.0263 12.3376H7.9993C4.2423 12.3166 1.4983 14.1706 0.480305 17.3916L0.362305 17.7656L0.696305 17.9696C2.6543 19.1636 5.0963 19.7686 7.9523 19.7686C7.9843 19.7686 8.0163 19.7686 8.0473 19.7686C10.9433 19.7686 13.3173 19.1796 15.3033 17.9696L15.6373 17.7656L15.5193 17.3916Z" fill="#01BCF1"/>
<path fill-rule="evenodd" clip-rule="evenodd" d="M7.99983 10.1094C10.7228 10.1094 12.9388 7.89442 12.9388 5.17142C12.9388 2.44742 10.7228 0.232422 7.99983 0.232422C5.27683 0.232422 3.06183 2.44742 3.06183 5.17142C3.06183 7.89442 5.27683 10.1094 7.99983 10.1094Z" fill="#01BCF1"/>
</svg>
