<svg width="28" height="29" viewBox="0 0 28 29" fill="none" xmlns="http://www.w3.org/2000/svg">
<g clip-path="url(#clip0_129_404)">
<path fill-rule="evenodd" clip-rule="evenodd" d="M23.8718 4.51813C21.2527 1.883 17.7693 0.43106 14.0577 0.429688C6.40983 0.429688 0.185518 6.68335 0.182841 14.3702C0.18153 16.8275 0.820855 19.226 2.03498 21.3398L0.0664063 28.5647L7.42168 26.6261C9.44806 27.7372 11.7299 28.322 14.0518 28.3227L14.0577 28.3227C21.7044 28.3227 27.9294 22.0684 27.932 14.3815C27.9333 10.6562 26.4917 7.15397 23.8718 4.51879L23.8718 4.51813ZM14.0577 25.9683L14.0531 25.9683C11.984 25.9677 9.95434 25.4088 8.18339 24.3533L7.7623 24.102L3.39744 25.2524L4.56234 20.9761L4.28821 20.5376C3.13398 18.6926 2.52394 16.5601 2.52525 14.3709C2.52793 7.98217 7.7011 2.78405 14.0624 2.78405C17.1426 2.78542 20.0379 3.99206 22.2153 6.18265C24.3928 8.37258 25.5909 11.2845 25.5896 14.3802C25.5869 20.7696 20.4138 25.9677 14.0577 25.9677L14.0577 25.9683ZM20.3831 17.2901C20.0365 17.1157 18.3322 16.2734 18.0141 16.157C17.6961 16.0407 17.4653 15.9826 17.2344 16.3315C17.0036 16.6805 16.339 17.4653 16.1367 17.6972C15.9345 17.9299 15.7323 17.9586 15.3856 17.7841C15.0391 17.6096 13.922 17.242 12.5975 16.0554C11.567 15.1316 10.8711 13.9912 10.6689 13.6422C10.4666 13.2933 10.6476 13.1047 10.8205 12.9316C10.9762 12.7752 11.1671 12.5245 11.3408 12.3213C11.5144 12.118 11.5716 11.9724 11.6874 11.7404C11.8032 11.5077 11.7453 11.3046 11.6588 11.13C11.5723 10.9556 10.8791 9.24091 10.5897 8.54371C10.3082 7.86457 10.0223 7.9568 9.81004 7.94544C9.60771 7.93539 9.37692 7.93342 9.14541 7.93342C8.91391 7.93342 8.53865 8.02027 8.22066 8.36928C7.90266 8.71813 7.00719 9.56115 7.00719 11.2751C7.00719 12.9891 8.24929 14.6463 8.42293 14.879C8.59652 15.1116 10.8677 18.6297 14.3451 20.1392C15.1721 20.4982 15.818 20.7127 16.3217 20.8732C17.152 21.1385 17.9077 21.1012 18.505 21.0115C19.1711 20.9113 20.5562 20.1686 20.8449 19.355C21.1335 18.5415 21.1335 17.8436 21.0471 17.6985C20.9607 17.5535 20.7292 17.4659 20.3825 17.2915L20.3831 17.2901Z" fill="#01BCF1"/>
</g>
<defs>
<clipPath id="clip0_129_404">
<rect width="28" height="28" fill="white" transform="translate(0 28.5) rotate(-90)"/>
</clipPath>
</defs>
</svg>
