<svg width="28" height="28" viewBox="0 0 28 28" fill="none" xmlns="http://www.w3.org/2000/svg">
<g clip-path="url(#clip0_10_669)">
<path fill-rule="evenodd" clip-rule="evenodd" d="M23.8722 4.02057C21.2531 1.38544 17.7697 -0.0664985 14.0581 -0.0678711C6.41019 -0.0678711 0.185884 6.18579 0.183207 13.8726C0.181896 16.3299 0.821221 18.7284 2.03534 20.8422L0.0667725 28.0671L7.42205 26.1285C9.44842 27.2396 11.7303 27.8245 14.0522 27.8251L14.0581 27.8251C21.7047 27.8251 27.9297 21.5709 27.9324 13.884C27.9337 10.1586 26.492 6.65641 23.8722 4.02123L23.8722 4.02057ZM14.0581 25.4708L14.0535 25.4708C11.9844 25.4702 9.9547 24.9112 8.18376 23.8557L7.76266 23.6044L3.39781 24.7548L4.5627 20.4785L4.28858 20.04C3.13434 18.1951 2.5243 16.0625 2.52561 13.8733C2.52829 7.48461 7.70147 2.28649 14.0628 2.28649C17.1429 2.28786 20.0383 3.4945 22.2156 5.68509C24.3932 7.87502 25.5913 10.787 25.59 13.8827C25.5872 20.272 20.4142 25.4702 14.0581 25.4702L14.0581 25.4708ZM20.3835 16.7926C20.0369 16.6181 18.3325 15.7758 18.0145 15.6595C17.6965 15.5431 17.4657 15.485 17.2348 15.8339C17.0039 16.183 16.3394 16.9677 16.1371 17.1996C15.9348 17.4323 15.7326 17.4611 15.386 17.2865C15.0394 17.1121 13.9224 16.7444 12.5978 15.5578C11.5674 14.634 10.8714 13.4936 10.6693 13.1446C10.467 12.7957 10.648 12.6072 10.8209 12.434C10.9766 12.2777 11.1675 12.027 11.3412 11.8237C11.5148 11.6205 11.572 11.4748 11.6877 11.2428C11.8036 11.0101 11.7456 10.8071 11.6592 10.6325C11.5727 10.458 10.8795 8.74335 10.59 8.04615C10.3086 7.36701 10.0226 7.45925 9.8104 7.44788C9.60808 7.43783 9.37728 7.43586 9.14578 7.43586C8.91428 7.43586 8.53902 7.52271 8.22102 7.87172C7.90303 8.22057 7.00756 9.06359 7.00756 10.7775C7.00756 12.4916 8.24965 14.1488 8.4233 14.3814C8.59688 14.614 10.8681 18.1322 14.3455 19.6417C15.1725 20.0006 15.8184 20.2152 16.3221 20.3756C17.1523 20.641 17.9081 20.6036 18.5054 20.5139C19.1715 20.4138 20.5565 19.671 20.8453 18.8574C21.1339 18.0439 21.1339 17.346 21.0475 17.2009C20.961 17.0559 20.7295 16.9683 20.3829 16.7939L20.3835 16.7926Z" fill="white"/>
</g>
<defs>
<clipPath id="clip0_10_669">
<rect width="28" height="28" fill="white" transform="translate(0 28) rotate(-90)"/>
</clipPath>
</defs>
</svg>
