<svg width="24" height="24" viewBox="0 0 24 24" fill="none" xmlns="http://www.w3.org/2000/svg">
<g clip-path="url(#clip0_34_7272)">
<path d="M8.9836 4.00235C10.0888 4.00235 10.9848 3.10639 10.9848 2.00117C10.9848 0.895956 10.0888 0 8.9836 0C7.87838 0 6.98242 0.895956 6.98242 2.00117C6.98242 3.10639 7.87838 4.00235 8.9836 4.00235Z" fill="#01BCF1"/>
<path d="M17.0814 18.3847C16.9897 18.3408 16.8901 18.3154 16.7886 18.31C16.687 18.3045 16.5853 18.3192 16.4894 18.353C16.3935 18.3869 16.3052 18.4393 16.2295 18.5074C16.1538 18.5754 16.0923 18.6576 16.0484 18.7494C14.9736 20.9977 12.6689 22.4498 10.1782 22.4498C6.59249 22.4498 3.67466 19.5328 3.67466 15.9467C3.67466 13.9109 4.60178 12.0301 6.2185 10.7874C6.38143 10.6622 6.48798 10.4775 6.5147 10.2738C6.54143 10.0701 6.48614 9.86415 6.36101 9.70122C6.23588 9.5383 6.05115 9.43175 5.84746 9.40502C5.64377 9.3783 5.43781 9.43358 5.27488 9.55871C3.27411 11.0973 2.12598 13.4258 2.12598 15.9467C2.12598 20.3866 5.73824 23.9997 10.1786 23.9997C13.2619 23.9997 16.1153 22.2006 17.4462 19.4181C17.5345 19.2326 17.5457 19.0197 17.4773 18.826C17.409 18.6323 17.2666 18.4736 17.0814 18.3847Z" fill="#01BCF1"/>
<path d="M21.7459 18.9835L17.5737 12.29C17.3744 11.97 16.9799 11.8947 16.56 11.91H11.3077C11.0943 11.91 10.9216 11.8874 10.9228 11.8605L10.9256 11.811V10.9583C10.9256 10.7446 10.9599 10.5775 11.0029 10.5819C11.0287 10.5847 11.0553 10.5867 11.0814 10.5867H15.6647C15.9095 10.5817 16.1426 10.4808 16.3139 10.3059C16.4853 10.131 16.5813 9.89585 16.5813 9.65097C16.5813 9.4061 16.4853 9.17097 16.3139 8.99603C16.1426 8.8211 15.9095 8.72028 15.6647 8.7152H11.0814C11.0553 8.7152 11.0287 8.71681 11.0029 8.71963C10.9599 8.72486 10.9256 8.55779 10.9256 8.34363V6.15485C10.9256 5.75533 10.7669 5.37216 10.4844 5.08966C10.2019 4.80715 9.81876 4.64844 9.41923 4.64844H9.00096C8.8031 4.64838 8.60717 4.68731 8.42436 4.76299C8.24154 4.83867 8.07543 4.94963 7.9355 5.08951C7.79558 5.2294 7.68458 5.39549 7.60885 5.57828C7.53312 5.76107 7.49414 5.95699 7.49414 6.15485V13.7276C7.49414 13.9255 7.53312 14.1214 7.60885 14.3042C7.68458 14.487 7.79558 14.653 7.9355 14.7929C8.07543 14.9328 8.24154 15.0438 8.42436 15.1195C8.60717 15.1951 8.8031 15.2341 9.00096 15.234H16.2114C16.4252 15.234 16.6937 15.3785 16.8116 15.5573L19.8587 20.1603C20.1385 20.6099 20.7894 20.7122 21.3107 20.3873C21.8313 20.0624 22.0257 19.434 21.7459 18.9835Z" fill="#01BCF1"/>
</g>
<defs>
<clipPath id="clip0_34_7272">
<rect width="24" height="24" fill="white"/>
</clipPath>
</defs>
</svg>
