<svg width="15" height="16" viewBox="0 0 15 16" fill="none" xmlns="http://www.w3.org/2000/svg">
<path d="M9.8181 2.07351C9.1752 1.37037 8.27724 0.983154 7.28612 0.983154C6.28972 0.983154 5.38879 1.36803 4.74886 2.06682C4.10199 2.77331 3.78682 3.73348 3.86082 4.77029C4.00751 6.81579 5.54407 8.47977 7.28612 8.47977C9.02818 8.47977 10.5621 6.81613 10.7111 4.77095C10.7861 3.74352 10.4689 2.78535 9.8181 2.07351ZM13.1007 15.9764H1.47157C1.31935 15.9784 1.16861 15.946 1.03031 15.8816C0.892007 15.8171 0.769624 15.7223 0.672064 15.6039C0.457322 15.3439 0.370764 14.9888 0.434857 14.6297C0.713691 13.0628 1.58389 11.7465 2.95164 10.8225C4.16675 10.0022 5.70595 9.55072 7.28612 9.55072C8.8663 9.55072 10.4055 10.0025 11.6206 10.8225C12.9884 11.7462 13.8586 13.0624 14.1374 14.6293C14.2015 14.9884 14.1149 15.3435 13.9002 15.6036C13.8027 15.722 13.6803 15.8169 13.542 15.8814C13.4037 15.9459 13.2529 15.9784 13.1007 15.9764Z" fill="#01BCF1"/>
</svg>
    