<svg width="24" height="20" viewBox="0 0 24 20" fill="none" xmlns="http://www.w3.org/2000/svg">
<path d="M11.9531 19.8672C12.8074 19.8672 13.5 19.1746 13.5 18.3203C13.5 17.466 12.8074 16.7734 11.9531 16.7734C11.0988 16.7734 10.4062 17.466 10.4062 18.3203C10.4062 19.1746 11.0988 19.8672 11.9531 19.8672Z" fill="#01BCF1"/>
<path d="M23.7483 5.25924C20.6672 1.95348 16.495 0.132859 11.9998 0.132812C7.50499 0.132859 3.33279 1.95348 0.251657 5.25924C-0.101311 5.63799 -0.0804514 6.23124 0.298298 6.58425C0.677094 6.93722 1.2703 6.91641 1.62331 6.53761C4.34581 3.61656 8.03092 2.00786 12.0002 2.00781C15.969 2.00786 19.6542 3.61656 22.3767 6.53761C22.4643 6.63188 22.5705 6.70703 22.6885 6.75836C22.8066 6.8097 22.934 6.8361 23.0627 6.83592C23.2916 6.83592 23.521 6.75258 23.7017 6.58425C24.0804 6.23119 24.1013 5.63799 23.7483 5.25924Z" fill="#01BCF1"/>
<path d="M20.3061 9.13084C18.0285 6.83612 15.0788 5.57242 12 5.57251C8.92055 5.57256 5.9707 6.83631 3.69389 9.13093C3.3292 9.49848 3.3315 10.0921 3.69905 10.4567C4.06659 10.8214 4.66017 10.8191 5.02486 10.4516C6.94697 8.51443 9.42413 7.44756 12 7.44751C14.5752 7.44742 17.0524 8.51434 18.9752 10.4517C19.0622 10.5396 19.1659 10.6094 19.2801 10.6569C19.3944 10.7045 19.5169 10.7289 19.6406 10.7288C19.8881 10.729 20.1256 10.6312 20.3011 10.4567C20.6685 10.0919 20.6708 9.49834 20.3061 9.13084ZM16.554 13.0137C15.3344 11.8053 13.5861 11.0547 11.9913 11.0547H11.9223C10.3275 11.0547 8.57906 11.8053 7.35942 13.0137C6.99164 13.3781 6.98888 13.9717 7.35328 14.3395C7.44035 14.4276 7.54407 14.4975 7.6584 14.5452C7.77274 14.5929 7.89541 14.6173 8.01928 14.6172C8.26646 14.6175 8.50369 14.5199 8.67905 14.3457C9.54731 13.4854 10.8203 12.9297 11.9224 12.9297H11.9911C13.0931 12.9297 14.3662 13.4855 15.2344 14.3457C15.6022 14.71 16.1958 14.7074 16.5602 14.3395C16.9246 13.9717 16.9219 13.3781 16.554 13.0137Z" fill="#01BCF1"/>
</svg>
