<svg width="34" height="34" viewBox="0 0 34 34" fill="none" xmlns="http://www.w3.org/2000/svg">
<path d="M21.5424 12.6225L10.6856 19.2948L11.9756 14.4453C12.082 14.045 11.8438 13.6342 11.4435 13.5278C11.0433 13.4212 10.6324 13.6595 10.5259 14.0598L8.75321 20.7246C8.70035 20.9232 8.73139 21.1349 8.83904 21.31C8.94669 21.4852 9.12154 21.6085 9.32262 21.6511L16.0695 23.08C16.4747 23.1657 16.8729 22.9068 16.9586 22.5016C17.0445 22.0964 16.7856 21.6982 16.3804 21.6125L11.471 20.5728L22.3278 13.9005L21.0379 18.7501C20.9314 19.1503 21.1696 19.5612 21.5699 19.6676C21.9702 19.7741 22.381 19.5358 22.4875 19.1356L24.2598 12.4724C24.3114 12.2802 24.2868 12.0681 24.1744 11.8853C24.062 11.7024 23.8839 11.5847 23.6892 11.5439L16.9439 10.1154C16.5387 10.0296 16.1406 10.2885 16.0548 10.6937C15.969 11.099 16.2279 11.497 16.6331 11.5829L21.5424 12.6225Z" fill="#01BCF1"/>
</svg>
