<svg width="15" height="15" viewBox="0 0 15 15" fill="none" xmlns="http://www.w3.org/2000/svg">
<path d="M14.5929 3.92551C14.5929 3.40596 14.378 2.90768 13.9953 2.54029C13.6126 2.17291 13.0935 1.96652 12.5523 1.96652H12.0422V1.49054C12.0422 1.22699 11.8311 1.00079 11.5566 0.987628C11.4876 0.984438 11.4187 0.994725 11.3539 1.01787C11.2892 1.04101 11.2301 1.07652 11.1801 1.12225C11.1301 1.16799 11.0903 1.22299 11.0631 1.28393C11.0359 1.34487 11.0219 1.41047 11.0219 1.47677V1.96652H3.87967V1.49054C3.87967 1.22699 3.66859 1.00079 3.39407 0.987628C3.32509 0.984438 3.25615 0.994725 3.19144 1.01787C3.12673 1.04101 3.06758 1.07652 3.01758 1.12225C2.96759 1.16799 2.92779 1.22299 2.90059 1.28393C2.87339 1.34487 2.85936 1.41047 2.85936 1.47677V1.96652H2.3492C1.808 1.96652 1.28895 2.17291 0.906263 2.54029C0.523572 2.90768 0.308578 3.40596 0.308578 3.92551V4.29283C0.308578 4.3253 0.322016 4.35644 0.345934 4.3794C0.369852 4.40236 0.402292 4.41526 0.436118 4.41526H14.4654C14.4992 4.41526 14.5317 4.40236 14.5556 4.3794C14.5795 4.35644 14.5929 4.3253 14.5929 4.29283V3.92551ZM0.308578 12.741C0.308578 13.2606 0.523572 13.7588 0.906263 14.1262C1.28895 14.4936 1.808 14.7 2.3492 14.7H12.5523C13.0935 14.7 13.6126 14.4936 13.9953 14.1262C14.378 13.7588 14.5929 13.2606 14.5929 12.741V5.48659C14.5929 5.46224 14.5829 5.43888 14.5649 5.42166C14.547 5.40444 14.5227 5.39476 14.4973 5.39476H0.404233C0.378864 5.39476 0.354534 5.40444 0.336595 5.42166C0.318656 5.43888 0.308578 5.46224 0.308578 5.48659V12.741ZM11.2769 6.37426C11.4283 6.37426 11.5762 6.41735 11.7021 6.49807C11.8279 6.57879 11.926 6.69352 11.9839 6.82776C12.0418 6.96199 12.057 7.1097 12.0275 7.25221C11.9979 7.39471 11.9251 7.52561 11.818 7.62835C11.711 7.73108 11.5747 7.80105 11.4262 7.8294C11.2778 7.85774 11.1239 7.84319 10.9841 7.78759C10.8443 7.73199 10.7247 7.63783 10.6407 7.51702C10.5566 7.39621 10.5117 7.25418 10.5117 7.10889C10.5117 6.91405 10.5923 6.7272 10.7358 6.58943C10.8793 6.45166 11.074 6.37426 11.2769 6.37426ZM11.2769 8.82301C11.4283 8.82301 11.5762 8.8661 11.7021 8.94682C11.8279 9.02754 11.926 9.14227 11.9839 9.27651C12.0418 9.41074 12.057 9.55845 12.0275 9.70095C11.9979 9.84346 11.9251 9.97435 11.818 10.0771C11.711 10.1798 11.5747 10.2498 11.4262 10.2781C11.2778 10.3065 11.1239 10.2919 10.9841 10.2363C10.8443 10.1807 10.7247 10.0866 10.6407 9.96577C10.5566 9.84496 10.5117 9.70293 10.5117 9.55764C10.5117 9.3628 10.5923 9.17595 10.7358 9.03818C10.8793 8.90041 11.074 8.82301 11.2769 8.82301ZM8.72615 6.37426C8.8775 6.37426 9.02545 6.41735 9.15129 6.49807C9.27714 6.57879 9.37522 6.69352 9.43314 6.82776C9.49106 6.96199 9.50621 7.1097 9.47668 7.25221C9.44716 7.39471 9.37428 7.52561 9.26725 7.62835C9.16024 7.73108 9.02388 7.80105 8.87544 7.8294C8.727 7.85774 8.57314 7.84319 8.43331 7.78759C8.29348 7.73199 8.17397 7.63783 8.08988 7.51702C8.0058 7.39621 7.96092 7.25418 7.96092 7.10889C7.96092 6.91405 8.04154 6.7272 8.18505 6.58943C8.32856 6.45166 8.5232 6.37426 8.72615 6.37426ZM8.72615 8.82301C8.8775 8.82301 9.02545 8.8661 9.15129 8.94682C9.27714 9.02754 9.37522 9.14227 9.43314 9.27651C9.49106 9.41074 9.50621 9.55845 9.47668 9.70095C9.44716 9.84346 9.37428 9.97435 9.26725 10.0771C9.16024 10.1798 9.02388 10.2498 8.87544 10.2781C8.727 10.3065 8.57314 10.2919 8.43331 10.2363C8.29348 10.1807 8.17397 10.0866 8.08988 9.96577C8.0058 9.84496 7.96092 9.70293 7.96092 9.55764C7.96092 9.3628 8.04154 9.17595 8.18505 9.03818C8.32856 8.90041 8.5232 8.82301 8.72615 8.82301ZM8.72615 11.2718C8.8775 11.2718 9.02545 11.3148 9.15129 11.3956C9.27714 11.4763 9.37522 11.591 9.43314 11.7253C9.49106 11.8595 9.50621 12.0072 9.47668 12.1497C9.44716 12.2922 9.37428 12.4231 9.26725 12.5258C9.16024 12.6286 9.02388 12.6985 8.87544 12.7269C8.727 12.7552 8.57314 12.7407 8.43331 12.6851C8.29348 12.6295 8.17397 12.5353 8.08988 12.4145C8.0058 12.2937 7.96092 12.1517 7.96092 12.0064C7.96092 11.8116 8.04154 11.6247 8.18505 11.4869C8.32856 11.3492 8.5232 11.2718 8.72615 11.2718ZM6.17537 8.82301C6.32672 8.82301 6.47467 8.8661 6.60051 8.94682C6.72636 9.02754 6.82444 9.14227 6.88236 9.27651C6.94028 9.41074 6.95543 9.55845 6.9259 9.70095C6.89638 9.84346 6.82349 9.97435 6.71648 10.0771C6.60946 10.1798 6.4731 10.2498 6.32466 10.2781C6.17622 10.3065 6.02236 10.2919 5.88253 10.2363C5.7427 10.1807 5.62319 10.0866 5.5391 9.96577C5.45502 9.84496 5.41014 9.70293 5.41014 9.55764C5.41014 9.3628 5.49076 9.17595 5.63427 9.03818C5.77778 8.90041 5.97242 8.82301 6.17537 8.82301ZM6.17537 11.2718C6.32672 11.2718 6.47467 11.3148 6.60051 11.3956C6.72636 11.4763 6.82444 11.591 6.88236 11.7253C6.94028 11.8595 6.95543 12.0072 6.9259 12.1497C6.89638 12.2922 6.82349 12.4231 6.71648 12.5258C6.60946 12.6286 6.4731 12.6985 6.32466 12.7269C6.17622 12.7552 6.02236 12.7407 5.88253 12.6851C5.7427 12.6295 5.62319 12.5353 5.5391 12.4145C5.45502 12.2937 5.41014 12.1517 5.41014 12.0064C5.41014 11.8116 5.49076 11.6247 5.63427 11.4869C5.77778 11.3492 5.97242 11.2718 6.17537 11.2718ZM3.62459 8.82301C3.77594 8.82301 3.92389 8.8661 4.04973 8.94682C4.17558 9.02754 4.27366 9.14227 4.33158 9.27651C4.3895 9.41074 4.40465 9.55845 4.37512 9.70095C4.3456 9.84346 4.27271 9.97435 4.16569 10.0771C4.05868 10.1798 3.92232 10.2498 3.77388 10.2781C3.62544 10.3065 3.47158 10.2919 3.33175 10.2363C3.19192 10.1807 3.07241 10.0866 2.98832 9.96577C2.90424 9.84496 2.85936 9.70293 2.85936 9.55764C2.85936 9.3628 2.93998 9.17595 3.08349 9.03818C3.227 8.90041 3.42164 8.82301 3.62459 8.82301ZM3.62459 11.2718C3.77594 11.2718 3.92389 11.3148 4.04973 11.3956C4.17558 11.4763 4.27366 11.591 4.33158 11.7253C4.3895 11.8595 4.40465 12.0072 4.37512 12.1497C4.3456 12.2922 4.27271 12.4231 4.16569 12.5258C4.05868 12.6286 3.92232 12.6985 3.77388 12.7269C3.62544 12.7552 3.47158 12.7407 3.33175 12.6851C3.19192 12.6295 3.07241 12.5353 2.98832 12.4145C2.90424 12.2937 2.85936 12.1517 2.85936 12.0064C2.85936 11.8116 2.93998 11.6247 3.08349 11.4869C3.227 11.3492 3.42164 11.2718 3.62459 11.2718Z" fill="#01BCF1"/>
</svg>
