<svg width="15" height="15" viewBox="0 0 15 15" fill="none" xmlns="http://www.w3.org/2000/svg">
<path d="M14.6271 3.69383C14.6271 3.17427 14.4121 2.67599 14.0295 2.3086C13.6468 1.94122 13.1277 1.73483 12.5865 1.73483H12.0764V1.25885C12.0764 0.995304 11.8653 0.769101 11.5908 0.755939C11.5218 0.752748 11.4528 0.763035 11.3881 0.786176C11.3234 0.809317 11.2643 0.844831 11.2143 0.890565C11.1643 0.936299 11.1245 0.991301 11.0973 1.05224C11.0701 1.11318 11.0561 1.17878 11.0561 1.24508V1.73483H3.91387V1.25885C3.91387 0.995304 3.70279 0.769101 3.42826 0.755939C3.35928 0.752748 3.29035 0.763035 3.22563 0.786176C3.16092 0.809317 3.10177 0.844831 3.05178 0.890565C3.00178 0.936299 2.96198 0.991301 2.93478 1.05224C2.90759 1.11318 2.89356 1.17878 2.89355 1.24508V1.73483H2.3834C1.84219 1.73483 1.32315 1.94122 0.940458 2.3086C0.557767 2.67599 0.342773 3.17427 0.342773 3.69383V4.06114C0.342773 4.09361 0.356211 4.12475 0.380129 4.14771C0.404047 4.17068 0.436487 4.18357 0.470312 4.18357H14.4996C14.5334 4.18357 14.5659 4.17068 14.5898 4.14771C14.6137 4.12475 14.6271 4.09361 14.6271 4.06114V3.69383ZM0.342773 12.5093C0.342773 13.0289 0.557767 13.5272 0.940458 13.8945C1.32315 14.2619 1.84219 14.4683 2.3834 14.4683H12.5865C13.1277 14.4683 13.6468 14.2619 14.0295 13.8945C14.4121 13.5272 14.6271 13.0289 14.6271 12.5093V5.2549C14.6271 5.23055 14.6171 5.20719 14.5991 5.18997C14.5812 5.17275 14.5569 5.16307 14.5315 5.16307H0.438428C0.413059 5.16307 0.388729 5.17275 0.37079 5.18997C0.352851 5.20719 0.342773 5.23055 0.342773 5.2549V12.5093ZM11.3111 6.14257C11.4625 6.14257 11.6104 6.18566 11.7363 6.26638C11.8621 6.3471 11.9602 6.46183 12.0181 6.59607C12.076 6.7303 12.0912 6.87801 12.0617 7.02052C12.0321 7.16302 11.9592 7.29392 11.8522 7.39666C11.7452 7.4994 11.6089 7.56936 11.4604 7.59771C11.312 7.62605 11.1581 7.61151 11.0183 7.5559C10.8785 7.5003 10.7589 7.40614 10.6749 7.28533C10.5908 7.16453 10.5459 7.02249 10.5459 6.8772C10.5459 6.68236 10.6265 6.49551 10.77 6.35774C10.9135 6.21997 11.1082 6.14257 11.3111 6.14257ZM11.3111 8.59132C11.4625 8.59132 11.6104 8.63441 11.7363 8.71513C11.8621 8.79585 11.9602 8.91058 12.0181 9.04482C12.076 9.17905 12.0912 9.32676 12.0617 9.46926C12.0321 9.61177 11.9592 9.74267 11.8522 9.8454C11.7452 9.94814 11.6089 10.0181 11.4604 10.0465C11.312 10.0748 11.1581 10.0603 11.0183 10.0047C10.8785 9.94905 10.7589 9.85489 10.6749 9.73408C10.5908 9.61327 10.5459 9.47124 10.5459 9.32595C10.5459 9.13111 10.6265 8.94426 10.77 8.80649C10.9135 8.66872 11.1082 8.59132 11.3111 8.59132ZM8.76035 6.14257C8.9117 6.14257 9.05965 6.18566 9.18549 6.26638C9.31133 6.3471 9.40941 6.46183 9.46733 6.59607C9.52525 6.7303 9.54041 6.87801 9.51088 7.02052C9.48135 7.16302 9.40847 7.29392 9.30145 7.39666C9.19443 7.4994 9.05808 7.56936 8.90964 7.59771C8.7612 7.62605 8.60733 7.61151 8.46751 7.5559C8.32768 7.5003 8.20816 7.40614 8.12408 7.28533C8.03999 7.16453 7.99511 7.02249 7.99511 6.8772C7.99511 6.68236 8.07574 6.49551 8.21925 6.35774C8.36276 6.21997 8.55739 6.14257 8.76035 6.14257ZM8.76035 8.59132C8.9117 8.59132 9.05965 8.63441 9.18549 8.71513C9.31133 8.79585 9.40941 8.91058 9.46733 9.04482C9.52525 9.17905 9.54041 9.32676 9.51088 9.46926C9.48135 9.61177 9.40847 9.74267 9.30145 9.8454C9.19443 9.94814 9.05808 10.0181 8.90964 10.0465C8.7612 10.0748 8.60733 10.0603 8.46751 10.0047C8.32768 9.94905 8.20816 9.85489 8.12408 9.73408C8.03999 9.61327 7.99511 9.47124 7.99511 9.32595C7.99511 9.13111 8.07574 8.94426 8.21925 8.80649C8.36276 8.66872 8.55739 8.59132 8.76035 8.59132ZM8.76035 11.0401C8.9117 11.0401 9.05965 11.0832 9.18549 11.1639C9.31133 11.2446 9.40941 11.3593 9.46733 11.4936C9.52525 11.6278 9.54041 11.7755 9.51088 11.918C9.48135 12.0605 9.40847 12.1914 9.30145 12.2942C9.19443 12.3969 9.05808 12.4669 8.90964 12.4952C8.7612 12.5236 8.60733 12.509 8.46751 12.4534C8.32768 12.3978 8.20816 12.3036 8.12408 12.1828C8.03999 12.062 7.99511 11.92 7.99511 11.7747C7.99511 11.5799 8.07574 11.393 8.21925 11.2552C8.36276 11.1175 8.55739 11.0401 8.76035 11.0401ZM6.20957 8.59132C6.36092 8.59132 6.50887 8.63441 6.63471 8.71513C6.76055 8.79585 6.85863 8.91058 6.91655 9.04482C6.97447 9.17905 6.98962 9.32676 6.9601 9.46926C6.93057 9.61177 6.85769 9.74267 6.75067 9.8454C6.64365 9.94814 6.5073 10.0181 6.35886 10.0465C6.21042 10.0748 6.05655 10.0603 5.91673 10.0047C5.7769 9.94905 5.65738 9.85489 5.5733 9.73408C5.48921 9.61327 5.44433 9.47124 5.44433 9.32595C5.44433 9.13111 5.52496 8.94426 5.66847 8.80649C5.81198 8.66872 6.00662 8.59132 6.20957 8.59132ZM6.20957 11.0401C6.36092 11.0401 6.50887 11.0832 6.63471 11.1639C6.76055 11.2446 6.85863 11.3593 6.91655 11.4936C6.97447 11.6278 6.98962 11.7755 6.9601 11.918C6.93057 12.0605 6.85769 12.1914 6.75067 12.2942C6.64365 12.3969 6.5073 12.4669 6.35886 12.4952C6.21042 12.5236 6.05655 12.509 5.91673 12.4534C5.7769 12.3978 5.65738 12.3036 5.5733 12.1828C5.48921 12.062 5.44433 11.92 5.44433 11.7747C5.44433 11.5799 5.52496 11.393 5.66847 11.2552C5.81198 11.1175 6.00662 11.0401 6.20957 11.0401ZM3.65879 8.59132C3.81014 8.59132 3.95809 8.63441 4.08393 8.71513C4.20977 8.79585 4.30785 8.91058 4.36577 9.04482C4.42369 9.17905 4.43884 9.32676 4.40932 9.46926C4.37979 9.61177 4.30691 9.74267 4.19989 9.8454C4.09287 9.94814 3.95652 10.0181 3.80808 10.0465C3.65964 10.0748 3.50577 10.0603 3.36595 10.0047C3.22612 9.94905 3.1066 9.85489 3.02252 9.73408C2.93843 9.61327 2.89355 9.47124 2.89355 9.32595C2.89355 9.13111 2.97418 8.94426 3.11769 8.80649C3.26119 8.66872 3.45583 8.59132 3.65879 8.59132ZM3.65879 11.0401C3.81014 11.0401 3.95809 11.0832 4.08393 11.1639C4.20977 11.2446 4.30785 11.3593 4.36577 11.4936C4.42369 11.6278 4.43884 11.7755 4.40932 11.918C4.37979 12.0605 4.30691 12.1914 4.19989 12.2942C4.09287 12.3969 3.95652 12.4669 3.80808 12.4952C3.65964 12.5236 3.50577 12.509 3.36595 12.4534C3.22612 12.3978 3.1066 12.3036 3.02252 12.1828C2.93843 12.062 2.89355 11.92 2.89355 11.7747C2.89355 11.5799 2.97418 11.393 3.11769 11.2552C3.26119 11.1175 3.45583 11.0401 3.65879 11.0401Z" fill="#01BCF1"/>
</svg>
