<svg width="50" height="27" viewBox="0 0 50 27" fill="none" xmlns="http://www.w3.org/2000/svg">
<rect width="50" height="27" rx="4.02273" fill="#01BCF1"/>
<path d="M21.806 8.786L17.018 20H14.462L19.286 9.074H13.13V6.914H21.806V8.786ZM24.7193 20.126C24.2633 20.126 23.8853 19.988 23.5853 19.712C23.2973 19.424 23.1533 19.07 23.1533 18.65C23.1533 18.23 23.2973 17.882 23.5853 17.606C23.8853 17.318 24.2633 17.174 24.7193 17.174C25.1633 17.174 25.5293 17.318 25.8173 17.606C26.1053 17.882 26.2493 18.23 26.2493 18.65C26.2493 19.07 26.1053 19.424 25.8173 19.712C25.5293 19.988 25.1633 20.126 24.7193 20.126ZM36.3431 8.786L31.5551 20H28.9991L33.8231 9.074H27.6671V6.914H36.3431V8.786Z" fill="white"/>
</svg>
