<svg width="15" height="16" viewBox="0 0 15 16" fill="none" xmlns="http://www.w3.org/2000/svg">
<path d="M9.81812 2.07351C9.17521 1.37037 8.27726 0.983154 7.28614 0.983154C6.28974 0.983154 5.38881 1.36803 4.74888 2.06682C4.10201 2.77331 3.78683 3.73348 3.86084 4.77029C4.00752 6.81579 5.54409 8.47977 7.28614 8.47977C9.02819 8.47977 10.5621 6.81613 10.7111 4.77095C10.7861 3.74352 10.4689 2.78535 9.81812 2.07351ZM13.1007 15.9764H1.47158C1.31937 15.9784 1.16863 15.946 1.03032 15.8816C0.892022 15.8171 0.769639 15.7223 0.672079 15.6039C0.457337 15.3439 0.37078 14.9888 0.434872 14.6297C0.713706 13.0628 1.58391 11.7465 2.95165 10.8225C4.16676 10.0022 5.70597 9.55072 7.28614 9.55072C8.86631 9.55072 10.4055 10.0025 11.6206 10.8225C12.9884 11.7462 13.8586 13.0624 14.1374 14.6293C14.2015 14.9884 14.1149 15.3435 13.9002 15.6036C13.8027 15.722 13.6803 15.8169 13.542 15.8814C13.4037 15.9459 13.2529 15.9784 13.1007 15.9764Z" fill="#01BCF1"/>
</svg>
