<svg width="17" height="14" viewBox="0 0 17 14" fill="none" xmlns="http://www.w3.org/2000/svg">
<path d="M14.6357 6.04811C14.288 5.89271 13.9123 5.81263 13.5326 5.81296H3.60526C3.22557 5.81259 2.84995 5.89254 2.50222 6.04776C2.01074 6.26659 1.59253 6.62647 1.29869 7.08341C1.00486 7.54034 0.848126 8.07454 0.847656 8.6207V12.5515C0.847656 12.7005 0.905763 12.8433 1.00919 12.9486C1.11262 13.0539 1.2529 13.1131 1.39918 13.1131C1.54545 13.1131 1.68573 13.0539 1.78916 12.9486C1.89259 12.8433 1.9507 12.7005 1.9507 12.5515V12.2708C1.95159 12.1966 1.98093 12.1257 2.03245 12.0732C2.08398 12.0208 2.1536 11.9909 2.22646 11.99H14.9114C14.9843 11.9909 15.0539 12.0208 15.1054 12.0732C15.1569 12.1257 15.1863 12.1966 15.1872 12.2708V12.5515C15.1872 12.7005 15.2453 12.8433 15.3487 12.9486C15.4521 13.0539 15.5924 13.1131 15.7387 13.1131C15.885 13.1131 16.0253 13.0539 16.1287 12.9486C16.2321 12.8433 16.2902 12.7005 16.2902 12.5515V8.6207C16.2897 8.0746 16.1329 7.54047 15.8391 7.08361C15.5453 6.62674 15.1271 6.26692 14.6357 6.04811ZM12.7053 0.759033H4.43254C3.92058 0.759033 3.4296 0.966103 3.06759 1.33469C2.70559 1.70328 2.50222 2.20319 2.50222 2.72445V5.25141C2.50223 5.27317 2.50721 5.29462 2.51677 5.31408C2.52632 5.33354 2.54018 5.35047 2.55726 5.36354C2.57435 5.37661 2.59418 5.38546 2.61519 5.38939C2.63621 5.39332 2.65783 5.39222 2.67836 5.38619C2.97944 5.29653 3.29156 5.25114 3.60526 5.25141H3.75106C3.7851 5.25163 3.81801 5.23903 3.84346 5.21603C3.86892 5.19303 3.88512 5.16125 3.88894 5.12682C3.91903 4.85243 4.04732 4.59894 4.24933 4.41475C4.45133 4.23057 4.71289 4.1286 4.98406 4.12832H6.91438C7.18572 4.12834 7.44753 4.23019 7.64976 4.4144C7.85198 4.59861 7.98042 4.85225 8.01052 5.12682C8.01435 5.16125 8.03055 5.19303 8.05601 5.21603C8.08146 5.23903 8.11437 5.25163 8.1484 5.25141H8.99154C9.02557 5.25163 9.05848 5.23903 9.08394 5.21603C9.10939 5.19303 9.12559 5.16125 9.12942 5.12682C9.15948 4.85261 9.28763 4.59927 9.48942 4.4151C9.6912 4.23094 9.95251 4.12886 10.2235 4.12832H12.1538C12.4252 4.12834 12.687 4.23019 12.8892 4.4144C13.0914 4.59861 13.2199 4.85225 13.25 5.12682C13.2538 5.16125 13.27 5.19303 13.2954 5.21603C13.3209 5.23903 13.3538 5.25163 13.3878 5.25141H13.5326C13.8463 5.25126 14.1585 5.29676 14.4595 5.38654C14.4801 5.39258 14.5017 5.39367 14.5228 5.38973C14.5438 5.38578 14.5637 5.3769 14.5807 5.36379C14.5978 5.35068 14.6117 5.3337 14.6212 5.3142C14.6308 5.29469 14.6357 5.2732 14.6357 5.25141V2.72445C14.6357 2.20319 14.4323 1.70328 14.0703 1.33469C13.7083 0.966103 13.2173 0.759033 12.7053 0.759033Z" fill="#01BCF1"/>
</svg>
