<svg width="27" height="20" viewBox="0 0 27 20" fill="none" xmlns="http://www.w3.org/2000/svg">
<path d="M13.8481 19.8177L7.24206 17.5056L2.12235 19.4874C1.75535 19.6342 1.41587 19.5929 1.10392 19.3635C0.791963 19.1342 0.635986 18.8268 0.635986 18.4414V3.02729C0.635986 2.78874 0.7048 2.57771 0.842426 2.39421C0.980053 2.21071 1.16814 2.07308 1.40669 1.98133L7.24206 -0.000488281L13.8481 2.31163L18.9678 0.329815C19.3348 0.183013 19.6743 0.224301 19.9863 0.453678C20.2982 0.683056 20.4542 0.990421 20.4542 1.37577V16.7899C20.4542 17.0285 20.3854 17.2395 20.2478 17.423C20.1101 17.6065 19.922 17.7441 19.6835 17.8359L13.8481 19.8177ZM12.7471 17.1202V4.2384L8.34307 2.69699V15.5788L12.7471 17.1202ZM14.9491 17.1202L18.2522 16.0192V2.97224L14.9491 4.2384V17.1202ZM2.83801 16.845L6.14105 15.5788V2.69699L2.83801 3.798V16.845Z" fill="#FFD603"/>
<path d="M19.5015 12.2332C19.8422 12.2332 20.1338 12.1119 20.3763 11.8694C20.6189 11.6268 20.7402 11.3352 20.7402 10.9946C20.7402 10.654 20.6189 10.3624 20.3763 10.1198C20.1338 9.87723 19.8422 9.75595 19.5015 9.75595C19.1609 9.75595 18.8693 9.87723 18.6268 10.1198C18.3842 10.3624 18.2629 10.654 18.2629 10.9946C18.2629 11.3352 18.3842 11.6268 18.6268 11.8694C18.8693 12.1119 19.1609 12.2332 19.5015 12.2332ZM19.5015 18.4264C17.8397 17.0123 16.5985 15.6988 15.7779 14.486C14.9573 13.2732 14.547 12.1506 14.547 11.1184C14.547 9.57015 15.045 8.33668 16.0411 7.41802C17.0372 6.49937 18.1907 6.04004 19.5015 6.04004C20.8124 6.04004 21.9659 6.49937 22.962 7.41802C23.9581 8.33668 24.4561 9.57015 24.4561 11.1184C24.4561 12.1506 24.0458 13.2732 23.2252 14.486C22.4046 15.6988 21.1634 17.0123 19.5015 18.4264Z" fill="#01BCF1"/>
</svg>
