<svg width="14" height="21" viewBox="0 0 14 21" fill="none" xmlns="http://www.w3.org/2000/svg">
<path d="M7 0.0908203C7.98891 0.0908203 8.95561 0.384065 9.77785 0.933472C10.6001 1.48288 11.241 2.26377 11.6194 3.1774C11.9978 4.09103 12.0969 5.09637 11.9039 6.06627C11.711 7.03618 11.2348 7.92709 10.5355 8.62635C9.83627 9.32562 8.94536 9.80182 7.97545 9.99475C7.00555 10.1877 6.00021 10.0887 5.08658 9.71022C4.17295 9.33178 3.39206 8.69092 2.84265 7.86867C2.29324 7.04643 2 6.07973 2 5.09082L2.005 4.87382C2.06092 3.58657 2.61161 2.3706 3.54222 1.47948C4.47284 0.588362 5.71154 0.0908948 7 0.0908203ZM9 12.0908C10.3261 12.0908 11.5979 12.6176 12.5355 13.5553C13.4732 14.493 14 15.7647 14 17.0908V18.0908C14 18.6213 13.7893 19.13 13.4142 19.505C13.0391 19.8801 12.5304 20.0908 12 20.0908H2C1.46957 20.0908 0.960859 19.8801 0.585786 19.505C0.210714 19.13 0 18.6213 0 18.0908V17.0908C0 15.7647 0.526784 14.493 1.46447 13.5553C2.40215 12.6176 3.67392 12.0908 5 12.0908H9Z" fill="#01BCF1"/>
</svg>
