<svg width="30" height="30" viewBox="0 0 30 30" fill="none" xmlns="http://www.w3.org/2000/svg">
<path d="M22.5 18.75C21.518 18.7508 20.5755 19.1368 19.875 19.825L10 15.425V15V14.5875L19.875 10.175C20.4936 10.7813 21.3029 11.1547 22.1655 11.232C23.0282 11.3093 23.891 11.0855 24.6074 10.5988C25.3238 10.1121 25.8496 9.39242 26.0956 8.56198C26.3416 7.73154 26.2925 6.84156 25.9568 6.04318C25.621 5.24481 25.0192 4.58728 24.2537 4.18225C23.4881 3.77723 22.606 3.64969 21.757 3.8213C20.9081 3.99291 20.1447 4.45308 19.5966 5.12366C19.0485 5.79424 18.7493 6.63389 18.75 7.49999V7.92499L8.87504 12.325C8.34799 11.8072 7.67972 11.4566 6.95412 11.3173C6.22852 11.1779 5.47793 11.2561 4.79658 11.5418C4.11522 11.8276 3.53346 12.3083 3.12434 12.9235C2.71521 13.5387 2.49695 14.2611 2.49695 15C2.49695 15.7388 2.71521 16.4612 3.12434 17.0765C3.53346 17.6917 4.11522 18.1724 4.79658 18.4582C5.47793 18.7439 6.22852 18.822 6.95412 18.6827C7.67972 18.5434 8.34799 18.1928 8.87504 17.675L18.75 22.0875V22.5C18.75 23.2417 18.97 23.9667 19.382 24.5834C19.7941 25.2001 20.3798 25.6807 21.065 25.9645C21.7502 26.2484 22.5042 26.3226 23.2316 26.1779C23.9591 26.0332 24.6272 25.6761 25.1517 25.1516C25.6761 24.6272 26.0333 23.959 26.178 23.2316C26.3227 22.5042 26.2484 21.7501 25.9646 21.0649C25.6808 20.3797 25.2001 19.794 24.5834 19.382C23.9667 18.9699 23.2417 18.75 22.5 18.75ZM22.5 6.24999C22.7473 6.24999 22.9889 6.3233 23.1945 6.46065C23.4001 6.59801 23.5603 6.79323 23.6549 7.02164C23.7495 7.25004 23.7743 7.50138 23.726 7.74385C23.6778 7.98633 23.5587 8.20906 23.3839 8.38387C23.2091 8.55869 22.9864 8.67774 22.7439 8.72597C22.5014 8.7742 22.2501 8.74945 22.0217 8.65484C21.7933 8.56023 21.5981 8.40001 21.4607 8.19445C21.3233 7.98889 21.25 7.74722 21.25 7.49999C21.25 7.16847 21.3817 6.85053 21.6162 6.61611C21.8506 6.38169 22.1685 6.24999 22.5 6.24999ZM6.25004 16.25C6.00281 16.25 5.76114 16.1767 5.55558 16.0393C5.35002 15.902 5.1898 15.7068 5.09519 15.4783C5.00058 15.2499 4.97583 14.9986 5.02406 14.7561C5.07229 14.5136 5.19134 14.2909 5.36616 14.1161C5.54097 13.9413 5.7637 13.8222 6.00618 13.774C6.24865 13.7258 6.49999 13.7505 6.72839 13.8451C6.9568 13.9397 7.15203 14.1 7.28938 14.3055C7.42673 14.5111 7.50004 14.7528 7.50004 15C7.50004 15.3315 7.36834 15.6495 7.13392 15.8839C6.8995 16.1183 6.58156 16.25 6.25004 16.25ZM22.5 23.75C22.2528 23.75 22.0111 23.6767 21.8056 23.5393C21.6 23.402 21.4398 23.2067 21.3452 22.9783C21.2506 22.7499 21.2258 22.4986 21.2741 22.2561C21.3223 22.0136 21.4413 21.7909 21.6162 21.6161C21.791 21.4413 22.0137 21.3222 22.2562 21.274C22.4986 21.2258 22.75 21.2505 22.9784 21.3451C23.2068 21.4397 23.402 21.6 23.5394 21.8055C23.6767 22.0111 23.75 22.2528 23.75 22.5C23.75 22.8315 23.6183 23.1495 23.3839 23.3839C23.1495 23.6183 22.8316 23.75 22.5 23.75Z" fill="#01BCF1"/>
</svg>
