<svg width="20" height="20" viewBox="0 0 20 20" fill="none" xmlns="http://www.w3.org/2000/svg">
<path d="M11 18.35C11.0333 18.6666 10.9293 18.9376 10.688 19.163C10.446 19.3876 10.175 19.475 9.875 19.425C6.975 18.9916 4.675 17.8706 2.975 16.062C1.275 14.254 0.308336 11.7916 0.0750024 8.67498C0.0416691 8.34164 0.137336 8.06231 0.362002 7.83698C0.587336 7.61231 0.866669 7.52497 1.2 7.57498C4.25 7.99164 6.6 9.16664 8.25 11.1C9.9 13.0333 10.8167 15.45 11 18.35ZM9.225 0.474975C9.425 0.191642 9.68734 0.053975 10.012 0.061975C10.3373 0.0706417 10.6 0.216642 10.8 0.499975C11.55 1.54997 12.2043 2.69997 12.763 3.94997C13.321 5.19998 13.6583 6.24998 13.775 7.09998C13.125 7.39998 12.4 7.88731 11.6 8.56198C10.8 9.23731 10.275 9.75831 10.025 10.125C9.79167 9.75831 9.25434 9.22064 8.413 8.51198C7.571 7.80398 6.85834 7.33331 6.275 7.09998C6.40834 6.26664 6.746 5.21231 7.288 3.93697C7.82934 2.66231 8.475 1.50831 9.225 0.474975ZM18.875 7.57498C19.1917 7.54164 19.4583 7.62897 19.675 7.83698C19.8917 8.04564 19.9917 8.31664 19.975 8.64997C19.8417 11.3333 19.1127 13.5126 17.788 15.188C16.4627 16.8626 14.8583 18.0333 12.975 18.7C12.9417 17.6833 12.7877 16.5293 12.513 15.238C12.2377 13.946 11.8083 12.8333 11.225 11.9C11.9417 10.8 13.0043 9.84998 14.413 9.04998C15.821 8.24998 17.3083 7.75831 18.875 7.57498Z" fill="#01BCF1"/>
</svg>
